<svg id="Ebene_1" data-name="Ebene 1" xmlns="http://www.w3.org/2000/svg" viewBox="0 0 141.73 141.73"><defs><style>.cls-1{fill:#96c347;}.cls-2{fill:#42bac1;}</style></defs><title>Zeichenfläche 2</title><path class="cls-1" d="M81.43,40.81a1.64,1.64,0,0,1,0,.22c0,3.56-3.71,6.45-8.28,6.45S64.89,44.59,64.89,41a4.88,4.88,0,0,1,.26-1.57c-24.84,2.4-46,26.24-37.94,45.26,25.73,60.79,33,33.27,48.84,36.34,20,3.88,26.74,10.52,40-40.95C120,64.7,102.81,46.22,81.43,40.81Z"/><path class="cls-2" d="M82.18,9.67c-1.75-.86-2.59,13.78-6.44,19.72-.6.93-1.14,1.85-1.63,2.74a8.19,8.19,0,0,1,6.55,1.8c.45-.47.91-.94,1.4-1.42C92.29,22.53,83.92,10.53,82.18,9.67Z"/><path class="cls-2" d="M74.11,32.13C71.46,37,70.47,41,71.94,41.71s4.35-3.25,8.72-7.78A8.19,8.19,0,0,0,74.11,32.13Z"/></svg>