<?xml version="1.0" encoding="utf-8"?>
<!-- Generator: Adobe Illustrator 22.1.0, SVG Export Plug-In . SVG Version: 6.00 Build 0)  -->
<svg version="1.1" id="Ebene_1" xmlns="http://www.w3.org/2000/svg" xmlns:xlink="http://www.w3.org/1999/xlink" x="0px" y="0px"
	 viewBox="0 0 1689.5 506.2" style="enable-background:new 0 0 1689.5 506.2;" xml:space="preserve">
<g>
	<path d="M507.1,405.1c0-8.2,0-16.5,0-24.7c-15.1,16.7-37.4,27.3-62.3,27.3c-45.4,0-82.4-35.3-82.4-78.9c0-43.5,37-78.9,82.4-78.9
		s82.4,35.3,82.4,78.9l-0.1,76C527,408.8,507.1,409.1,507.1,405.1z M444.8,385.4c33.7,0,61.2-26.6,61.2-56.6s-27.5-56.6-61.2-56.6
		s-61.2,26.6-61.2,56.6S411,385.4,444.8,385.4z"/>
	<path d="M701.1,433.6c0-8.2,0-45.1,0-53.3c-15.1,16.7-37.4,27.3-62.3,27.3c-45.4,0-82.4-35.3-82.4-78.9c0-43.5,37-78.9,82.4-78.9
		c45.4,0,82.4,35.3,82.4,78.9l-0.1,104.6C721.1,437.4,701.1,437.7,701.1,433.6z M638.8,385.4c33.7,0,61.2-26.6,61.2-56.6
		s-27.5-56.6-61.2-56.6c-33.7,0-61.2,26.6-61.2,56.6S605.1,385.4,638.8,385.4z"/>
	<path d="M907.9,328.8c0,43.5-35.1,78.9-78.3,78.9c-43.2,0-78.3-35.3-78.3-78.9c0-43.5,0.2-72.8,0.2-72.8c0-4,4.4-7.5,10-7.5
		c5.6,0,10,3.5,10,7.5c0,0,0,42.7,0,72.8c0,30.1,26.1,56.6,58.1,56.6c32,0,58.1-26.6,58.1-56.6c0-30.1,0-72.8,0-72.8
		c0-4,4.4-7.5,10-7.5s10,3.5,10,7.5C907.7,256,907.9,285.2,907.9,328.8z"/>
	<path d="M1082.7,405.1c0-8.2,0-16.5,0-24.7c-15.1,16.7-37.4,27.3-62.3,27.3c-45.4,0-82.4-35.3-82.4-78.9c0-43.5,37-78.9,82.4-78.9
		c45.4,0,82.4,35.3,82.4,78.9l-0.1,76C1102.7,408.8,1082.7,409.1,1082.7,405.1z M1020.4,385.4c33.7,0,61.2-26.6,61.2-56.6
		s-27.5-56.6-61.2-56.6c-33.7,0-61.2,26.6-61.2,56.6S986.7,385.4,1020.4,385.4z"/>
	<path d="M1151.8,329.3c0,32,26.6,58.1,56.6,58.1s72.8,0,72.8,0c4,0,7.5,4.4,7.5,10s-3.5,10-7.5,10c0,0-29.2,0.2-72.8,0.2
		s-76-35.2-78.9-78.3l2.4-70.7c0-4,4.4-7.5,10-7.5c5.6,0,10,3.5,10,7.5C1151.9,258.6,1151.8,297.3,1151.8,329.3z"/>
	<path d="M1337.5,400.1c0,4-4.4,7.5-10,7.5c-5.6,0-10-3.6-10-7.5c0,0-0.1-143.9,0-143.9c0-4,4.4-7.5,10-7.5c5.6,0,9.9,3.5,10,7.5
		V400.1z"/>
	<path d="M1429,248.6c1.1-0.3,2.4-0.5,3.7-0.5s2.5,0.2,3.7,0.5h57c4,0,7.5,4.4,7.5,10c0,5.6-3.6,10-7.5,10c0,0-24,0-50.7,0v131.5
		c0,4-4.4,7.5-10,7.5c-5.6,0-10-3.6-10-7.5c0,0,0-94.8,0-131.5c-26.6,0-50.6,0-50.6,0c-4,0-7.5-4.4-7.5-10c0-5.6,3.5-9.9,7.5-10
		H1429z"/>
	<path d="M1674.3,256c0,0,0.2,0.1,0.2,43.7c0,2.1-0.1,4.2-0.2,6.3c0,44.1,0,51.6,0,51.7c2.3,48.2-33,67.6-76.5,67.6
		s-33.1-0.2-33.1-0.2c-4,0-7.5-4.4-7.5-10s3.5-10,7.5-10c0,0,3.1,0,33.1,0c30.1,0,56.6-10.5,56.6-42.5c0-1.5,0-2.8,0-4
		c-0.1-0.3-0.1-0.6-0.1-0.9v-5.1c-14.3,16-30.2,26-53.2,26c-43.2,0-74.5-35.3-74.5-78.9s0.2-43.7,0.2-43.7c0-4,4.4-7.5,10-7.5
		s10,3.5,10,7.5c0,0,0,13.6,0,43.7s22.3,56.6,54.4,56.6c31.1,0,51.7-25,53.2-53.9V256c0-4,4.4-7.5,10-7.5h0.1
		C1669.9,248.4,1674.3,251.9,1674.3,256z M1654.2,352.4c0-0.3,0-0.6,0.1-0.9C1654.3,337.5,1654.2,350.8,1654.2,352.4z"/>
</g>
<g>
	<g>
		<path d="M322.2,388.4C271.2,569.6,1.3,531.7,0,343.2c0-0.2,0-0.4,0-0.6c0-0.4,0-0.7,0-1.1v-0.3c0-42.9,66.3-42.9,66.3,0v0.3
			c0,0.2,0,0.4,0,0.6v0.1c0,0.2,0,0.4,0,0.6c0,0.5,0,0.9,0.1,1.4c0,0.4,0,0.8,0.1,1.3c0,0.5,0.1,1,0.1,1.4c0,0.4,0.1,0.8,0.1,1.2
			c0.2,1.4,0.4,2.7,0.7,4.1c0.1,0.4,0.2,0.9,0.3,1.3c0.1,0.4,0.2,0.9,0.3,1.3c0.2,0.9,0.5,1.8,0.8,2.7c0.1,0.4,0.2,0.7,0.3,1
			c0.2,0.7,0.5,1.4,0.7,2c0.1,0.4,0.3,0.7,0.4,1.1c0.2,0.4,0.4,0.9,0.6,1.3c0.2,0.4,0.3,0.7,0.5,1.1c0.2,0.4,0.4,0.8,0.6,1.3
			c0.4,0.7,0.7,1.4,1.1,2.2c0.4,0.8,0.9,1.6,1.4,2.4c0.2,0.4,0.4,0.7,0.7,1.1c2.2,3.3,4.7,6.4,7.6,9.2c0.3,0.3,0.6,0.6,0.9,0.9
			c5.1,4.7,11,8.4,17.5,11c0.3,0.1,0.7,0.3,1,0.4c0.8,0.3,1.6,0.6,2.5,0.8c0.8,0.2,1.5,0.5,2.3,0.7c0.5,0.1,1,0.2,1.5,0.4
			c0.8,0.2,1.7,0.4,2.5,0.5c0.1,0,0.2,0,0.3,0c0.4,0.1,0.7,0.1,1.1,0.2c0.4,0.1,0.9,0.1,1.3,0.2c0.8,0.1,1.6,0.2,2.4,0.2
			c2.9,0.2,5.8,0.2,8.7,0c1.1-0.1,2.2-0.2,3.3-0.4c1.1-0.2,2.1-0.3,3.2-0.6c0.8-0.2,1.5-0.3,2.3-0.5c0.5-0.1,1-0.3,1.5-0.4
			c0.8-0.2,1.5-0.4,2.2-0.7c0.5-0.2,1-0.3,1.5-0.5c0.8-0.3,1.6-0.6,2.4-1c0.4-0.2,0.8-0.3,1.2-0.5c0.8-0.3,1.5-0.7,2.3-1.1
			c0.8-0.4,1.6-0.8,2.4-1.3c0.7-0.4,1.5-0.9,2.2-1.3c0.7-0.5,1.5-0.9,2.2-1.4c0.4-0.3,0.7-0.5,1.1-0.8c1-0.8,2.1-1.6,3-2.4
			c0.7-0.6,1.3-1.1,1.9-1.7c1.3-1.2,2.4-2.4,3.6-3.7c0.3-0.3,0.6-0.6,0.8-1c0.9-1.1,1.7-2.1,2.6-3.3c0.5-0.6,0.9-1.3,1.3-1.9
			c0.5-0.8,1-1.6,1.5-2.4c0.2-0.3,0.4-0.6,0.6-1c0.2-0.4,0.4-0.7,0.6-1.1c0.2-0.4,0.4-0.8,0.6-1.2c0.2-0.4,0.4-0.8,0.6-1.2
			c0.2-0.4,0.4-0.8,0.6-1.2c0.2-0.4,0.3-0.8,0.5-1.2c0.3-0.8,0.7-1.6,0.9-2.4c0.1-0.4,0.3-0.8,0.4-1.2c0.1-0.4,0.3-0.8,0.4-1.3
			c0.3-0.8,0.5-1.7,0.7-2.6c0.1-0.4,0.2-0.9,0.3-1.3c0.2-0.9,0.4-1.7,0.5-2.6c0.1-0.4,0.1-0.9,0.2-1.3c0.2-1.3,0.3-2.7,0.4-4
			c0-0.5,0.1-0.9,0.1-1.4c0-0.5,0-0.9,0-1.4c1.5-42.1,66.4-43.5,66.4-1v0.3c0,0.2,0,0.5,0,0.7v0.1c0,0.4,0,0.9,0,1.3
			c0,0.3,0,0.6,0,0.9c0,0.3,0,0.7,0.1,1c0,0.4,0.1,0.8,0.1,1.2c0,0.3,0.1,0.6,0.1,0.9c0,0.4,0.1,0.8,0.2,1.2c0.1,0.5,0.2,1,0.2,1.5
			c0,0.3,0.1,0.6,0.2,0.9c0.1,0.3,0.1,0.6,0.2,0.8c0.1,0.3,0.1,0.6,0.2,0.9c0.1,0.4,0.2,0.8,0.3,1.3c0.1,0.2,0.1,0.5,0.2,0.7
			c0.1,0.4,0.2,0.7,0.3,1c0.5,1.7,1,3.3,1.7,4.9c0.2,0.4,0.3,0.8,0.5,1.2c0.2,0.4,0.3,0.8,0.5,1.2c0.2,0.4,0.4,0.8,0.6,1.2
			c0.6,1.2,1.2,2.3,1.8,3.5c0.2,0.4,0.4,0.7,0.6,1.1c0.2,0.4,0.5,0.8,0.7,1.2c0.2,0.3,0.4,0.7,0.6,1c0.5,0.7,1,1.4,1.5,2.1
			c0.2,0.3,0.5,0.7,0.8,1c1,1.3,2.2,2.6,3.3,3.9c0.5,0.6,1,1.1,1.6,1.6c0.1,0.1,0.1,0.1,0.2,0.2c0.3,0.3,0.6,0.6,0.9,0.9
			c0.6,0.6,1.3,1.1,1.9,1.7c0.3,0.3,0.7,0.6,1,0.8c4.4,3.5,9.3,6.4,14.6,8.4c0.3,0.1,0.7,0.3,1,0.4c0.8,0.3,1.6,0.6,2.5,0.8
			c0.8,0.2,1.5,0.5,2.3,0.7c0.5,0.1,1,0.2,1.5,0.4c0.8,0.2,1.7,0.4,2.5,0.5c0.1,0,0.2,0,0.3,0c0.4,0.1,0.7,0.1,1.1,0.2
			c0.4,0.1,0.9,0.1,1.3,0.2c0.8,0.1,1.6,0.2,2.4,0.2c2.1,0.2,4.1,0.2,6.2,0.1c0.6,0,1.3,0,1.9-0.1c0.5,0,1-0.1,1.5-0.1
			c0.5,0,1-0.1,1.5-0.2c0.3,0,0.7-0.1,1-0.1c0.9-0.1,1.7-0.3,2.6-0.4c0.2,0,0.4-0.1,0.7-0.1c0.4-0.1,0.8-0.2,1.2-0.3
			c0.4-0.1,0.8-0.2,1.2-0.3c1.9-0.5,3.7-1.1,5.5-1.7c0.5-0.2,1-0.4,1.4-0.6c0.3-0.1,0.7-0.3,1-0.4c0.3-0.1,0.7-0.3,1-0.5
			C319.4,389.9,320.8,389.2,322.2,388.4z"/>
	</g>
	<g>
		<path d="M328.6,341.9l0,1.9v0.1c0,0.3,0,0.6-0.1,0.8c0,0.2,0,0.4-0.1,0.6c0,0.2-0.1,0.5-0.1,0.7c0,0.4-0.1,0.7-0.2,1.1
			c-0.1,0.6-0.2,1.3-0.4,1.9c-0.1,0.4-0.2,0.8-0.3,1.1c-0.1,0.5-0.3,1-0.5,1.5c-0.2,0.5-0.3,1-0.5,1.5c-0.2,0.5-0.4,1-0.6,1.4
			c-0.2,0.5-0.4,0.9-0.7,1.4c-0.2,0.5-0.5,1-0.8,1.5c-0.2,0.4-0.5,0.8-0.7,1.2c-0.3,0.4-0.5,0.9-0.8,1.3c-0.3,0.4-0.6,0.8-0.9,1.2
			c-0.3,0.4-0.6,0.8-0.9,1.2c-0.3,0.4-0.7,0.8-1,1.1c-0.3,0.4-0.7,0.7-1,1.1c-0.3,0.3-0.5,0.5-0.8,0.8c-0.8,0.8-1.7,1.5-2.6,2.2
			c-1.2,0.9-2.5,1.8-3.8,2.5c-0.4,0.3-0.9,0.5-1.3,0.7c-0.9,0.5-1.8,0.9-2.8,1.3c-0.5,0.2-1,0.4-1.4,0.5c-0.5,0.2-1,0.3-1.5,0.5
			c-0.9,0.3-1.9,0.5-2.8,0.7c-0.6,0.1-1.1,0.2-1.7,0.3c-0.4,0.1-0.8,0.1-1.1,0.1c-17.5,2.1-36.5-15-36.8-32.4c0,0,0-0.2,0-0.2v-0.3
			c0-70.2-108.5-70.2-108.5,0v0.2c0,0.1,0,0.2,0,0.3c-0.7,42.2-65.6,42.2-66.3,0c0,0,0-0.2,0-0.2v-0.3c0-27.6-28-54.8-55.9-54.2
			c-0.7,0-1.3,0-2,0.1c-0.4,0-0.8,0.1-1.3,0.1c-0.2,0-0.4,0-0.6,0.1c-1,0.1-1.9,0.2-2.9,0.4c-0.4,0-0.7,0.1-1.1,0.2c0,0-0.1,0-0.1,0
			c-0.4,0.1-0.8,0.1-1.2,0.2c-0.2,0-0.3,0.1-0.5,0.1c-1.2,0.2-2.4,0.5-3.5,0.9c-0.4,0.1-0.8,0.2-1.1,0.3c-0.2,0-0.3,0.1-0.5,0.2
			c-0.3,0.1-0.6,0.2-0.9,0.3c-0.8,0.3-1.5,0.5-2.3,0.8c-0.5,0.2-1,0.4-1.4,0.6c-1.2,0.5-2.4,1.1-3.6,1.7c-0.4,0.2-0.8,0.4-1.1,0.6
			c-0.2,0.1-0.5,0.3-0.8,0.4c3.8-13,9.1-25.6,15.8-37.3c0-0.1,0.1-0.2,0.1-0.2c3.6-6.3,7.6-12.3,11.8-17.9c0.2-0.2,0.4-0.5,0.6-0.8
			c34.5-55.3,23.7-142.2,94.1-169.8v21.4c0,18.3,14.9,33.2,33.2,33.2h4c18.3,0,33.2-14.9,33.2-33.2V67.9
			c68.4,27,60,115.3,93.9,169.7c0.2,0.3,0.4,0.6,0.6,0.8c4.3,5.7,8.3,11.7,11.8,17.9c0,0.1,0.1,0.2,0.1,0.2
			c14.1,24.6,21.9,52.6,22.5,81.3C328.6,339.2,328.6,340.6,328.6,341.9z"/>
	</g>
	<g>
		<path d="M166.4,0c-10.5,10.3-36.8,93.8-4,101.3C188.8,107.3,188.1,0,166.4,0z"/>
	</g>
</g>
</svg>
