<svg id="Ebene_1" data-name="Ebene 1" xmlns="http://www.w3.org/2000/svg" viewBox="0 0 141.73 141.73"><defs><style>.cls-1{fill:#42bac1;}.cls-1,.cls-2{stroke:#fff;stroke-miterlimit:10;stroke-width:4px;}.cls-2{fill:#96c347;}</style></defs><title>Zeichenfläche 2 Kopie 7</title><path class="cls-1" d="M70.8,10.17c-10.57,0-19.21,8.21-19.21,18.25V76.69c3.44,2.42,7.11,8.13,9.64,15.36V89.11c0-18.22,4.37-33,9.76-33s9.07,14.78,9.76,33c0,.78.06,1.53.08,2.28,2.53-6.53,6-11.61,9.18-13.78V28.42C90,18.38,81.37,10.17,70.8,10.17Z"/><path class="cls-2" d="M101.87,69.26c-2.71-11.52-1.54-7.44-4.51-1.9-.82,1.54-2.63,2.39-3.94,3.7C80.81,83.65,74.64,102.29,76,112.41a2.7,2.7,0,0,0,4.48,1.66,48.33,48.33,0,0,0,6.65-7.75c.07-.1.13-.2.19-.3,3.08-5.68,6.63-12.73,10.42-19.45a2.26,2.26,0,0,1,.17-.35C101.87,80.74,102.81,73.27,101.87,69.26Z"/><path class="cls-2" d="M41.86,69.26c2.7-11.52,1.54-7.44,4.5-1.9.83,1.54,2.63,2.39,4,3.7,12.61,12.59,18.78,31.23,17.4,41.35a2.7,2.7,0,0,1-4.48,1.66,49.36,49.36,0,0,1-6.65-7.75c-.07-.1-.13-.2-.19-.3C53.31,100.34,49.77,93.29,46,86.57c-.07-.11-.1-.25-.17-.35C41.85,80.74,40.92,73.27,41.86,69.26Z"/><ellipse class="cls-2" cx="70.95" cy="88.62" rx="8.92" ry="32.15"/></svg>