<svg id="Ebene_1" data-name="Ebene 1" xmlns="http://www.w3.org/2000/svg" viewBox="0 0 141.73 141.73"><defs><style>.cls-1{fill:#018e8a;}.cls-1,.cls-2{stroke:#fff;stroke-miterlimit:10;stroke-width:3px;}.cls-2{fill:#96c347;}</style></defs><title>Zeichenfläche 2 Kopie 13</title><path class="cls-1" d="M100.7,13.4,80.62,23.73a1.8,1.8,0,0,0-1,1.59v22l12.08,3.55c1.47.37,0,3.5-1.08,4.48l-15,14.87,6.33,4,2.35,2,2,1.83,2.08,2,2.42,2.25,4.7,3.94,7.64-3.25V14.87A1.65,1.65,0,0,0,100.7,13.4Z"/><path class="cls-1" d="M92.36,53.65a1.68,1.68,0,0,0-.63-2.78l-19.47-6.8a1.94,1.94,0,0,0-1.18-.34l-.69.46-49,48.41a1.68,1.68,0,0,0,.73,2.81l17.42,4.76a12.91,12.91,0,0,1,1.52.51,5.35,5.35,0,0,0,2.67.53c1-.11,1.51-1.49,2-2.31l1-1.94c0-.62,5-6.24,5.67-6.12l1.33.25a1.23,1.23,0,0,0,1.09-.34L78.88,67Z"/><path class="cls-2" d="M94.83,97.65a2.19,2.19,0,0,0,2.5-1.45c.86-2.59-.25-7.57-.64-8.18l-.93-3h0a15,15,0,0,0-1.92-2.75c-.56-.63-1.78-1.82-2.55-2.6a20.18,20.18,0,0,0-1.92-1.76l-1.51-1.13c-.23-.17-.46-.34-.7-.49-1.07-.71-4.38-2.91-4.51-3L76.1,70C75,70,74.31,72.91,74,74.27l-4.16,16a2.19,2.19,0,0,0,1.64,2.69l3,.69L76,94Z"/><path class="cls-2" d="M64.93,117.2a2.19,2.19,0,0,1-2.27,1.8c-2.72-.15-6.95-3-7.38-3.6l-2.43-2h0A15,15,0,0,1,51,110.64c-.39-.76-1-2.33-1.5-3.33a23.13,23.13,0,0,1-.93-2.43l-.49-1.82c-.08-.28-.15-.55-.21-.83-.26-1.26-1.1-5.14-1.09-5.27l-.67-7.3c.35-1,3.32-.62,4.72-.45l16.39,2a2.19,2.19,0,0,1,1.9,2.51l-.47,3.08-.26,1.58Z"/><path class="cls-2" d="M111.1,126.46a2.19,2.19,0,0,0,2.79.79c2.45-1.19,5.25-5.46,5.42-6.16l1.49-2.75h0a14.43,14.43,0,0,0,.63-3.3c.07-.84.07-2.54.1-3.64a19.73,19.73,0,0,0-.08-2.6l-.24-1.88c0-.28-.08-.56-.13-.84-.24-1.26-1-5.17-1-5.29l-2.19-7c-.73-.81-3.31.72-4.54,1.41L99,103.34a2.2,2.2,0,0,0-.79,3l1.63,2.66.84,1.35Z"/><path class="cls-2" d="M76.15,118.94a2.18,2.18,0,0,1-2.86-.38c-1.79-2-2.69-7.08-2.56-7.8l-.29-3.11h0a14.86,14.86,0,0,1,.72-3.28c.27-.8,1-2.36,1.35-3.38a20.92,20.92,0,0,1,1.1-2.37l1-1.62c.14-.25.3-.49.45-.72.72-1.07,2.93-4.37,3-4.46l4.77-5.56c1-.46,2.75,2,3.61,3.08l10,13.14a2.2,2.2,0,0,1-.47,3.12l-2.54,1.79-1.31.92Z"/></svg>