<svg id="Ebene_1" data-name="Ebene 1" xmlns="http://www.w3.org/2000/svg" viewBox="0 0 141.73 141.73"><defs><style>.cls-1{fill:#96c347;stroke:#fff;stroke-miterlimit:10;stroke-width:4px;}</style></defs><title>Zeichenfläche 18</title><path class="cls-1" d="M101,78.32c-11.88,34.2,4.62,48.44-23.71,49.28-28.83.84-13.44-10.45-39.35-48.73C17.61,48.81,41.2,35.57,62.45,30.8S113.76,41.68,101,78.32Z"/><path class="cls-1" d="M42.19,48.05c-3,7.6-16.08,2.44-22.33-5.37s.95-21.37,7-26.22-6.22,11.08,0,18.88S44.76,41.6,42.19,48.05Z"/><path class="cls-1" d="M88.78,41.92c2.94,7.6,16.06,2.46,22.38-5.34s-.72-21.38-6.75-26.23,6.1,11.08-.23,18.88S86.28,35.47,88.78,41.92Z"/><path class="cls-1" d="M13.86,58.41c1.45,4,14.52,9.74,19.43,6.12,2.48-1.84,1.75-4.57-.55-7.89s-14.38-3.77-17.29-2.72C13,54.83,12.47,54.54,13.86,58.41Z"/><path class="cls-1" d="M117.91,50.59c-2.54,3.92-16.91,8.7-20.66,4.69-1.9-2-.42-4.72,2.77-7.89S115.1,44.68,117.65,46C119.82,47.05,120.38,46.8,117.91,50.59Z"/></svg>