<svg id="Ebene_1" data-name="Ebene 1" xmlns="http://www.w3.org/2000/svg" viewBox="0 0 141.73 141.73"><defs><style>.cls-1{fill:#96c347;}.cls-2{fill:#42bac1;}.cls-3{fill:#fff;}</style></defs><title>Zeichenfläche 2 Kopie 6</title><rect class="cls-1" x="43.18" y="16.19" width="61.85" height="110.88"/><path class="cls-2" d="M65.11,11.42v-3a.9.9,0,0,0-1-.83H50.21a.9.9,0,0,0-1,.83v3a.74.74,0,0,0,.17.45H64.94A.8.8,0,0,0,65.11,11.42Z"/><path class="cls-2" d="M50.21,12.25H64.16a1,1,0,0,0,.78-.38H49.43A1,1,0,0,0,50.21,12.25Z"/><path class="cls-3" d="M60.56,71.87C58.13,65.45,65,57.31,72.64,57.31S87.43,64.55,86.08,70.4C82.29,86.89,80.35,84.76,74.6,83.52,70.06,82.53,68,91.35,60.56,71.87Z"/><path class="cls-3" d="M78.49,55.71c-2.48.52-4.37,1.35-4.69.83S75,54.8,77.31,53.82,82.72,49,83,49.53A5.34,5.34,0,0,1,78.49,55.71Z"/></svg>