<svg id="Ebene_1" data-name="Ebene 1" xmlns="http://www.w3.org/2000/svg" viewBox="0 0 141.73 141.73"><defs><style>.cls-1{fill:#96c347;}.cls-1,.cls-2,.cls-3{stroke:#fff;stroke-miterlimit:10;}.cls-1,.cls-3{stroke-width:4px;}.cls-2{fill:#018e8a;}.cls-3{fill:#fff;}</style></defs><title>Zeichenfläche 2 Kopie 6</title><rect class="cls-1" x="44.68" y="12.46" width="61.85" height="110.88"/><path class="cls-2" d="M60.56,71.87C58.13,65.45,65,57.31,72.64,57.31S87.43,64.55,86.08,70.4C82.29,86.89,80.35,84.76,74.6,83.52,70.06,82.53,68,91.35,60.56,71.87Z"/><path class="cls-3" d="M66.22,6.35V4.28a.89.89,0,0,0-.93-.85l-13.81,0a.91.91,0,0,0-1,.84V6.41a1,1,0,0,0,1,1l13.49,0A1.15,1.15,0,0,0,66.22,6.35Z"/><path class="cls-2" d="M76.69,55c-1.73,1.27-2.75,2.62-3.4,2.27s-.18-1.94,1-3.54,1.14-6,1.79-5.65S80.11,52.49,76.69,55Z"/></svg>