<svg id="Ebene_1" data-name="Ebene 1" xmlns="http://www.w3.org/2000/svg" viewBox="0 0 141.73 141.73"><defs><style>.cls-1{fill:#018e8a;}.cls-2{fill:#42bac1;}</style></defs><title>Zeichenfläche 2 Kopie 9</title><path class="cls-1" d="M38.85,35.27c.82-2.31,1.64-4.45,2.46-6.29A27.26,27.26,0,0,0,38.85,35.27Z"/><path class="cls-1" d="M92.51,22.82h0a21.27,21.27,0,0,0-9.24-5.24,14.68,14.68,0,0,1,.26,2.76c0,7.77-6,14.07-13.35,14.07S56.87,28.1,56.87,20.33a14.3,14.3,0,0,1,.35-3.16,20.87,20.87,0,0,0-10.73,5.19,1.75,1.75,0,0,1,.55.12c3.17,1.34,1.6,5.19-1.18,16.31-1.94,7.79-5,20.87-7.9,29.14v59.29h62.66V65.35c-2.6-8.19-5.21-19.29-6.94-26.22C90.9,28,89.34,24.16,92.51,22.82Z"/><path class="cls-2" d="M124.38,68.4l-9.5-28.19c-.69-3.16-6.83-20.38-18.56-14.86l-.06.11c2.16,3.48,4.41,9.8,6.6,16.58,3.25,10.09,6.1,29.06,4.06,33.08l.15.68c.69,3.16,3.07,4.94,5.32,4l9.16-3.91C123.8,74.91,125.07,71.56,124.38,68.4Z"/><path class="cls-2" d="M102.86,42c-2.19-6.78-4.44-13.1-6.6-16.58l-.39.85c-2.25,1,3.4,13.58,4.09,16.74l7,32.07C109,71.1,106.11,52.13,102.86,42Z"/><path class="cls-2" d="M36.69,41.7c2.2-6.85,4.48-13.24,6.66-16.68-11.2-4.39-17.09,12.1-17.76,15.19L16.08,68.4c-.68,3.16.59,6.51,2.84,7.47l9.15,3.91c2.26,1,4.64-.82,5.33-4l.06-.27a1,1,0,0,1-.29-.09C30.15,73.7,33.18,52.55,36.69,41.7Z"/><path class="cls-2" d="M44.6,26.31l-.45-1c-.27-.13-.53-.23-.8-.33-2.18,3.44-4.46,9.83-6.66,16.68-3.51,10.85-6.54,32-3.52,33.74a1,1,0,0,0,.29.09l7-32.48C41.2,39.89,46.85,27.27,44.6,26.31Z"/></svg>