<svg id="Ebene_1" data-name="Ebene 1" xmlns="http://www.w3.org/2000/svg" viewBox="0 0 141.73 141.73"><defs><style>.cls-1,.cls-11,.cls-16{fill:#96c347;}.cls-1,.cls-10,.cls-11,.cls-12,.cls-15,.cls-16,.cls-17,.cls-18,.cls-19,.cls-2,.cls-21,.cls-22,.cls-23,.cls-24,.cls-3,.cls-4,.cls-5{stroke:#fff;}.cls-1,.cls-10,.cls-11,.cls-12,.cls-13,.cls-15,.cls-16,.cls-17,.cls-18,.cls-19,.cls-2,.cls-21,.cls-22,.cls-23,.cls-24,.cls-25,.cls-3,.cls-4,.cls-5{stroke-miterlimit:10;}.cls-1,.cls-10,.cls-2,.cls-3,.cls-4,.cls-5{stroke-width:2px;}.cls-2,.cls-8{fill:#bfbebe;}.cls-10,.cls-11,.cls-12,.cls-15,.cls-16,.cls-17,.cls-18,.cls-19,.cls-2,.cls-21,.cls-22,.cls-23,.cls-24,.cls-25,.cls-3,.cls-4,.cls-5{stroke-linecap:round;}.cls-20,.cls-24,.cls-3{fill:#646463;}.cls-15,.cls-4{fill:#42bac1;}.cls-25,.cls-5{fill:#4c4835;}.cls-21,.cls-6{fill:#fff;}.cls-7{fill:#942b2b;}.cls-9{fill:#e84241;}.cls-10{fill:none;}.cls-12{fill:#e84143;}.cls-12,.cls-13,.cls-15,.cls-16,.cls-17,.cls-18,.cls-19,.cls-21,.cls-22,.cls-23,.cls-24{stroke-width:0.25px;}.cls-13{fill:#f8aa12;stroke:#fdfdfd;}.cls-14{fill:#739b2d;}.cls-17{fill:#d1b95a;}.cls-19{fill:#f8aa16;}.cls-22{fill:#e84343;}.cls-23{fill:#018e8a;}.cls-25{stroke:#4c4835;stroke-width:0.5px;}</style></defs><title>Zeichenfläche 1 Kopie 4</title><polygon class="cls-1" points="127.71 81.25 18.98 81.25 4.03 114.85 140.69 115.31 127.71 81.25"/><rect class="cls-2" x="18.17" y="58.43" width="25.5" height="36.37"/><path class="cls-3" d="M54.57,96.14h14.6a1.69,1.69,0,0,1,1.69,1.69V102a7,7,0,0,1-7,7H59.19a7,7,0,0,1-7-7V98.52A2.38,2.38,0,0,1,54.57,96.14Z"/><ellipse class="cls-4" cx="61.53" cy="95.89" rx="8.5" ry="3.58"/><path class="cls-5" d="M81.19,58.14h0a2.25,2.25,0,0,1,2.25,2.25V90a.17.17,0,0,1-.17.17H79.57a.63.63,0,0,1-.63-.63V60.39A2.25,2.25,0,0,1,81.19,58.14Z"/><path class="cls-6" d="M79.68,58.63C74,58.56,74.77,45.75,74.9,42.16c0-.8-1.22-.8-1.25,0-.15,4.34-.87,17.64,6,17.72a.63.63,0,0,0,0-1.25Z"/><path class="cls-6" d="M84,59.51c6.66-.81,8.53-7.57,9.49-13.21.14-.78-1.07-1.12-1.2-.33C91.43,50.91,90,57.53,84,58.26c-.78.09-.79,1.34,0,1.25Z"/><path class="cls-6" d="M75.36,55.93a6.65,6.65,0,0,1-6.06-5.46c-.15-.79-1.35-.45-1.21.34a7.91,7.91,0,0,0,7.27,6.37c.81,0,.8-1.2,0-1.25Z"/><path class="cls-6" d="M86.64,58.46A3.7,3.7,0,0,0,91.39,61c.75-.27.42-1.48-.33-1.2a2.46,2.46,0,0,1-3.22-1.65.62.62,0,0,0-1.2.33Z"/><path class="cls-7" d="M65,59.25a.53.53,0,0,1-.39.89H44.78a.53.53,0,0,1-.39-.89l1-1H46a.53.53,0,0,0,.4-.88l-.12-.14,8-8.83a.53.53,0,0,1,.78,0Z"/><rect class="cls-8" x="44.69" y="60.39" width="19.36" height="24.56"/><path class="cls-7" d="M46.39,57.32a.53.53,0,0,1-.4.88h-.65l.93-1Z"/><path class="cls-9" d="M31.18,39.67,46.27,57.18l-.93,1H15.58a.53.53,0,0,1-.4-.88l15.2-17.65A.52.52,0,0,1,31.18,39.67Z"/><path class="cls-10" d="M45.34,58.2l-1,1a.53.53,0,0,0,.39.89h19.8a.53.53,0,0,0,.39-.89l-9.9-10.9a.53.53,0,0,0-.78,0l-8,8.83"/><rect class="cls-10" x="44.69" y="60.39" width="19.36" height="24.56"/><path class="cls-10" d="M46.27,57.18,31.18,39.67a.52.52,0,0,0-.8,0L15.18,57.32a.53.53,0,0,0,.4.88H46a.53.53,0,0,0,.4-.88Z"/><ellipse class="cls-11" cx="88.36" cy="46.39" rx="15.83" ry="11.75"/><ellipse class="cls-11" cx="75.13" cy="44.1" rx="10.23" ry="6.62"/><ellipse class="cls-11" cx="67.11" cy="50.29" rx="8.25" ry="4.32"/><ellipse class="cls-11" cx="94.04" cy="59.29" rx="6.14" ry="3.25"/><circle class="cls-12" cx="96.09" cy="51.4" r="1.6"/><circle class="cls-12" cx="94.48" cy="59.29" r="1.6"/><circle class="cls-12" cx="83.76" cy="53.01" r="1.6"/><circle class="cls-12" cx="99.44" cy="42.93" r="1.6"/><circle class="cls-12" cx="89.23" cy="38.68" r="1.6"/><circle class="cls-12" cx="91.09" cy="46.14" r="1.6"/><circle class="cls-12" cx="78.08" cy="46.14" r="1.6"/><circle class="cls-12" cx="70.76" cy="42.16" r="1.6"/><circle class="cls-12" cx="63.3" cy="50.29" r="1.6"/><circle class="cls-12" cx="69.32" cy="51.4" r="1.6"/><circle class="cls-12" cx="77.34" cy="40.56" r="1.6"/><path class="cls-13" d="M103.73,85h.92a1.17,1.17,0,0,1,1.17,1.17v1.71a0,0,0,0,1,0,0h-3.25a0,0,0,0,1,0,0V86.16A1.17,1.17,0,0,1,103.73,85Z"/><path class="cls-14" d="M102.74,83.07a8.39,8.39,0,0,1,.91,2,.63.63,0,0,0,1.23-.16,11,11,0,0,1,.63-3.26c.27-.76-.94-1.09-1.2-.33a12.2,12.2,0,0,0-.68,3.59l1.23-.17a10.37,10.37,0,0,0-1-2.27.63.63,0,0,0-1.08.63Z"/><path class="cls-13" d="M104.45,90.47h.92a1.17,1.17,0,0,1,1.17,1.17v1.71a0,0,0,0,1,0,0h-3.25a0,0,0,0,1,0,0V91.64A1.17,1.17,0,0,1,104.45,90.47Z"/><path class="cls-14" d="M103.46,88.55a8.39,8.39,0,0,1,.91,2,.63.63,0,0,0,1.23-.16,11,11,0,0,1,.63-3.26c.27-.76-.94-1.09-1.2-.33a12.2,12.2,0,0,0-.68,3.59l1.22-.17a9.89,9.89,0,0,0-1-2.27c-.42-.69-1.51-.06-1.08.63Z"/><path class="cls-13" d="M105.36,96.47h.92a1.17,1.17,0,0,1,1.17,1.17v1.71a0,0,0,0,1,0,0h-3.25a0,0,0,0,1,0,0V97.64A1.17,1.17,0,0,1,105.36,96.47Z"/><path class="cls-14" d="M104.37,94.55a9.28,9.28,0,0,1,.91,2,.62.62,0,0,0,1.22-.16,11.3,11.3,0,0,1,.64-3.26c.27-.76-.94-1.09-1.21-.33a12.2,12.2,0,0,0-.68,3.59l1.23-.17a9.52,9.52,0,0,0-1-2.27c-.42-.69-1.5-.06-1.07.63Z"/><path class="cls-13" d="M106.08,102.89H107a1.17,1.17,0,0,1,1.17,1.17v1.71a0,0,0,0,1,0,0h-3.25a0,0,0,0,1,0,0v-1.71a1.17,1.17,0,0,1,1.17-1.17Z"/><path class="cls-14" d="M105.08,101a8.65,8.65,0,0,1,.91,2,.63.63,0,0,0,1.23-.17,10.91,10.91,0,0,1,.64-3.25c.26-.76-.94-1.09-1.21-.34a12.26,12.26,0,0,0-.68,3.59l1.23-.16a9.77,9.77,0,0,0-1-2.28c-.42-.68-1.5,0-1.08.63Z"/><path class="cls-13" d="M106.8,108h.92a1.17,1.17,0,0,1,1.17,1.17v1.71a0,0,0,0,1,0,0h-3.25a0,0,0,0,1,0,0v-1.71A1.17,1.17,0,0,1,106.8,108Z"/><path class="cls-14" d="M105.8,106a8.39,8.39,0,0,1,.91,2,.63.63,0,0,0,1.23-.17,11.28,11.28,0,0,1,.63-3.25c.27-.76-.94-1.09-1.2-.33a12.14,12.14,0,0,0-.68,3.58l1.23-.16a10.2,10.2,0,0,0-1-2.28c-.42-.68-1.5,0-1.08.64Z"/><path class="cls-13" d="M117.72,85.33h.92a1.17,1.17,0,0,1,1.17,1.17V88.2a0,0,0,0,1,0,0h-3.25a0,0,0,0,1,0,0V86.5A1.17,1.17,0,0,1,117.72,85.33Z"/><path class="cls-14" d="M116.73,83.4a8.65,8.65,0,0,1,.91,2,.63.63,0,0,0,1.23-.17A11.35,11.35,0,0,1,119.5,82c.27-.76-.94-1.08-1.2-.33a12.2,12.2,0,0,0-.68,3.59l1.23-.17a10.59,10.59,0,0,0-1-2.27c-.42-.68-1.5,0-1.08.63Z"/><path class="cls-13" d="M118.73,90.47h.92a1.17,1.17,0,0,1,1.17,1.17v1.71a0,0,0,0,1,0,0h-3.25a0,0,0,0,1,0,0V91.64A1.17,1.17,0,0,1,118.73,90.47Z"/><path class="cls-14" d="M117.74,88.55a8.39,8.39,0,0,1,.91,2,.63.63,0,0,0,1.23-.16,11,11,0,0,1,.63-3.26c.27-.76-.94-1.09-1.2-.33a12.2,12.2,0,0,0-.68,3.59l1.23-.17a10.37,10.37,0,0,0-1-2.27.63.63,0,0,0-1.08.63Z"/><path class="cls-13" d="M119.35,96.22h.92a1.17,1.17,0,0,1,1.17,1.17V99.1a0,0,0,0,1,0,0h-3.25a0,0,0,0,1,0,0V97.39A1.17,1.17,0,0,1,119.35,96.22Z"/><path class="cls-14" d="M118.36,94.3a8.81,8.81,0,0,1,.91,2,.62.62,0,0,0,1.22-.16,11.3,11.3,0,0,1,.64-3.26c.27-.76-.94-1.09-1.21-.33a12.2,12.2,0,0,0-.68,3.59l1.23-.17a9.89,9.89,0,0,0-1-2.27c-.43-.69-1.51-.06-1.08.63Z"/><path class="cls-13" d="M121.07,102.89H122a1.17,1.17,0,0,1,1.17,1.17v1.71a0,0,0,0,1,0,0H119.9a0,0,0,0,1,0,0v-1.71A1.17,1.17,0,0,1,121.07,102.89Z"/><path class="cls-14" d="M120.07,101a8.65,8.65,0,0,1,.91,2,.63.63,0,0,0,1.23-.17,10.91,10.91,0,0,1,.64-3.25c.26-.76-.94-1.09-1.21-.34a12.26,12.26,0,0,0-.68,3.59l1.23-.16a9.77,9.77,0,0,0-1-2.28c-.42-.68-1.5,0-1.08.63Z"/><path class="cls-13" d="M122.69,108.29h.92a1.17,1.17,0,0,1,1.17,1.17v1.71a0,0,0,0,1,0,0h-3.25a0,0,0,0,1,0,0v-1.71A1.17,1.17,0,0,1,122.69,108.29Z"/><path class="cls-14" d="M121.7,106.36a8.39,8.39,0,0,1,.91,2,.63.63,0,0,0,1.23-.16,11,11,0,0,1,.63-3.26c.27-.76-.94-1.09-1.2-.33a12.2,12.2,0,0,0-.68,3.59l1.23-.17a10.37,10.37,0,0,0-1-2.27c-.42-.68-1.51-.06-1.08.63Z"/><rect class="cls-15" x="26.43" y="95.13" width="1.72" height="10.25" rx="0.33" ry="0.33"/><rect class="cls-15" x="29.23" y="95.13" width="1.72" height="10.25" rx="0.33" ry="0.33"/><path class="cls-16" d="M26.89,86.21h3.62a.77.77,0,0,1,.77.77v8.79a1.63,1.63,0,0,1-1.63,1.63H27.73a1.63,1.63,0,0,1-1.63-1.63V87a.79.79,0,0,1,.79-.79Z"/><path class="cls-15" d="M26.94,90.08h3.62a.77.77,0,0,1,.77.77v4.85a1.63,1.63,0,0,1-1.63,1.63H27.78a1.63,1.63,0,0,1-1.63-1.63V90.87A.79.79,0,0,1,26.94,90.08Z"/><rect class="cls-17" x="24.78" y="87.14" width="1.72" height="10.25" rx="0.33" ry="0.33"/><rect class="cls-17" x="31.05" y="87.14" width="1.72" height="10.25" rx="0.33" ry="0.33"/><ellipse class="cls-17" cx="28.74" cy="84.29" rx="1.61" ry="2.58"/><path class="cls-16" d="M31.56,86.87h.71a.61.61,0,0,1,.61.61v2.11a0,0,0,0,1,0,0H31a0,0,0,0,1,0,0V87.48A.61.61,0,0,1,31.56,86.87Z"/><path class="cls-18" d="M26.87,104h.71a.61.61,0,0,1,.61.61V106a0,0,0,0,1,0,0H26.27a0,0,0,0,1,0,0v-1.33A.61.61,0,0,1,26.87,104Z"/><path class="cls-18" d="M29.73,104h.71a.61.61,0,0,1,.61.61V106a0,0,0,0,1,0,0H29.13a0,0,0,0,1,0,0v-1.33A.61.61,0,0,1,29.73,104Z"/><path class="cls-16" d="M25.28,86.87H26a.61.61,0,0,1,.61.61v2.11a0,0,0,0,1,0,0H24.68a0,0,0,0,1,0,0V87.48A.61.61,0,0,1,25.28,86.87Z"/><rect class="cls-15" x="26.83" y="86.4" width="0.59" height="3.68" rx="0.2" ry="0.2"/><rect class="cls-15" x="30.09" y="86.21" width="0.59" height="3.68" rx="0.2" ry="0.2"/><rect class="cls-17" x="35.89" y="96.56" width="1.52" height="9.15" rx="0.33" ry="0.33"/><rect class="cls-17" x="38.36" y="96.56" width="1.52" height="9.15" rx="0.33" ry="0.33"/><path class="cls-19" d="M36.39,88.61h3a.77.77,0,0,1,.77.77V102a0,0,0,0,1,0,0H35.6a0,0,0,0,1,0,0V89.4a.79.79,0,0,1,.79-.79Z"/><rect class="cls-17" x="34.43" y="89.44" width="1.52" height="9.15" rx="0.33" ry="0.33"/><rect class="cls-17" x="39.97" y="89.44" width="1.52" height="9.15" rx="0.33" ry="0.33"/><ellipse class="cls-17" cx="37.89" cy="85.96" rx="2" ry="3.24"/><path class="cls-18" d="M36.35,104.5h.49a.61.61,0,0,1,.61.61v1.12a0,0,0,0,1,0,0h-1.7a0,0,0,0,1,0,0v-1.12A.61.61,0,0,1,36.35,104.5Z"/><path class="cls-18" d="M38.88,104.5h.49a.61.61,0,0,1,.61.61v1.12a0,0,0,0,1,0,0h-1.7a0,0,0,0,1,0,0v-1.12A.61.61,0,0,1,38.88,104.5Z"/><path class="cls-20" d="M36.92,82.06a3,3,0,0,0-1.58,1.83,3.91,3.91,0,0,0-.16,1.36,3.42,3.42,0,0,0,0,.45l.14-.18c-.22,0-.44,0-.67,0l.71.92a2.21,2.21,0,0,0,.43-1.59c-.08-.78-1.28-.82-1.25,0,.05,1.1-.86,2.59.59,3.1a.63.63,0,0,0,.79-.6l.07-.54c.09-.8-1.16-.79-1.25,0l-.07.54.79-.61c.25.09.34-1.77.33-1.89H34.58a1.24,1.24,0,0,1-.26.95c-.35.48.22,1,.7.92.66-.14,1.4,0,1.46-.91.09-1.13-.18-2.12,1.08-2.72.72-.34.09-1.42-.64-1.08Z"/><path class="cls-20" d="M37.4,83.06a4.33,4.33,0,0,0,.9.42,1.62,1.62,0,0,1,.94,1.11c.11.3.74,2,1,2L41,87v-.3c.11-.79-1.09-1.13-1.21-.33a3.16,3.16,0,0,0,0,1,.63.63,0,0,0,.77.43,1,1,0,0,0,.8-1.07,4.6,4.6,0,0,0-.59-1.88,11.47,11.47,0,0,0-1-1.75C39.3,82.46,38.6,82.42,38,82s-1.26.59-.63,1.08Z"/><path class="cls-20" d="M39.15,84.82c.28.13.14.15.09.41a1.09,1.09,0,0,0,.11.71c.08.18.34.41.35.6s-.31.41-.53.52a.63.63,0,0,0,0,1.08,2,2,0,0,0,1.06.21l-.17-1.23a1.47,1.47,0,0,1-.66,0c-.79-.14-1.13,1.06-.34,1.21a3,3,0,0,0,1.33,0c.67-.15.55-1.29-.16-1.22a.7.7,0,0,1-.43,0v1.08a1.66,1.66,0,0,0,1-2.3c-.07-.13-.27-.41-.27-.42,0-.19.16-.38.15-.59a1.36,1.36,0,0,0-.86-1.09c-.72-.34-1.36.74-.63,1.08Z"/><path class="cls-20" d="M35.43,87.58l.09.11-.07-.49,0,.12.29-.37c.1-.06-.21,0-.26,0a4.54,4.54,0,0,1-.51-.09l.28,1c-.19,0-.2.07,0,.13l.21.13.48.31c.68.43,1.31-.65.63-1.08S35,86.29,34.33,87A.64.64,0,0,0,34.61,88a2.58,2.58,0,0,0,1.69,0,.82.82,0,0,0,0-1.36c-.59-.55-1.48.34-.88.88Z"/><rect class="cls-17" x="31.34" y="101.06" width="1.13" height="6.48" rx="0.33" ry="0.33"/><rect class="cls-17" x="33.17" y="101.06" width="1.13" height="6.48" rx="0.33" ry="0.33"/><path class="cls-12" d="M31.91,95.42h1.83a.77.77,0,0,1,.77.77v8.69a0,0,0,0,1,0,0H31.12a0,0,0,0,1,0,0V96.21A.79.79,0,0,1,31.91,95.42Z"/><rect class="cls-17" x="30.26" y="96.01" width="1.13" height="6.48" rx="0.33" ry="0.33"/><rect class="cls-17" x="34.37" y="96.01" width="1.13" height="6.48" rx="0.33" ry="0.33"/><ellipse class="cls-17" cx="32.82" cy="93.54" rx="1.48" ry="2.3"/><path class="cls-19" d="M31.84,106.67h0a.61.61,0,0,1,.61.61v.62a0,0,0,0,1,0,0H31.23a0,0,0,0,1,0,0v-.62A.61.61,0,0,1,31.84,106.67Z"/><path class="cls-19" d="M33.71,106.67h0a.61.61,0,0,1,.61.61v.62a0,0,0,0,1,0,0H33.11a0,0,0,0,1,0,0v-.62A.61.61,0,0,1,33.71,106.67Z"/><path class="cls-20" d="M31.25,90.85a3.57,3.57,0,0,0-.88,3,.63.63,0,0,0,1.21-.33c-.22-.79.32-1.47.75-2.08s-.62-1.28-1.08-.63Z"/><path class="cls-20" d="M32.26,91.67c.37.08.9.15,1.12.5a4.76,4.76,0,0,1,.35,1.63c.15.79,1.35.45,1.21-.33a4.48,4.48,0,0,0-.65-2.16,2.87,2.87,0,0,0-1.7-.84c-.78-.17-1.12,1-.33,1.2Z"/><rect class="cls-15" x="21.45" y="100.2" width="1.08" height="6.42" rx="0.33" ry="0.33"/><rect class="cls-15" x="23.21" y="100.2" width="1.08" height="6.42" rx="0.33" ry="0.33"/><path class="cls-21" d="M22,94.62h1.7a.77.77,0,0,1,.77.77V100a1.63,1.63,0,0,1-1.63,1.63h0A1.63,1.63,0,0,1,21.24,100V95.41A.79.79,0,0,1,22,94.62Z"/><rect class="cls-17" x="20.41" y="95.2" width="1.08" height="6.42" rx="0.33" ry="0.33"/><rect class="cls-17" x="24.36" y="95.2" width="1.08" height="6.42" rx="0.33" ry="0.33"/><ellipse class="cls-17" cx="22.87" cy="92.76" rx="1.42" ry="2.28"/><path class="cls-22" d="M20.95,95h0a.61.61,0,0,1,.61.61v1.09a0,0,0,0,1,0,0H20.34a0,0,0,0,1,0,0V95.64a.61.61,0,0,1,.61-.61Z"/><path class="cls-22" d="M24.9,95h0a.61.61,0,0,1,.61.61v1.09a0,0,0,0,1,0,0H24.29a0,0,0,0,1,0,0V95.64A.61.61,0,0,1,24.9,95Z"/><path class="cls-22" d="M21.95,105.77h0a.61.61,0,0,1,.61.61V107a0,0,0,0,1,0,0H21.34a0,0,0,0,1,0,0v-.61A.61.61,0,0,1,21.95,105.77Z"/><path class="cls-22" d="M23.75,105.77h0a.61.61,0,0,1,.61.61V107a0,0,0,0,1,0,0H23.14a0,0,0,0,1,0,0v-.61a.61.61,0,0,1,.61-.61Z"/><rect class="cls-23" x="95.88" y="99.6" width="1.64" height="10.75" rx="0.33" ry="0.33"/><rect class="cls-23" x="98.54" y="99.6" width="1.64" height="10.75" rx="0.33" ry="0.33"/><path class="cls-24" d="M96.36,90.25h3.37a.77.77,0,0,1,.77.77v9.34A1.63,1.63,0,0,1,98.86,102H97.2a1.63,1.63,0,0,1-1.63-1.63V91a.79.79,0,0,1,.79-.79Z"/><path class="cls-23" d="M96.41,94.3h3.37a.77.77,0,0,1,.77.77v5.2a1.63,1.63,0,0,1-1.63,1.63H97.24a1.63,1.63,0,0,1-1.63-1.63V95.1A.79.79,0,0,1,96.41,94.3Z"/><rect class="cls-17" x="94.31" y="91.23" width="1.64" height="10.75" rx="0.33" ry="0.33"/><rect class="cls-17" x="100.28" y="91.23" width="1.64" height="10.75" rx="0.33" ry="0.33"/><ellipse class="cls-17" cx="98.08" cy="88.24" rx="1.54" ry="2.71"/><path class="cls-24" d="M100.79,90.95h.62a.61.61,0,0,1,.61.61v2.24a0,0,0,0,1,0,0h-1.83a0,0,0,0,1,0,0V91.55A.61.61,0,0,1,100.79,90.95Z"/><path class="cls-18" d="M96.33,108.93h.62a.61.61,0,0,1,.61.61V111a0,0,0,0,1,0,0H95.72a0,0,0,0,1,0,0v-1.42A.61.61,0,0,1,96.33,108.93Z"/><path class="cls-18" d="M99.05,108.93h.62a.61.61,0,0,1,.61.61V111a0,0,0,0,1,0,0H98.45a0,0,0,0,1,0,0v-1.42A.61.61,0,0,1,99.05,108.93Z"/><path class="cls-24" d="M94.82,90.95h.62a.61.61,0,0,1,.61.61v2.24a0,0,0,0,1,0,0H94.21a0,0,0,0,1,0,0V91.55A.61.61,0,0,1,94.82,90.95Z"/><rect class="cls-23" x="96.26" y="90.45" width="0.56" height="3.86" rx="0.2" ry="0.2"/><rect class="cls-23" x="99.36" y="90.25" width="0.56" height="3.86" rx="0.2" ry="0.2"/><rect class="cls-17" x="68.53" y="82.03" width="1.1" height="6.65" rx="0.33" ry="0.33"/><rect class="cls-17" x="70.31" y="82.03" width="1.1" height="6.65" rx="0.33" ry="0.33"/><path class="cls-22" d="M69.11,76.25h1.75a.77.77,0,0,1,.77.77V86a0,0,0,0,1,0,0h-3.3a0,0,0,0,1,0,0V77A.79.79,0,0,1,69.11,76.25Z"/><rect class="cls-17" x="67.47" y="76.85" width="1.1" height="6.65" rx="0.33" ry="0.33"/><rect class="cls-17" x="71.48" y="76.85" width="1.1" height="6.65" rx="0.33" ry="0.33"/><ellipse class="cls-17" cx="69.97" cy="74.32" rx="1.44" ry="2.36"/><path class="cls-18" d="M69,87.8h0a.61.61,0,0,1,.61.61v.65a0,0,0,0,1,0,0H68.42a0,0,0,0,1,0,0v-.65A.61.61,0,0,1,69,87.8Z"/><path class="cls-18" d="M70.86,87.8h0a.61.61,0,0,1,.61.61v.65a0,0,0,0,1,0,0H70.25a0,0,0,0,1,0,0v-.65a.61.61,0,0,1,.61-.61Z"/><path class="cls-20" d="M69.19,71.35a2.26,2.26,0,0,0-1.13,1.17,3.11,3.11,0,0,0-.2.74,7.41,7.41,0,0,1,0,.94l.29-.38c-.06,0-.44,0-.55.06l.71.91a1.7,1.7,0,0,0,.34-1.23c-.08-.79-1.29-.82-1.25,0s-.64,2,.55,2.41a.63.63,0,0,0,.79-.6l0-.39c.09-.8-1.16-.79-1.25,0l0,.39.79-.6c.44.15.38-1,.37-1.21H67.41a.78.78,0,0,1-.17.6c-.35.48.22,1,.7.92.33-.07.55,0,.85-.18a.8.8,0,0,0,.34-.65c0-.76-.14-1.43.69-1.83s.09-1.42-.63-1.07Z"/><path class="cls-20" d="M69.53,72.36c.52.41,1,.32,1.25,1a6.65,6.65,0,0,0,.34.65c.06.14,0,.3.12.43.16.28-.06.25.39.12l.77.44v-.13c.11-.79-1.1-1.13-1.21-.33a2.62,2.62,0,0,0,0,.79.64.64,0,0,0,.77.44.92.92,0,0,0,.7-1,2.5,2.5,0,0,0-.2-.71,2.16,2.16,0,0,0-.25-.74,8.35,8.35,0,0,0-.72-1.31c-.39-.42-.9-.47-1.33-.8-.63-.49-1.26.6-.63,1.08Z"/><path class="cls-20" d="M70.8,73.65c.26.12,0-.16.08-.16a1.28,1.28,0,0,0-.1.26,1,1,0,0,0,.1.65c.18.36.37.37-.07.58a.62.62,0,0,0,0,1.07,1.49,1.49,0,0,0,.85.18L71.5,75a.86.86,0,0,1-.39,0c-.79-.14-1.12,1.06-.33,1.21a2.48,2.48,0,0,0,1,0c.67-.16.54-1.3-.17-1.23a.38.38,0,0,1-.21,0v1.07a1.36,1.36,0,0,0,.75-1.89,1.14,1.14,0,0,0-.15-.23c-.17-.19,0,0,0,.09a.94.94,0,0,0,.13-.52,1.13,1.13,0,0,0-.71-.93c-.72-.34-1.36.73-.63,1.08Z"/><path class="cls-20" d="M68.07,75.63l0,0L68,75.18l0,.09.29-.37c.16,0,.14-.05-.07,0l-.35-.07.27,1c-.29.07-.31.14-.07.23l.33.21c.68.44,1.31-.65.64-1.08s-1.21-.82-1.78-.24a.63.63,0,0,0,.27,1c.45.09,1.06.25,1.45-.07a.76.76,0,0,0,0-1.19c-.59-.54-1.47.34-.88.89Z"/><line class="cls-25" x1="103.26" y1="93.73" x2="100.57" y2="108.01"/><rect class="cls-25" x="103" y="92.68" width="2.81" height="1.11" rx="0.55" ry="0.55"/></svg>