<svg xmlns="http://www.w3.org/2000/svg" viewBox="0 0 106.13 113.96"><defs><style>.cls-1,.cls-2{fill:#96c347;}.cls-1,.cls-3{stroke:#fff;stroke-miterlimit:10;}.cls-3{fill:#018e8a;stroke-linecap:round;}</style></defs><title>Element 68</title><g id="Ebene_2" data-name="Ebene 2"><g id="Ebene_1-2" data-name="Ebene 1"><path class="cls-1" d="M91.82,37.71c-4.27,3.57-19.91,6.22-38.56,6.22-18.89,0-34.69-2.72-38.72-6.36C5.83,43,.5,51.45.5,64.35.5,91.48,24,113.46,53.07,113.46s52.56-22,52.56-49.11C105.63,51.56,100.4,43.09,91.82,37.71Z"/><path class="cls-1" d="M65.56,43.47c-3.63,0-6.83-6.31-11.24-6.31s-8,7.52-10.88,6.46"/><path class="cls-2" d="M66.12,44.36c-3.87,0-7.28-6.79-12-6.79s-6.7,7.64-11.62,7.07"/><ellipse class="cls-3" cx="27.83" cy="34.56" rx="4.06" ry="15.88" transform="translate(-11.44 55.21) rotate(-78.89)"/><ellipse class="cls-3" cx="37.15" cy="21.51" rx="4.06" ry="15.88" transform="translate(-5 29.66) rotate(-41.01)"/><ellipse class="cls-3" cx="54.32" cy="16.38" rx="4.06" ry="15.88"/><ellipse class="cls-3" cx="80.81" cy="34.06" rx="15.88" ry="4.06" transform="translate(-5.63 19.29) rotate(-13.16)"/><ellipse class="cls-3" cx="71.74" cy="22.36" rx="15.88" ry="4.06" transform="translate(5.2 57.28) rotate(-45)"/></g></g></svg>