<?xml version="1.0" encoding="utf-8"?>
<!-- Generator: Adobe Illustrator 22.1.0, SVG Export Plug-In . SVG Version: 6.00 Build 0)  -->
<svg version="1.1" id="Ebene_1" xmlns="http://www.w3.org/2000/svg" xmlns:xlink="http://www.w3.org/1999/xlink" x="0px" y="0px"
	 viewBox="0 0 286.3 289.6" style="enable-background:new 0 0 286.3 289.6;" xml:space="preserve">
<style type="text/css">
	.st0{display:none;fill:#018D89;}
	.st1{fill:#FFFFFF;}
</style>
<rect x="-480.4" y="-276" class="st0" width="1542" height="886"/>
<path class="st1" d="M275.5,201.5c6,0,10.8-4.8,10.8-10.8V91.1L49.6,50.7c0.1-0.4,0.1-0.7,0.1-1.1V22c0-3-1.8-5.7-4.5-6.8L10.3,0.6
	C6.5-1,2.2,0.8,0.6,4.5l0,0c-1.6,3.8,0.2,8.1,4,9.7L30.3,25c2.7,1.2,4.5,3.8,4.5,6.8v16.4l0,0l0.7,145.3v49c0,6,4.8,10.8,10.8,10.8
	l9.5,0c-1.8,3.4-2.8,7.3-2.8,11.5c0,13.7,11.2,24.9,24.9,24.9s24.9-11.2,24.9-24.9c0-4.2-1.1-8.1-2.9-11.6l137.5-0.4
	c-1.4,3.1-2.1,6.5-2.1,10c0,13.7,11.2,24.9,24.9,24.9s24.9-11.2,24.9-24.9s-11.2-24.9-24.9-24.9c0,0,0,0,0,0v0l-209.8,0.7v-37.6
	L275.5,201.5z M77.9,274.8c-5.6,0-10.1-4.5-10.1-10.1s4.5-10.1,10.1-10.1S88,259.2,88,264.7S83.5,274.8,77.9,274.8z M270.2,262.7
	c0,5.6-4.5,10.1-10.1,10.1s-10.1-4.5-10.1-10.1c0-5.6,4.5-10.1,10.1-10.1h0C265.7,252.6,270.2,257.2,270.2,262.7z M271.5,103.6v83.2
	l-221.2-0.6L49.7,65.8L271.5,103.6z"/>
</svg>
