<svg id="Ebene_1" data-name="Ebene 1" xmlns="http://www.w3.org/2000/svg" viewBox="0 0 141.73 141.73"><defs><style>.cls-1{fill:#42bac1;}.cls-1,.cls-2,.cls-3{stroke:#fff;stroke-miterlimit:10;stroke-width:4px;}.cls-2{fill:#fff;}.cls-3,.cls-4{fill:#018e8a;}</style></defs><title>Zeichenfläche 2 Kopie 10</title><path class="cls-1" d="M78.46,90.38c-6.69-8.28-5-23.76,3.72-34.58.13-.16.26-.32.4-.47L64.07,43.61C29.2,37.67,8.79,63.24,8.79,102.9H83.62c7.26,0,13.62-4.69,17.24-11.75C93,97,83.83,97,78.46,90.38Z"/><polygon class="cls-2" points="120.53 39.9 118.23 36.07 109.67 46.15 111.97 49.99 120.53 39.9"/><path class="cls-1" d="M86.18,53.16C76,63.62,71.77,79.37,76.63,88.34s17,7.76,27.16-2.7c7.35-7.58,11.59-17.93,11.53-26.47a22.84,22.84,0,0,0-2.9-9.42,15.88,15.88,0,0,0-2.53-3.27C104,42.27,94.41,44.66,86.18,53.16Z"/><ellipse class="cls-3" cx="123.21" cy="38.67" rx="3.89" ry="5.44" transform="translate(47 142.92) rotate(-71.26)"/><ellipse class="cls-3" cx="117.54" cy="32.5" rx="3.89" ry="5.44" transform="translate(-2.65 11.87) rotate(-5.72)"/><ellipse class="cls-4" cx="120.02" cy="36.47" rx="2.17" ry="3.6" transform="translate(2.68 80.82) rotate(-37.61)"/></svg>