<?xml version="1.0" encoding="utf-8"?>
<!-- Generator: Adobe Illustrator 22.1.0, SVG Export Plug-In . SVG Version: 6.00 Build 0)  -->
<svg version="1.1" id="Ebene_1" xmlns="http://www.w3.org/2000/svg" xmlns:xlink="http://www.w3.org/1999/xlink" x="0px" y="0px"
	 viewBox="0 0 286.3 289.6" style="enable-background:new 0 0 286.3 289.6;" xml:space="preserve">
<style type="text/css">
	.st0{display:none;fill:#018D89;}
	.st1{fill:#FFFFFF;}
</style>
<rect x="-480.4" y="-276" class="st0" width="1542" height="886"/>
<path class="st1" d="M92.8,71.5c-1.8-1.7-4.1-2.6-6.4-2.6c-1.2,0-2.4,0.2-3.5,0.7c-0.8,0.3-1.6,0.8-2.4,1.4l14.3,2.4L92.8,71.5z
	 M92.8,71.5c-1.8-1.7-4.1-2.6-6.4-2.6c-1.2,0-2.4,0.2-3.5,0.7c-0.8,0.3-1.6,0.8-2.4,1.4l14.3,2.4L92.8,71.5z M92.8,71.5
	c-1.8-1.7-4.1-2.6-6.4-2.6c-1.2,0-2.4,0.2-3.5,0.7c-0.8,0.3-1.6,0.8-2.4,1.4l14.3,2.4L92.8,71.5z M220,79.8L207,92.6l22.3,3.8
	l12.1-11.8c0.3-0.3,0.6-0.7,0.9-1L220,79.8z M92.8,71.5c-1.8-1.7-4.1-2.6-6.4-2.6c-1.2,0-2.4,0.2-3.5,0.7c-0.8,0.3-1.6,0.8-2.4,1.4
	l14.3,2.4L92.8,71.5z M92.8,71.5c-1.8-1.7-4.1-2.6-6.4-2.6c-1.2,0-2.4,0.2-3.5,0.7c-0.8,0.3-1.6,0.8-2.4,1.4l14.3,2.4L92.8,71.5z
	 M275.6,201.5c6,0,10.8-4.8,10.8-10.8V91.1l-34.7-5.9c-0.9,2.2-2.3,4.1-4,5.8l-7.4,7.2l31.3,5.3v83.2l-221.3-0.6L49.7,65.7l20.7,3.5
	c0.8-1.4,1.8-2.8,2.9-4c3.4-3.5,8-5.5,13-5.5c4.8,0,9.3,1.8,12.7,5.2l11.3,11l23,3.9V65L49.6,50.7c0.1-0.4,0.1-0.8,0.1-1.1V22
	c0-3-1.8-5.7-4.5-6.8L10.3,0.6C6.5-1,2.2,0.8,0.6,4.5C0.2,5.5,0,6.4,0,7.4c0,2.9,1.7,5.6,4.5,6.8L30.3,25c2.8,1.2,4.5,3.8,4.5,6.8
	v16.4l0,0l0.7,145.3v49c0,6,4.8,10.8,10.8,10.8l9.5,0c-1.8,3.4-2.8,7.3-2.8,11.5c0,13.7,11.2,24.9,24.9,24.9
	c13.7,0,24.9-11.2,24.9-24.9c0-4.2-1.1-8.1-2.9-11.6l137.5-0.4c-1.4,3.1-2.1,6.5-2.1,10c0,13.7,11.2,24.9,24.9,24.9
	c13.7,0,24.9-11.2,24.9-24.9c0-13.7-11.2-24.9-24.9-24.9c0,0,0,0,0,0l-209.8,0.7v-37.6L275.6,201.5z M260.1,252.6
	c2.8,0,5.3,1.1,7.1,3c1.8,1.8,3,4.4,3,7.1c0,5.6-4.5,10.1-10.1,10.1s-10.1-4.5-10.1-10.1S254.6,252.6,260.1,252.6z M77.9,254.7
	c5.6,0,10.1,4.5,10.1,10.1s-4.5,10.1-10.1,10.1s-10.1-4.5-10.1-10.1S72.4,254.7,77.9,254.7z M241.3,84.6c0.3-0.3,0.6-0.7,0.9-1
	L220,79.8L207,92.6l22.3,3.8L241.3,84.6z M187.9,74.3v15l8.1,1.4l13.1-12.8L187.9,74.3z M142.3,66.5v15l36.6,6.2v-15L142.3,66.5z
	 M92.8,71.5c-1.8-1.7-4.1-2.6-6.4-2.6c-1.2,0-2.4,0.2-3.5,0.7c-0.8,0.3-1.6,0.8-2.4,1.4l14.3,2.4L92.8,71.5z M92.8,71.5
	c-1.8-1.7-4.1-2.6-6.4-2.6c-1.2,0-2.4,0.2-3.5,0.7c-0.8,0.3-1.6,0.8-2.4,1.4l14.3,2.4L92.8,71.5z M220,79.8L207,92.6l22.3,3.8
	l12.1-11.8c0.3-0.3,0.6-0.7,0.9-1L220,79.8z M92.8,71.5c-1.8-1.7-4.1-2.6-6.4-2.6c-1.2,0-2.4,0.2-3.5,0.7c-0.8,0.3-1.6,0.8-2.4,1.4
	l14.3,2.4L92.8,71.5z M92.8,71.5c-1.8-1.7-4.1-2.6-6.4-2.6c-1.2,0-2.4,0.2-3.5,0.7c-0.8,0.3-1.6,0.8-2.4,1.4l14.3,2.4L92.8,71.5z
	 M220,79.8L207,92.6l22.3,3.8l12.1-11.8c0.3-0.3,0.6-0.7,0.9-1L220,79.8z M92.8,71.5c-1.8-1.7-4.1-2.6-6.4-2.6
	c-1.2,0-2.4,0.2-3.5,0.7c-0.8,0.3-1.6,0.8-2.4,1.4l14.3,2.4L92.8,71.5z"/>
<g>
	<path class="st1" d="M244.1,78c0,2-0.6,3.9-1.9,5.5c-0.3,0.3-0.6,0.7-0.9,1l-12.1,11.8L167,157.3c-1.8,1.7-4.1,2.6-6.4,2.6
		s-4.6-0.9-6.4-2.6L80,84.6c-3.6-3.5-3.7-9.3-0.1-12.9c0.2-0.2,0.4-0.4,0.7-0.6c0.7-0.6,1.5-1.1,2.4-1.4c1.1-0.5,2.3-0.7,3.5-0.7
		c2.3,0,4.6,0.9,6.4,2.6l2,2l32,31.4c1.9,1.8,4.1,2.6,6.3,2.6c4.7,0,9.2-3.7,9.2-9.2V12.1c0-5,4.1-9.1,9.1-9.1h18.3
		c5,0,9.1,4.1,9.1,9.1v86.1c0,5.5,4.5,9.2,9.2,9.2c2.2,0,4.5-0.8,6.3-2.6L207,92.6L220,79.8l8.5-8.3c1.8-1.7,4.1-2.6,6.4-2.6
		c2.4,0,4.8,0.9,6.5,2.8C243.2,73.4,244.1,75.7,244.1,78z"/>
</g>
</svg>
