<svg id="Ebene_1" data-name="Ebene 1" xmlns="http://www.w3.org/2000/svg" viewBox="0 0 141.73 141.73"><defs><style>.cls-1,.cls-2{fill:#fff;}.cls-2{font-size:7px;font-family:ArialMT, Arial;}</style></defs><title>Zeichenfläche 37 Kopie</title><rect class="cls-1" x="9.44" y="22.28" width="3" height="94.8" rx="1.5" ry="1.5"/><rect class="cls-1" x="13.94" y="22.2" width="3" height="94.8" rx="1.5" ry="1.5"/><rect class="cls-1" x="46.19" y="22.28" width="3" height="90.68" rx="1.5" ry="1.5"/><rect class="cls-1" x="40.86" y="22.62" width="3" height="90.68" rx="1.5" ry="1.5"/><rect class="cls-1" x="68.94" y="22.28" width="3" height="90.68" rx="1.5" ry="1.5"/><rect class="cls-1" x="115.61" y="21.95" width="3" height="90.68" rx="1.5" ry="1.5"/><rect class="cls-1" x="102.32" y="22.62" width="3" height="90.68" rx="1.5" ry="1.5"/><rect class="cls-1" x="74.19" y="22.28" width="3" height="90.68" rx="1.5" ry="1.5"/><rect class="cls-1" x="80.44" y="22.12" width="3" height="90.68" rx="1.5" ry="1.5"/><rect class="cls-1" x="120.52" y="22.28" width="3" height="90.68" rx="1.5" ry="1.5"/><rect class="cls-1" x="34.94" y="22.28" width="3" height="90.68" rx="1.5" ry="1.5"/><rect class="cls-1" x="19.61" y="22.28" width="5" height="90.68" rx="1.5" ry="1.5"/><rect class="cls-1" x="27.61" y="22.28" width="5" height="90.68" rx="1.5" ry="1.5"/><rect class="cls-1" x="52.28" y="22.28" width="5" height="90.68" rx="1.5" ry="1.5"/><rect class="cls-1" x="60.28" y="22.28" width="5" height="96.68" rx="1.5" ry="1.5"/><rect class="cls-1" x="86.28" y="22.28" width="5" height="90.68" rx="1.5" ry="1.5"/><rect class="cls-1" x="93.28" y="22.28" width="5" height="90.68" rx="1.5" ry="1.5"/><rect class="cls-1" x="107.94" y="21.95" width="5" height="90.68" rx="1.5" ry="1.5"/><rect class="cls-1" x="125.94" y="22.28" width="5" height="95.43" rx="1.5" ry="1.5"/><text class="cls-2" transform="translate(3.69 120.47)">4</text><text class="cls-2" transform="translate(18.28 120.7)">0</text><text class="cls-2" transform="translate(27.53 120.7)">0</text><text class="cls-2" transform="translate(36.53 120.86)">1</text><text class="cls-2" transform="translate(44.94 120.95)">2</text><text class="cls-2" transform="translate(54.11 120.78)">3</text><text class="cls-2" transform="translate(67.11 120.78)">4</text><text class="cls-2" transform="translate(76.44 120.78)">5</text><text class="cls-2" transform="translate(85.86 120.86)">6</text><text class="cls-2" transform="translate(95.11 120.78)">7</text><text class="cls-2" transform="translate(103.44 120.78)">8</text><text class="cls-2" transform="translate(112.78 120.78)">9</text><text class="cls-2" transform="translate(120.03 120.78)">0</text></svg>