<svg id="Ebene_1" data-name="Ebene 1" xmlns="http://www.w3.org/2000/svg" viewBox="0 0 141.73 141.73"><defs><style>.cls-1{fill:#42bac1;}.cls-2{fill:#018e8a;}</style></defs><title>Zeichenfläche 2 Kopie 10</title><path class="cls-1" d="M79.56,90.38c-6.8-8.28-5.11-23.76,3.77-34.58.14-.16.27-.32.41-.47L64.94,43.61C29.52,37.67,8.79,63.24,8.79,102.9h76c7.37,0,13.84-4.69,17.51-11.75C94.28,97,85,97,79.56,90.38Z"/><polygon class="cls-2" points="127.53 43.9 125.23 40.07 116.67 50.15 118.97 53.99 127.53 43.9"/><path class="cls-1" d="M93.49,51.82c-10.68,8.71-16.34,23-12.64,31.91s15.36,9.07,26,.36c7.74-6.32,12.82-15.56,13.64-23.56a21.46,21.46,0,0,0-1.79-9.13,15.44,15.44,0,0,0-2.07-3.32C111.49,43.51,102.17,44.74,93.49,51.82Z"/><ellipse class="cls-2" cx="130.21" cy="43.67" rx="5.44" ry="3.89" transform="translate(68.4 166.31) rotate(-81.8)"/><ellipse class="cls-2" cx="125.54" cy="37.5" rx="5.44" ry="3.89" transform="translate(70.51 156.4) rotate(-81.8)"/><ellipse class="cls-2" cx="128.02" cy="40.47" rx="2.17" ry="3.6" transform="translate(-5.76 51.84) rotate(-22.4)"/></svg>