<svg id="Ebene_1" data-name="Ebene 1" xmlns="http://www.w3.org/2000/svg" viewBox="0 0 141.73 141.73"><defs><style>.cls-1{fill:#42bac1;}.cls-2{fill:#96c347;}</style></defs><title>Zeichenfläche 2 Kopie 7</title><path class="cls-1" d="M70.8,11.17c-10.57,0-19.21,8.21-19.21,18.25V77.69c3.44,2.42,7.11,8.13,9.64,15.36V90.11c0-18.22,4.37-33,9.76-33s9.07,14.78,9.76,33c0,.78.06,1.53.08,2.28,2.53-6.53,6-11.61,9.18-13.78V29.42C90,19.38,81.37,11.17,70.8,11.17Z"/><path class="cls-2" d="M46.73,80.05c-9-9.15-19-13.07-24.22-8.83-6.41,5.2,4.19-3.75,14.43,10.17,3,4.13,5.4,10,7.4,16.18C43,89.12,43.87,82.19,46.73,80.05Z"/><path class="cls-2" d="M48.71,112.44c2.45,8.41,4.6,14.28,7.53,11.91a6.87,6.87,0,0,0,.63-.58C54.11,122.06,51.15,118,48.71,112.44Z"/><path class="cls-2" d="M52.66,87a61.48,61.48,0,0,0-5.93-7c-2.86,2.14-3.74,9.07-2.39,17.52,1.65,5.1,3.06,10.35,4.37,14.87,2.44,5.51,5.4,9.62,8.16,11.33C62.66,117.92,62.56,100.46,52.66,87Z"/><path class="cls-2" d="M85.38,124.33v0c2.68,2.17,4.71-2.55,6.91-9.81C90.18,119.05,87.73,122.51,85.38,124.33Z"/><path class="cls-2" d="M119.12,71.22c-5.37-4.35-15.72-.1-25,9.58,3.17,1.56,4.3,8.31,3.12,16.78,2-6.14,4.37-12.06,7.41-16.19C114.93,67.47,125.53,76.42,119.12,71.22Z"/><path class="cls-2" d="M94.17,80.8A63.68,63.68,0,0,0,89,87c-10.23,13.91-10,32.11-3.59,37.32,2.35-1.82,4.8-5.28,6.92-9.79,1.49-4.94,3.07-11.05,5-17C98.47,89.11,97.34,82.36,94.17,80.8Z"/><ellipse class="cls-2" cx="70.95" cy="96.62" rx="6.14" ry="32.15"/></svg>