<svg id="Ebene_1" data-name="Ebene 1" xmlns="http://www.w3.org/2000/svg" viewBox="0 0 141.73 141.73"><defs><style>.cls-1{fill:#42bac1;}.cls-2{fill:#95c11f;}.cls-3{fill:#fff;}</style></defs><title>Zeichenfläche 2 Kopie</title><polygon class="cls-1" points="41.75 128.07 102.99 127.22 101.85 15.02 40.61 15.87 41.75 128.07"/><path class="cls-2" d="M62.27,10.5l0-3.07a.88.88,0,0,0-1-.83l-13.81.19a.9.9,0,0,0-.93.86l0,3.06a.66.66,0,0,0,0,.15l15.62-.22A.7.7,0,0,0,62.27,10.5Z"/><path class="cls-2" d="M47.53,11.55l13.81-.19a.92.92,0,0,0,.9-.72l-15.62.22A.9.9,0,0,0,47.53,11.55Z"/><path class="cls-3" d="M82.27,72.69C78.58,82.94,83.7,87.2,74.91,87.45c-9,.26-4.17-3.13-12.21-14.6-6.32-9,1-13,7.6-14.41S86.22,61.7,82.27,72.69Z"/><path class="cls-3" d="M64,63.61c-.94,2.28-5,.74-6.93-1.6s.3-6.41,2.18-7.86-1.93,3.32,0,5.66S64.81,61.68,64,63.61Z"/><path class="cls-3" d="M78.47,61.78c.91,2.28,5,.73,6.94-1.6s-.22-6.41-2.09-7.86,1.89,3.32-.07,5.65S77.69,59.84,78.47,61.78Z"/><path class="cls-3" d="M55.22,66.72c.45,1.2,4.51,2.92,6,1.83.77-.55.54-1.37-.17-2.36s-4.46-1.13-5.37-.82S54.79,65.56,55.22,66.72Z"/><path class="cls-3" d="M87.51,64.37c-.79,1.18-5.25,2.61-6.41,1.41-.6-.61-.13-1.41.86-2.36s4.68-.82,5.46-.43S88.27,63.24,87.51,64.37Z"/></svg>