<svg id="Ebene_1" data-name="Ebene 1" xmlns="http://www.w3.org/2000/svg" viewBox="0 0 141.73 141.73"><defs><style>.cls-1{fill:#018e8a;}.cls-2{fill:#96c347;}</style></defs><title>Zeichenfläche 2 Kopie 13</title><polygon class="cls-1" points="79.95 77.38 79.95 91.93 88.84 88.14 82.04 78.11 79.95 77.38"/><path class="cls-1" d="M103.4,11.16,80,23.23V46.32l17.23,4.33A1.77,1.77,0,0,1,98,53.72L80.17,69.38l3.31,1.16,1.68-1,1.39,2.06.14,0,0,.1,9.12,13.44,7.63-3.25Z"/><polygon class="cls-1" points="85.16 69.55 83.48 70.54 86.55 71.61 85.16 69.55"/><path class="cls-2" d="M96.88,104.57,73.74,99.46l-4.82,12.76c-.65,1.71,3.15,11.87,5,11.21l26.39-13Z"/><path class="cls-2" d="M86.86,87.36C85.85,86,75.56,94.6,75,96.14l-.3.78L95,101.41Z"/><path class="cls-2" d="M125.94,97.91l-25.62,12.57,12.86,22.06c.67.88,9.08-3.57,9.44-4.59l6.93-21C129.79,106.3,126.68,97.65,125.94,97.91Z"/><path class="cls-1" d="M76.13,68.59,70.21,46.67a1.64,1.64,0,0,1,0-.38l-1-.26L14.49,93.78l22.86,7.81V87.78a1,1,0,0,1,1.27-.9l13.67,3.37L75.61,69.88Z"/><path class="cls-1" d="M76.26,69.1l-.13-.51-.52,1.29.72-.63Z"/><path class="cls-1" d="M77.32,68.39,95.08,52.88,70.17,46.29a1.64,1.64,0,0,0,0,.38l5.92,21.92.21-.54Z"/><path class="cls-1" d="M76.33,69.25l1-.86-1-.34-.21.54.13.51Z"/><path class="cls-2" d="M40.25,103.57a.2.2,0,0,0,0,.08l9.23,14.81c1,1.58,11.89,5.79,12.59,4.09L69,96.14,55,93Z"/><path class="cls-2" d="M96.34,101.7c1.13-1.79,2.45-8.15,1.94-8.94L95.44,88.6,91,91.25,82,78.11,74.4,75.45,69,96.14l5.25,1.19.12-.48Z"/><path class="cls-2" d="M96.34,101.7l-22-4.85-.12.48,21.53,4.85C96,102.2,96.15,102,96.34,101.7Z"/><polygon class="cls-2" points="95.44 88.6 85.65 74.23 83.84 78.74 82.04 78.11 90.95 91.25 95.44 88.6"/><path class="cls-2" d="M81,72c-2.52-1-5.16-1.84-5.31-1.49L74.4,75.45,82,78.11,78.78,73.3Z"/><path class="cls-2" d="M85.65,74.23l-.08-.11A22.36,22.36,0,0,0,81,72l-2.21,1.3L82,78.11l1.8.63Z"/><path class="cls-2" d="M40.94,89.82c-1.74-.21-1.55,12-.69,13.75L55,93Z"/></svg>