<svg id="Ebene_1" data-name="Ebene 1" xmlns="http://www.w3.org/2000/svg" viewBox="0 0 141.73 141.73"><defs><style>.cls-1{fill:#96c347;}.cls-2{fill:#00a19a;}</style></defs><title>Zeichenfläche 2 Kopie 2</title><path class="cls-1" d="M102.52,59a10.15,10.15,0,0,1,.8-4,9.31,9.31,0,0,1-3.06.51,8.84,8.84,0,0,1-9-8.62,8.47,8.47,0,0,1,3.4-6.73A39.62,39.62,0,0,0,69,36.39c-7.6,1.53-15.49,4.08-21.65,8a8.63,8.63,0,0,1,5.15,7.81,8.81,8.81,0,0,1-8.47,8.62A9,9,0,0,1,45,65c0,4.15-2.64,7.5-5.89,7.5A5.11,5.11,0,0,1,38,72.33a50.81,50.81,0,0,0,5.71,10.51c25.87,37.61,10.16,48.39,39.38,48,28.7-.42,12.13-14.51,24.51-47.63a46.29,46.29,0,0,0,3.23-16.93,4.67,4.67,0,0,1-2.45.73C105.16,67,102.52,63.4,102.52,59Z"/><path class="cls-2" d="M38.79,44.85A17.9,17.9,0,0,1,33,40.32c-6.26-7.69,6.36-23,.15-18.38S19.52,39.68,25.77,47.36a27.5,27.5,0,0,0,9,7,8.31,8.31,0,0,1-.3-2.18A8.56,8.56,0,0,1,38.79,44.85Z"/><path class="cls-2" d="M48.34,52.9c1.95-4.58-3.85-5.08-9.55-8a8.56,8.56,0,0,0-4.32,7.37,8.31,8.31,0,0,0,.3,2.18C40.45,57.18,46.37,57.51,48.34,52.9Z"/><path class="cls-2" d="M111.74,17.07c-6.06-4.8,6.07,10.87-.42,18.38a18,18,0,0,1-5.89,4.34,8.5,8.5,0,0,1,3.87,7.07,8.24,8.24,0,0,1-.47,2.73,27.65,27.65,0,0,0,9.5-6.9C124.81,35.19,117.81,21.88,111.74,17.07Z"/><path class="cls-2" d="M109.3,46.86a8.5,8.5,0,0,0-3.87-7.07c-5.8,2.83-11.65,3.15-9.83,7.79s7.55,4.51,13.23,2A8.24,8.24,0,0,0,109.3,46.86Z"/><path class="cls-1" d="M35.4,59.16c-4.55-1.5-12-1.66-14.22-.92-2.53.85-3,.56-1.64,4.35,1.1,3,9.2,7.14,15.15,7.27A8.67,8.67,0,0,1,33.25,65,8.45,8.45,0,0,1,35.4,59.16Z"/><path class="cls-1" d="M39.15,68.81c2.54-1.75,1.83-4.42-.48-7.68a6.44,6.44,0,0,0-3.27-2A8.45,8.45,0,0,0,33.25,65a8.67,8.67,0,0,0,1.44,4.9A7.53,7.53,0,0,0,39.15,68.81Z"/><path class="cls-1" d="M125.36,49.74c-2.14-.61-9.67.18-14.19,2.19A8.67,8.67,0,0,1,114.31,59a10.4,10.4,0,0,1-.55,3.37c5.42-1.44,11.69-5.47,12.84-8.24C128.26,50.08,127.76,50.41,125.36,49.74Z"/><path class="cls-1" d="M111.17,51.93a7.44,7.44,0,0,0-3,2.15c-2.52,3.57-3.44,6.39-1.12,8,1.53,1.07,4,1,6.76.27a10.4,10.4,0,0,0,.55-3.37A8.67,8.67,0,0,0,111.17,51.93Z"/></svg>