<svg id="Ebene_1" data-name="Ebene 1" xmlns="http://www.w3.org/2000/svg" viewBox="0 0 141.73 141.73"><defs><style>.cls-1{fill:#96c347;}.cls-2{fill:#018e8a;}</style></defs><title>Zeichenfläche 2 Kopie 12</title><path class="cls-1" d="M68.17,34.43V18H46.3A3.15,3.15,0,0,0,43,20.9V54.53H97.61V34.43Z"/><rect class="cls-2" x="42.86" y="58.55" width="54.63" height="68.69"/><path class="cls-1" d="M102,16.65a4.31,4.31,0,0,0-.09-.88V29.64H102Z"/><path class="cls-1" d="M96.57,11.85H72.88v2.9h28.66A5.48,5.48,0,0,0,96.57,11.85Z"/><path class="cls-1" d="M101.54,14.75H72.88V29.64h29V15.77A4.73,4.73,0,0,0,101.54,14.75Z"/><rect class="cls-1" x="59.79" y="40.84" width="17.5" height="4.92" transform="translate(111.85 -25.24) rotate(90)"/><rect class="cls-1" x="44.6" y="28.61" width="22.56" height="9.44"/></svg>