<svg id="Ebene_1" data-name="Ebene 1" xmlns="http://www.w3.org/2000/svg" viewBox="0 0 141.73 141.73"><defs><style>.cls-1{fill:#96c347;}.cls-2{fill:#00a19a;}</style></defs><title>Zeichenfläche 2 Kopie 3</title><path class="cls-1" d="M113.26,47.91C109,51.48,93.35,54.13,74.7,54.13,55.81,54.13,40,51.41,36,47.77c-8.71,5.38-14,13.88-14,26.79,0,27.12,23.53,49.11,52.56,49.11s52.57-22,52.57-49.11C127.07,61.77,121.83,53.3,113.26,47.91Z"/><path class="cls-2" d="M91.82,36.77c4.77-6.18,7.15-12.19,5.32-13.42s-7.18,2.77-12,8.95A44.41,44.41,0,0,0,81.4,38c3.12.12,6.11.31,8.93.56C90.83,38,91.33,37.4,91.82,36.77Z"/><path class="cls-2" d="M79.87,45.72c1.64,1.1,6.12-2,10.46-7.13-2.82-.25-5.81-.44-8.93-.56C79.33,41.83,78.62,44.88,79.87,45.72Z"/><path class="cls-2" d="M78.61,38a41.18,41.18,0,0,0,.59-7.11c0-7.62-1.83-13.79-4.09-13.79S71,23.22,71,30.84a41,41,0,0,0,.59,7.09c.92,0,1.85,0,2.78,0C75.82,37.91,77.22,37.92,78.61,38Z"/><path class="cls-2" d="M75.11,44.63c1.48,0,2.78-2.68,3.5-6.68-1.39,0-2.79,0-4.22,0-.93,0-1.86,0-2.78,0C72.32,41.94,73.62,44.63,75.11,44.63Z"/><path class="cls-2" d="M36.91,42.91a1.15,1.15,0,0,0,0,.45,31.11,31.11,0,0,1,8.55-2.88C40.6,40.53,37.11,41.43,36.91,42.91Z"/><path class="cls-2" d="M51,48.42c8.09.95,14.88,0,15.16-2.07s-6.05-4.56-14.14-5.51a51.18,51.18,0,0,0-6.56-.36A31.11,31.11,0,0,0,37,43.36C37.52,45.34,43.52,47.54,51,48.42Z"/><path class="cls-2" d="M113.33,44.47c.64-.52,1-1,.9-1.56-.23-1.7-4.77-2.63-10.82-2.41C108.34,41.59,111.86,43,113.33,44.47Z"/><path class="cls-2" d="M84.93,46.35c.29,2.09,7.07,3,15.16,2.07,6.13-.72,11.25-2.31,13.24-4-1.47-1.52-5-2.88-9.92-4-1.38,0-2.84.17-4.34.34C91,41.79,84.65,44.26,84.93,46.35Z"/><path class="cls-2" d="M64.86,32.3c-4.77-6.18-10.12-10.19-12-8.95s.55,7.24,5.32,13.42c.47.59.93,1.17,1.4,1.72,2.86-.23,5.87-.4,9-.5A43.21,43.21,0,0,0,64.86,32.3Z"/><path class="cls-2" d="M70.19,45.72c1.24-.84.53-3.91-1.56-7.73-3.13.1-6.14.27-9,.5C64,43.66,68.53,46.83,70.19,45.72Z"/><path class="cls-1" d="M86.55,53.85c-3.63,0-6.82-6-11.23-6s-6.21,6.45-10.82,6c-8.33-.89,6.54,2.61,11,2.61S93.8,53.92,86.55,53.85Z"/></svg>