<svg id="Ebene_1" data-name="Ebene 1" xmlns="http://www.w3.org/2000/svg" viewBox="0 0 141.73 141.73"><defs><style>.cls-1{fill:#96c347;}.cls-1,.cls-2{stroke:#fff;stroke-miterlimit:10;stroke-width:4px;}.cls-2{fill:#018e8a;}</style></defs><title>Zeichenfläche 2</title><path class="cls-1" d="M81.43,40.81a1.64,1.64,0,0,1,0,.22c0,3.56-3.71,6.45-8.28,6.45S64.89,44.59,64.89,41a4.88,4.88,0,0,1,.26-1.57c-24.84,2.4-46,26.24-37.94,45.26,25.73,60.79,33,33.27,48.84,36.34,20,3.88,26.74,10.52,40-40.95C120,64.7,102.81,46.22,81.43,40.81Z"/><path class="cls-2" d="M82.86,39.72c-6.21,2.87-9.36,6.58-12.34,4.89s-2.29-6.61,1.54-11,0-19.15,3-17.46S95.08,34.06,82.86,39.72Z"/></svg>