<svg id="Ebene_1" data-name="Ebene 1" xmlns="http://www.w3.org/2000/svg" viewBox="0 0 141.73 141.73"><defs><style>.cls-1{fill:#018e8a;stroke:#fff;stroke-miterlimit:10;stroke-width:4px;}.cls-2{fill:#42bac1;}</style></defs><title>Zeichenfläche 2 Kopie 4</title><path class="cls-1" d="M89.42,79.7c8.06-6.53,18.89-7.38,26.46-5.08,0-14.56-7.45-27.56-19.14-36.17-.74-.55-1.66-.19-2.14.85-1.52,3.24-3.35,3.78-5.22,2.67s-3.18-3.39-3-7.28A2.79,2.79,0,0,0,85.12,32a56.19,56.19,0,0,0-6.37-2.18c-.87-.24-1.68.58-2,1.85-.79,3.54-2.63,4.8-4.55,4.8-2.19,0-3.82-2-4.31-6.46-.13-1.26-.87-2.16-1.7-2.2q-1.52-.09-3.06-.09c-1.59,0-3.16.08-4.71.21-.86.07-1.56,1.12-1.63,2.44C56.57,35,55,36.89,52.7,37.06c-2.08.16-4.1-1-4.91-4.88-.27-1.31-1.13-2.14-2-1.87-3.4,1.06-3.77,1-6.82,2.59.07.31-2.79.53-2.68,2.38.39,6.34-.47,7.48-3,8.61-2,.92-3.91,1.66-5.23-1.51-.49-1.2-1.54-1.53-2.34-.82-9.46,8.49-15.3,20.17-15.3,33.07,0,25.93,23.88,22.2,53,22.2,5.26,0,10.32.12,15.09.16C79.45,91.33,82.51,85.28,89.42,79.7Z"/><path class="cls-1" d="M136.51,96.62c0-8.51-13.11-27.48-28.88-27.48S78.42,87.71,78.42,96.22s11.89,7.14,27.65,7.14S136.51,105.13,136.51,96.62Z"/><path class="cls-2" d="M128.63,92.72c0-5.29-9.55-17.07-21-17.07S86.3,87.19,86.3,92.47s8.66,4.44,20.15,4.44S128.63,98,128.63,92.72Z"/></svg>