<svg id="Ebene_1" data-name="Ebene 1" xmlns="http://www.w3.org/2000/svg" viewBox="0 0 141.73 141.73"><defs><style>.cls-1{fill:#96c347;}.cls-1,.cls-2{stroke:#fff;stroke-miterlimit:10;stroke-width:4px;}.cls-2{fill:#018e8a;}</style></defs><title>Zeichenfläche 2 Kopie 3</title><path class="cls-1" d="M110.12,45.1c-.33-.22-.65-.44-1-.68-9.32-7-21.25-10.55-39.59-10.55-18.54,0-27.1,3.22-36.67,10.36-.36.27-.74.53-1.12.77C23.4,50.4,18.3,58.81,18.3,71.42c0,27.13,23.53,49.11,52.57,49.11s52.56-22,52.56-49.11C123.43,58.88,118.4,50.49,110.12,45.1Z"/><ellipse class="cls-2" cx="68.94" cy="25.38" rx="5.33" ry="14.86"/><ellipse class="cls-2" cx="54.63" cy="26.7" rx="5.33" ry="14.86" transform="translate(-6.1 23.75) rotate(-23.26)"/><ellipse class="cls-2" cx="98.19" cy="35.37" rx="14.86" ry="5.33" transform="matrix(0.92, -0.39, 0.39, 0.92, -6.04, 40.79)"/><ellipse class="cls-2" cx="83.63" cy="26.7" rx="14.86" ry="5.33" transform="translate(26.07 92.98) rotate(-66.74)"/><ellipse class="cls-2" cx="39.19" cy="35.37" rx="5.33" ry="14.86" transform="translate(-8.6 57.81) rotate(-67.21)"/></svg>