<?xml version="1.0" encoding="utf-8"?>
<!-- Generator: Adobe Illustrator 22.1.0, SVG Export Plug-In . SVG Version: 6.00 Build 0)  -->
<svg version="1.1" id="Ebene_1" xmlns="http://www.w3.org/2000/svg" xmlns:xlink="http://www.w3.org/1999/xlink" x="0px" y="0px"
	 viewBox="0 0 141.7 141.7" style="enable-background:new 0 0 141.7 141.7;" xml:space="preserve">
<style type="text/css">
	.st0{fill:#96C347;stroke:#FFFFFF;stroke-width:2;stroke-miterlimit:10;}
	.st1{fill:#BFBEBE;stroke:#FFFFFF;stroke-width:2;stroke-linecap:round;stroke-miterlimit:10;}
	.st2{fill:#646463;stroke:#FFFFFF;stroke-width:2;stroke-linecap:round;stroke-miterlimit:10;}
	.st3{fill:#42BAC1;stroke:#FFFFFF;stroke-width:2;stroke-linecap:round;stroke-miterlimit:10;}
	.st4{fill:#4C4835;stroke:#FFFFFF;stroke-width:2;stroke-linecap:round;stroke-miterlimit:10;}
	.st5{fill:#FFFFFF;}
	.st6{fill:#942B2B;}
	.st7{fill:#BFBEBE;}
	.st8{fill:#E84241;}
	.st9{fill:none;stroke:#FFFFFF;stroke-width:2;stroke-linecap:round;stroke-miterlimit:10;}
	.st10{fill:#96C347;stroke:#FFFFFF;stroke-linecap:round;stroke-miterlimit:10;}
	.st11{fill:#E84143;stroke:#FFFFFF;stroke-width:0.25;stroke-linecap:round;stroke-miterlimit:10;}
	.st12{fill:#F8AA12;stroke:#FDFDFD;stroke-width:0.25;stroke-miterlimit:10;}
	.st13{fill:#739B2D;}
	.st14{fill:#42BAC1;stroke:#FFFFFF;stroke-width:0.25;stroke-linecap:round;stroke-miterlimit:10;}
	.st15{fill:#96C347;stroke:#FFFFFF;stroke-width:0.25;stroke-linecap:round;stroke-miterlimit:10;}
	.st16{fill:#D1B95A;stroke:#FFFFFF;stroke-width:0.25;stroke-linecap:round;stroke-miterlimit:10;}
	.st17{stroke:#FFFFFF;stroke-width:0.25;stroke-linecap:round;stroke-miterlimit:10;}
	.st18{fill:#F8AA16;stroke:#FFFFFF;stroke-width:0.25;stroke-linecap:round;stroke-miterlimit:10;}
	.st19{fill:#646463;}
	.st20{fill:#FFFFFF;stroke:#FFFFFF;stroke-width:0.25;stroke-linecap:round;stroke-miterlimit:10;}
	.st21{fill:#E84343;stroke:#FFFFFF;stroke-width:0.25;stroke-linecap:round;stroke-miterlimit:10;}
	.st22{fill:#018E8A;stroke:#FFFFFF;stroke-width:0.25;stroke-linecap:round;stroke-miterlimit:10;}
	.st23{fill:#646463;stroke:#FFFFFF;stroke-width:0.25;stroke-linecap:round;stroke-miterlimit:10;}
	.st24{fill:none;stroke:#4C4835;stroke-width:0.5;stroke-linecap:round;stroke-miterlimit:10;}
	.st25{fill:#4C4835;stroke:#4C4835;stroke-width:0.5;stroke-linecap:round;stroke-miterlimit:10;}
</style>
<title>Zeichenfläche 1 Kopie 4</title>
<polygon class="st0" points="127.7,81.3 19,81.3 4,114.8 140.7,115.3 "/>
<rect x="18.2" y="58.4" class="st1" width="25.5" height="36.4"/>
<path class="st2" d="M54.6,96.1h14.6c0.9,0,1.7,0.8,1.7,1.7c0,0,0,0,0,0v4.2c0,3.9-3.1,7-7,7h-4.7c-3.9,0-7-3.1-7-7v-3.5
	C52.2,97.2,53.3,96.1,54.6,96.1z"/>
<ellipse class="st3" cx="61.5" cy="95.9" rx="8.5" ry="3.6"/>
<path class="st4" d="M81.2,58.1L81.2,58.1c1.2,0,2.3,1,2.3,2.3V90c0,0.1-0.1,0.2-0.2,0.2h-3.7c-0.3,0-0.6-0.3-0.6-0.6V60.4
	C78.9,59.1,79.9,58.1,81.2,58.1z"/>
<path class="st5" d="M79.7,58.6c-5.7-0.1-4.9-12.9-4.8-16.5c0-0.8-1.2-0.8-1.3,0c-0.2,4.3-0.9,17.6,6,17.7c0.3,0,0.6-0.4,0.5-0.7
	C80.2,58.9,79.9,58.7,79.7,58.6L79.7,58.6z"/>
<path class="st5" d="M84,59.5c6.7-0.8,8.5-7.6,9.5-13.2c0.1-0.8-1.1-1.1-1.2-0.3C91.4,50.9,90,57.5,84,58.3
	C83.2,58.3,83.2,59.6,84,59.5z"/>
<path class="st5" d="M75.4,55.9c-3-0.2-5.5-2.5-6.1-5.5c-0.2-0.8-1.3-0.5-1.2,0.3c0.7,3.5,3.7,6.1,7.3,6.4
	C76.2,57.2,76.2,56,75.4,55.9z"/>
<path class="st5" d="M86.6,58.5c0.5,2,2.6,3.1,4.5,2.6c0.1,0,0.1,0,0.2-0.1c0.8-0.3,0.4-1.5-0.3-1.2c-1.3,0.5-2.7-0.2-3.2-1.5
	c0-0.1,0-0.1-0.1-0.2c-0.1-0.3-0.4-0.5-0.8-0.4S86.5,58.1,86.6,58.5L86.6,58.5z"/>
<path class="st6" d="M65,59.3c0.2,0.2,0.2,0.6,0,0.7c-0.1,0.1-0.2,0.1-0.4,0.1H44.8c-0.3,0-0.5-0.2-0.5-0.5c0-0.1,0.1-0.3,0.1-0.4
	l1-1H46c0.3,0,0.5-0.2,0.5-0.5c0-0.1,0-0.3-0.1-0.4l-0.1-0.1l8-8.8c0.2-0.2,0.5-0.2,0.7,0c0,0,0,0,0,0L65,59.3z"/>
<rect x="44.7" y="60.4" class="st7" width="19.4" height="24.6"/>
<path class="st6" d="M46.4,57.3c0.2,0.2,0.2,0.6,0,0.7c-0.1,0.1-0.2,0.1-0.4,0.1h-0.7l0.9-1L46.4,57.3z"/>
<path class="st8" d="M31.2,39.7l15.1,17.5l-0.9,1H15.6c-0.3,0-0.5-0.2-0.5-0.5c0-0.1,0-0.3,0.1-0.4l15.2-17.6
	C30.6,39.4,30.9,39.4,31.2,39.7C31.1,39.6,31.2,39.6,31.2,39.7z"/>
<path class="st9" d="M45.3,58.2l-1,1c-0.2,0.2-0.2,0.6,0,0.7c0.1,0.1,0.2,0.1,0.4,0.1h19.8c0.3,0,0.5-0.2,0.5-0.5
	c0-0.1-0.1-0.3-0.1-0.4L55,48.3c-0.2-0.2-0.5-0.2-0.7,0c0,0,0,0,0,0l-8,8.8"/>
<rect x="44.7" y="60.4" class="st9" width="19.4" height="24.6"/>
<path class="st9" d="M46.3,57.2L31.2,39.7c-0.2-0.2-0.5-0.3-0.7-0.1c0,0,0,0-0.1,0.1L15.2,57.3c-0.2,0.2-0.2,0.6,0,0.7
	c0.1,0.1,0.2,0.1,0.4,0.1H46c0.3,0,0.5-0.2,0.5-0.5c0-0.1,0-0.3-0.1-0.4L46.3,57.2z"/>
<ellipse class="st10" cx="88.4" cy="46.4" rx="15.8" ry="11.8"/>
<ellipse class="st10" cx="75.1" cy="44.1" rx="10.2" ry="6.6"/>
<ellipse class="st10" cx="67.1" cy="50.3" rx="8.3" ry="4.3"/>
<ellipse class="st10" cx="94" cy="59.3" rx="6.1" ry="3.3"/>
<circle class="st11" cx="96.1" cy="51.4" r="1.6"/>
<circle class="st11" cx="94.5" cy="59.3" r="1.6"/>
<circle class="st11" cx="83.8" cy="53" r="1.6"/>
<circle class="st11" cx="99.4" cy="42.9" r="1.6"/>
<circle class="st11" cx="89.2" cy="38.7" r="1.6"/>
<circle class="st11" cx="91.1" cy="46.1" r="1.6"/>
<circle class="st11" cx="78.1" cy="46.1" r="1.6"/>
<circle class="st11" cx="70.8" cy="42.2" r="1.6"/>
<circle class="st11" cx="63.3" cy="50.3" r="1.6"/>
<circle class="st11" cx="69.3" cy="51.4" r="1.6"/>
<circle class="st11" cx="77.3" cy="40.6" r="1.6"/>
<path class="st12" d="M103.7,85h0.9c0.6,0,1.2,0.5,1.2,1.2v1.7l0,0h-3.3l0,0v-1.7C102.6,85.5,103.1,85,103.7,85z"/>
<path class="st13" d="M102.7,83.1c0.4,0.6,0.7,1.3,0.9,2c0.1,0.3,0.5,0.5,0.8,0.4c0.3-0.1,0.4-0.3,0.4-0.6c0-1.1,0.3-2.2,0.6-3.3
	c0.3-0.8-0.9-1.1-1.2-0.3c-0.4,1.2-0.6,2.4-0.7,3.6l1.2-0.2c-0.2-0.8-0.6-1.6-1-2.3c-0.2-0.3-0.6-0.3-0.9-0.1
	C102.7,82.5,102.7,82.8,102.7,83.1L102.7,83.1z"/>
<path class="st12" d="M104.4,90.5h0.9c0.6,0,1.2,0.5,1.2,1.2v1.7l0,0h-3.3l0,0v-1.7C103.3,91,103.8,90.5,104.4,90.5z"/>
<path class="st13" d="M103.5,88.6c0.4,0.6,0.7,1.3,0.9,2c0.1,0.3,0.5,0.5,0.8,0.4c0.3-0.1,0.4-0.3,0.4-0.6c0-1.1,0.3-2.2,0.6-3.3
	c0.3-0.8-0.9-1.1-1.2-0.3c-0.4,1.2-0.6,2.4-0.7,3.6l1.2-0.2c-0.2-0.8-0.6-1.6-1-2.3C104.2,87.3,103.1,87.9,103.5,88.6L103.5,88.6z"
	/>
<path class="st12" d="M105.4,96.5h0.9c0.6,0,1.2,0.5,1.2,1.2v1.7l0,0h-3.3l0,0v-1.7C104.2,97,104.7,96.5,105.4,96.5z"/>
<path class="st13" d="M104.4,94.6c0.4,0.6,0.7,1.3,0.9,2c0.1,0.3,0.4,0.5,0.8,0.4c0.3-0.1,0.5-0.3,0.5-0.6c0.1-1.1,0.3-2.2,0.6-3.3
	c0.3-0.8-0.9-1.1-1.2-0.3c-0.4,1.2-0.6,2.4-0.7,3.6l1.2-0.2c-0.2-0.8-0.6-1.6-1-2.3C105.1,93.3,104,93.9,104.4,94.6L104.4,94.6z"/>
<path class="st12" d="M106.1,102.9h0.9c0.6,0,1.2,0.5,1.2,1.2v1.7l0,0h-3.3l0,0v-1.7C104.9,103.4,105.4,102.9,106.1,102.9
	L106.1,102.9z"/>
<path class="st13" d="M105.1,101c0.4,0.6,0.7,1.3,0.9,2c0.1,0.3,0.5,0.5,0.8,0.4c0.3-0.1,0.4-0.3,0.4-0.6c0-1.1,0.3-2.2,0.6-3.3
	c0.3-0.8-0.9-1.1-1.2-0.3c-0.4,1.2-0.6,2.4-0.7,3.6l1.2-0.2c-0.2-0.8-0.6-1.6-1-2.3C105.8,99.7,104.7,100.4,105.1,101L105.1,101z"/>
<path class="st12" d="M106.8,108h0.9c0.6,0,1.2,0.5,1.2,1.2v1.7l0,0h-3.3l0,0v-1.7C105.6,108.5,106.2,108,106.8,108z"/>
<path class="st13" d="M105.8,106c0.4,0.6,0.7,1.3,0.9,2c0.1,0.3,0.5,0.5,0.8,0.4c0.3-0.1,0.4-0.3,0.4-0.6c0-1.1,0.3-2.2,0.6-3.3
	c0.3-0.8-0.9-1.1-1.2-0.3c-0.4,1.2-0.6,2.4-0.7,3.6l1.2-0.2c-0.2-0.8-0.6-1.6-1-2.3C106.5,104.7,105.4,105.4,105.8,106L105.8,106z"
	/>
<path class="st12" d="M117.7,85.3h0.9c0.6,0,1.2,0.5,1.2,1.2v1.7l0,0h-3.3l0,0v-1.7C116.6,85.9,117.1,85.3,117.7,85.3z"/>
<path class="st13" d="M116.7,83.4c0.4,0.6,0.7,1.3,0.9,2c0.1,0.3,0.5,0.5,0.8,0.4c0.3-0.1,0.4-0.3,0.4-0.6c0.1-1.1,0.3-2.2,0.6-3.2
	c0.3-0.8-0.9-1.1-1.2-0.3c-0.4,1.2-0.6,2.4-0.7,3.6l1.2-0.2c-0.2-0.8-0.6-1.6-1-2.3C117.4,82.1,116.4,82.8,116.7,83.4L116.7,83.4z"
	/>
<path class="st12" d="M118.7,90.5h0.9c0.6,0,1.2,0.5,1.2,1.2v1.7l0,0h-3.3l0,0v-1.7C117.6,91,118.1,90.5,118.7,90.5z"/>
<path class="st13" d="M117.7,88.6c0.4,0.6,0.7,1.3,0.9,2c0.1,0.3,0.5,0.5,0.8,0.4c0.3-0.1,0.4-0.3,0.4-0.6c0-1.1,0.3-2.2,0.6-3.3
	c0.3-0.8-0.9-1.1-1.2-0.3c-0.4,1.2-0.6,2.4-0.7,3.6l1.2-0.2c-0.2-0.8-0.6-1.6-1-2.3c-0.2-0.3-0.6-0.3-0.9-0.1
	C117.7,88,117.7,88.3,117.7,88.6L117.7,88.6z"/>
<path class="st12" d="M119.3,96.2h0.9c0.6,0,1.2,0.5,1.2,1.2v1.7l0,0h-3.3l0,0v-1.7C118.2,96.7,118.7,96.2,119.3,96.2z"/>
<path class="st13" d="M118.4,94.3c0.4,0.6,0.7,1.3,0.9,2c0.1,0.3,0.4,0.5,0.8,0.4c0.3-0.1,0.5-0.3,0.5-0.6c0.1-1.1,0.3-2.2,0.6-3.3
	c0.3-0.8-0.9-1.1-1.2-0.3c-0.4,1.2-0.6,2.4-0.7,3.6l1.2-0.2c-0.2-0.8-0.6-1.6-1-2.3C119,93,118,93.6,118.4,94.3L118.4,94.3z"/>
<path class="st12" d="M121.1,102.9h0.9c0.6,0,1.2,0.5,1.2,1.2v1.7l0,0h-3.3l0,0v-1.7C119.9,103.4,120.4,102.9,121.1,102.9z"/>
<path class="st13" d="M120.1,101c0.4,0.6,0.7,1.3,0.9,2c0.1,0.3,0.5,0.5,0.8,0.4c0.3-0.1,0.4-0.3,0.4-0.6c0-1.1,0.3-2.2,0.6-3.3
	c0.3-0.8-0.9-1.1-1.2-0.3c-0.4,1.2-0.6,2.4-0.7,3.6l1.2-0.2c-0.2-0.8-0.6-1.6-1-2.3C120.8,99.7,119.7,100.4,120.1,101L120.1,101z"/>
<path class="st12" d="M122.7,108.3h0.9c0.6,0,1.2,0.5,1.2,1.2v1.7l0,0h-3.3l0,0v-1.7C121.5,108.8,122,108.3,122.7,108.3z"/>
<path class="st13" d="M121.7,106.4c0.4,0.6,0.7,1.3,0.9,2c0.1,0.3,0.5,0.5,0.8,0.4c0.3-0.1,0.4-0.3,0.4-0.6c0-1.1,0.3-2.2,0.6-3.3
	c0.3-0.8-0.9-1.1-1.2-0.3c-0.4,1.2-0.6,2.4-0.7,3.6l1.2-0.2c-0.2-0.8-0.6-1.6-1-2.3C122.4,105.1,121.3,105.7,121.7,106.4
	L121.7,106.4z"/>
<path class="st14" d="M26.8,95.1h1.1c0.2,0,0.3,0.1,0.3,0.3v9.6c0,0.2-0.1,0.3-0.3,0.3h-1.1c-0.2,0-0.3-0.1-0.3-0.3v-9.6
	C26.4,95.3,26.6,95.1,26.8,95.1z"/>
<path class="st14" d="M29.6,95.1h1.1c0.2,0,0.3,0.1,0.3,0.3v9.6c0,0.2-0.1,0.3-0.3,0.3h-1.1c-0.2,0-0.3-0.1-0.3-0.3v-9.6
	C29.2,95.3,29.4,95.1,29.6,95.1z"/>
<path class="st15" d="M26.9,86.2h3.6c0.4,0,0.8,0.3,0.8,0.8v8.8c0,0.9-0.7,1.6-1.6,1.6h-1.9c-0.9,0-1.6-0.7-1.6-1.6V87
	C26.1,86.6,26.5,86.2,26.9,86.2C26.9,86.2,26.9,86.2,26.9,86.2z"/>
<path class="st14" d="M26.9,90.1h3.6c0.4,0,0.8,0.3,0.8,0.8v4.8c0,0.9-0.7,1.6-1.6,1.6h-1.9c-0.9,0-1.6-0.7-1.6-1.6v-4.8
	C26.2,90.4,26.5,90.1,26.9,90.1z"/>
<path class="st16" d="M25.1,87.1h1.1c0.2,0,0.3,0.1,0.3,0.3v9.6c0,0.2-0.1,0.3-0.3,0.3h-1.1c-0.2,0-0.3-0.1-0.3-0.3v-9.6
	C24.8,87.3,24.9,87.1,25.1,87.1z"/>
<path class="st16" d="M31.4,87.1h1.1c0.2,0,0.3,0.1,0.3,0.3v9.6c0,0.2-0.1,0.3-0.3,0.3h-1.1c-0.2,0-0.3-0.1-0.3-0.3v-9.6
	C31,87.3,31.2,87.1,31.4,87.1z"/>
<ellipse class="st16" cx="28.7" cy="84.3" rx="1.6" ry="2.6"/>
<path class="st15" d="M31.6,86.9h0.7c0.3,0,0.6,0.3,0.6,0.6l0,0v2.1l0,0H31l0,0v-2.1C31,87.2,31.2,86.9,31.6,86.9z"/>
<path class="st17" d="M26.9,104h0.7c0.3,0,0.6,0.3,0.6,0.6l0,0v1.4l0,0h-1.9l0,0v-1.3C26.2,104.3,26.5,104,26.9,104
	C26.8,104,26.9,104,26.9,104z"/>
<path class="st17" d="M29.7,104h0.7c0.3,0,0.6,0.3,0.6,0.6l0,0v1.4l0,0h-1.9l0,0v-1.3C29.1,104.3,29.3,104,29.7,104
	C29.7,104,29.7,104,29.7,104z"/>
<path class="st15" d="M25.3,86.9H26c0.3,0,0.6,0.3,0.6,0.6l0,0v2.1l0,0h-1.9l0,0v-2.1C24.7,87.1,24.9,86.9,25.3,86.9z"/>
<path class="st14" d="M27,86.4h0.2c0.1,0,0.2,0.1,0.2,0.2v3.3c0,0.1-0.1,0.2-0.2,0.2H27c-0.1,0-0.2-0.1-0.2-0.2v-3.3
	C26.8,86.5,26.9,86.4,27,86.4z"/>
<path class="st14" d="M30.3,86.2h0.2c0.1,0,0.2,0.1,0.2,0.2v3.3c0,0.1-0.1,0.2-0.2,0.2h-0.2c-0.1,0-0.2-0.1-0.2-0.2v-3.3
	C30.1,86.3,30.2,86.2,30.3,86.2z"/>
<path class="st16" d="M36.2,96.6h0.9c0.2,0,0.3,0.1,0.3,0.3v8.5c0,0.2-0.1,0.3-0.3,0.3h-0.9c-0.2,0-0.3-0.1-0.3-0.3v-8.5
	C35.9,96.7,36,96.6,36.2,96.6z"/>
<path class="st16" d="M38.7,96.6h0.9c0.2,0,0.3,0.1,0.3,0.3v8.5c0,0.2-0.1,0.3-0.3,0.3h-0.9c-0.2,0-0.3-0.1-0.3-0.3v-8.5
	C38.4,96.7,38.5,96.6,38.7,96.6z"/>
<path class="st18" d="M36.4,88.6h3c0.4,0,0.8,0.3,0.8,0.8V102l0,0h-4.6l0,0V89.4C35.6,89,36,88.6,36.4,88.6L36.4,88.6z"/>
<path class="st16" d="M34.8,89.4h0.9c0.2,0,0.3,0.1,0.3,0.3v8.5c0,0.2-0.1,0.3-0.3,0.3h-0.9c-0.2,0-0.3-0.1-0.3-0.3v-8.5
	C34.4,89.6,34.6,89.4,34.8,89.4z"/>
<path class="st16" d="M40.3,89.4h0.9c0.2,0,0.3,0.1,0.3,0.3v8.5c0,0.2-0.1,0.3-0.3,0.3h-0.9c-0.2,0-0.3-0.1-0.3-0.3v-8.5
	C40,89.6,40.1,89.4,40.3,89.4z"/>
<ellipse class="st16" cx="37.9" cy="86" rx="2" ry="3.2"/>
<path class="st17" d="M36.3,104.5h0.5c0.3,0,0.6,0.3,0.6,0.6l0,0v1.1l0,0h-1.7l0,0v-1.1C35.7,104.8,36,104.5,36.3,104.5z"/>
<path class="st17" d="M38.9,104.5h0.5c0.3,0,0.6,0.3,0.6,0.6l0,0v1.1l0,0h-1.7l0,0v-1.1C38.3,104.8,38.5,104.5,38.9,104.5z"/>
<path class="st19" d="M36.9,82.1c-0.8,0.4-1.3,1-1.6,1.8c-0.1,0.4-0.2,0.9-0.2,1.4c0,0.1,0,0.3,0,0.4l0.1-0.2c-0.2,0-0.4,0-0.7,0
	l0.7,0.9c0.3-0.5,0.5-1,0.4-1.6c-0.1-0.8-1.3-0.8-1.3,0c0,1.1-0.9,2.6,0.6,3.1c0.3,0.1,0.7-0.1,0.8-0.4c0,0,0-0.1,0-0.2l0.1-0.5
	c0.1-0.8-1.2-0.8-1.3,0l-0.1,0.5l0.8-0.6c0.3,0.1,0.3-1.8,0.3-1.9h-1.2c0,0.3,0,0.7-0.3,0.9c-0.3,0.5,0.2,1,0.7,0.9
	c0.7-0.1,1.4,0,1.5-0.9c0.1-1.1-0.2-2.1,1.1-2.7C38.3,82.7,37.7,81.7,36.9,82.1L36.9,82.1z"/>
<path class="st19" d="M37.4,83.1c0.3,0.2,0.6,0.3,0.9,0.4c0.5,0.2,0.8,0.6,0.9,1.1c0.1,0.3,0.7,2,1,2L41,87v-0.3
	c0.1-0.8-1.1-1.1-1.2-0.3c-0.1,0.3-0.1,0.7,0,1c0.1,0.3,0.4,0.5,0.8,0.4c0.5-0.1,0.8-0.6,0.8-1.1c-0.1-0.7-0.3-1.3-0.6-1.9
	c-0.3-0.6-0.6-1.2-1-1.8c-0.5-0.6-1.2-0.7-1.8-1.1S36.7,82.6,37.4,83.1L37.4,83.1z"/>
<path class="st19" d="M39.2,84.8c0.3,0.1,0.1,0.2,0.1,0.4c0,0.2,0,0.5,0.1,0.7c0.1,0.2,0.3,0.4,0.3,0.6s-0.3,0.4-0.5,0.5
	c-0.3,0.2-0.4,0.6-0.2,0.9c0.1,0.1,0.1,0.2,0.2,0.2c0.3,0.2,0.7,0.2,1.1,0.2l-0.2-1.2c-0.2,0.1-0.4,0.1-0.7,0
	c-0.8-0.1-1.1,1.1-0.3,1.2c0.4,0.1,0.9,0.1,1.3,0c0.7-0.2,0.5-1.3-0.2-1.2c-0.1,0-0.3,0-0.4,0v1.1c0.9-0.3,1.4-1.2,1.1-2.1
	c0-0.1-0.1-0.1-0.1-0.2c-0.1-0.1-0.3-0.4-0.3-0.4c0-0.2,0.2-0.4,0.2-0.6c-0.1-0.5-0.4-0.9-0.9-1.1C39.1,83.5,38.5,84.5,39.2,84.8
	L39.2,84.8z"/>
<path class="st19" d="M35.4,87.6l0.1,0.1l-0.1-0.5v0.1l0.3-0.4c0.1-0.1-0.2,0-0.3,0c-0.2,0-0.3-0.1-0.5-0.1l0.3,1
	c-0.2,0-0.2,0.1,0,0.1l0.2,0.1l0.5,0.3c0.7,0.4,1.3-0.7,0.6-1.1S35,86.3,34.3,87c-0.2,0.3-0.2,0.7,0.1,0.9c0.1,0,0.1,0.1,0.2,0.1
	c0.5,0.2,1.1,0.2,1.7,0c0.4-0.3,0.5-0.8,0.2-1.1c-0.1-0.1-0.1-0.2-0.2-0.2C35.7,86.1,34.8,87,35.4,87.6L35.4,87.6z"/>
<path class="st16" d="M31.7,101.1h0.5c0.2,0,0.3,0.1,0.3,0.3v5.8c0,0.2-0.1,0.3-0.3,0.3h-0.5c-0.2,0-0.3-0.1-0.3-0.3v-5.8
	C31.3,101.2,31.5,101.1,31.7,101.1z"/>
<path class="st16" d="M33.5,101.1H34c0.2,0,0.3,0.1,0.3,0.3v5.8c0,0.2-0.1,0.3-0.3,0.3h-0.5c-0.2,0-0.3-0.1-0.3-0.3v-5.8
	C33.2,101.2,33.3,101.1,33.5,101.1z"/>
<path class="st11" d="M31.9,95.4h1.8c0.4,0,0.8,0.3,0.8,0.8v8.7l0,0h-3.4l0,0v-8.7C31.1,95.8,31.5,95.4,31.9,95.4z"/>
<path class="st16" d="M30.6,96h0.5c0.2,0,0.3,0.1,0.3,0.3v5.8c0,0.2-0.1,0.3-0.3,0.3h-0.5c-0.2,0-0.3-0.1-0.3-0.3v-5.8
	C30.3,96.2,30.4,96,30.6,96z"/>
<path class="st16" d="M34.7,96h0.5c0.2,0,0.3,0.1,0.3,0.3v5.8c0,0.2-0.1,0.3-0.3,0.3h-0.5c-0.2,0-0.3-0.1-0.3-0.3v-5.8
	C34.4,96.2,34.5,96,34.7,96z"/>
<ellipse class="st16" cx="32.8" cy="93.5" rx="1.5" ry="2.3"/>
<path class="st18" d="M31.8,106.7L31.8,106.7c0.3,0,0.6,0.3,0.6,0.6l0,0v0.6l0,0h-1.2l0,0v-0.6C31.2,106.9,31.5,106.7,31.8,106.7
	C31.8,106.7,31.8,106.7,31.8,106.7z"/>
<path class="st18" d="M33.7,106.7L33.7,106.7c0.3,0,0.6,0.3,0.6,0.6l0,0v0.6l0,0h-1.2l0,0v-0.6C33.1,106.9,33.4,106.7,33.7,106.7z"
	/>
<path class="st19" d="M31.3,90.8c-0.7,0.8-1.1,1.9-0.9,3c0.1,0.3,0.5,0.5,0.8,0.4c0.3-0.1,0.4-0.4,0.4-0.7c-0.2-0.8,0.3-1.5,0.8-2.1
	S31.7,90.2,31.3,90.8L31.3,90.8z"/>
<path class="st19" d="M32.3,91.7c0.4,0.1,0.9,0.2,1.1,0.5c0.2,0.5,0.3,1.1,0.3,1.6c0.2,0.8,1.3,0.4,1.2-0.3c0-0.8-0.3-1.5-0.7-2.2
	c-0.5-0.5-1.1-0.8-1.7-0.8C31.8,90.3,31.5,91.5,32.3,91.7z"/>
<path class="st14" d="M21.8,100.2h0.4c0.2,0,0.3,0.1,0.3,0.3v5.8c0,0.2-0.1,0.3-0.3,0.3h-0.4c-0.2,0-0.3-0.1-0.3-0.3v-5.8
	C21.5,100.3,21.6,100.2,21.8,100.2z"/>
<path class="st14" d="M23.5,100.2H24c0.2,0,0.3,0.1,0.3,0.3v5.8c0,0.2-0.1,0.3-0.3,0.3h-0.4c-0.2,0-0.3-0.1-0.3-0.3v-5.8
	C23.2,100.3,23.4,100.2,23.5,100.2z"/>
<path class="st20" d="M22,94.6h1.7c0.4,0,0.8,0.3,0.8,0.8v4.6c0,0.9-0.7,1.6-1.6,1.6l0,0c-0.9,0-1.6-0.7-1.6-1.6v-4.6
	C21.2,95,21.6,94.6,22,94.6z"/>
<path class="st16" d="M20.7,95.2h0.4c0.2,0,0.3,0.1,0.3,0.3v5.8c0,0.2-0.1,0.3-0.3,0.3h-0.4c-0.2,0-0.3-0.1-0.3-0.3v-5.8
	C20.4,95.3,20.6,95.2,20.7,95.2z"/>
<path class="st16" d="M24.7,95.2h0.4c0.2,0,0.3,0.1,0.3,0.3v5.8c0,0.2-0.1,0.3-0.3,0.3h-0.4c-0.2,0-0.3-0.1-0.3-0.3v-5.8
	C24.4,95.3,24.5,95.2,24.7,95.2z"/>
<ellipse class="st16" cx="22.9" cy="92.8" rx="1.4" ry="2.3"/>
<path class="st21" d="M21,95L21,95c0.3,0,0.6,0.3,0.6,0.6l0,0v1.1l0,0h-1.2l0,0v-1.1C20.3,95.3,20.6,95,21,95C21,95,21,95,21,95
	L21,95z"/>
<path class="st21" d="M24.9,95L24.9,95c0.3,0,0.6,0.3,0.6,0.6l0,0v1.1l0,0h-1.2l0,0v-1.1C24.3,95.3,24.5,95,24.9,95
	C24.9,95,24.9,95,24.9,95z"/>
<path class="st21" d="M22,105.8L22,105.8c0.3,0,0.6,0.3,0.6,0.6l0,0v0.6l0,0h-1.2l0,0v-0.6C21.3,106.1,21.6,105.8,22,105.8
	C21.9,105.8,21.9,105.8,22,105.8z"/>
<path class="st21" d="M23.8,105.8L23.8,105.8c0.3,0,0.6,0.3,0.6,0.6l0,0v0.6l0,0h-1.2l0,0v-0.6C23.1,106.1,23.4,105.8,23.8,105.8
	C23.8,105.8,23.8,105.8,23.8,105.8L23.8,105.8z"/>
<path class="st22" d="M96.2,99.6h1c0.2,0,0.3,0.1,0.3,0.3V110c0,0.2-0.1,0.3-0.3,0.3h-1c-0.2,0-0.3-0.1-0.3-0.3V99.9
	C95.9,99.7,96,99.6,96.2,99.6z"/>
<path class="st22" d="M98.9,99.6h1c0.2,0,0.3,0.1,0.3,0.3V110c0,0.2-0.1,0.3-0.3,0.3h-1c-0.2,0-0.3-0.1-0.3-0.3V99.9
	C98.5,99.7,98.7,99.6,98.9,99.6z"/>
<path class="st23" d="M96.4,90.3h3.4c0.4,0,0.8,0.3,0.8,0.8v9.3c0,0.9-0.7,1.6-1.6,1.6c0,0,0,0,0,0h-1.7c-0.9,0-1.6-0.7-1.6-1.6V91
	C95.6,90.6,95.9,90.2,96.4,90.3L96.4,90.3L96.4,90.3z"/>
<path class="st22" d="M96.4,94.3h3.4c0.4,0,0.8,0.3,0.8,0.8v5.2c0,0.9-0.7,1.6-1.6,1.6h-1.7c-0.9,0-1.6-0.7-1.6-1.6v-5.2
	C95.6,94.7,96,94.3,96.4,94.3C96.4,94.3,96.4,94.3,96.4,94.3z"/>
<path class="st16" d="M94.6,91.2h1c0.2,0,0.3,0.1,0.3,0.3v10.1c0,0.2-0.1,0.3-0.3,0.3h-1c-0.2,0-0.3-0.1-0.3-0.3V91.6
	C94.3,91.4,94.5,91.2,94.6,91.2z"/>
<path class="st16" d="M100.6,91.2h1c0.2,0,0.3,0.1,0.3,0.3v10.1c0,0.2-0.1,0.3-0.3,0.3h-1c-0.2,0-0.3-0.1-0.3-0.3V91.6
	C100.3,91.4,100.4,91.2,100.6,91.2z"/>
<ellipse class="st16" cx="98.1" cy="88.2" rx="1.5" ry="2.7"/>
<path class="st23" d="M100.8,90.9h0.6c0.3,0,0.6,0.3,0.6,0.6l0,0v2.2l0,0h-1.8l0,0v-2.2C100.2,91.2,100.5,91,100.8,90.9z"/>
<path class="st17" d="M96.3,108.9H97c0.3,0,0.6,0.3,0.6,0.6l0,0v1.5l0,0h-1.8l0,0v-1.4C95.7,109.2,96,109,96.3,108.9
	C96.3,108.9,96.3,108.9,96.3,108.9z"/>
<path class="st17" d="M99.1,108.9h0.6c0.3,0,0.6,0.3,0.6,0.6l0,0v1.5l0,0h-1.8l0,0v-1.4C98.4,109.2,98.7,109,99.1,108.9
	C99,108.9,99,108.9,99.1,108.9z"/>
<path class="st23" d="M94.8,90.9h0.6c0.3,0,0.6,0.3,0.6,0.6l0,0v2.2l0,0h-1.8l0,0v-2.2C94.2,91.2,94.5,90.9,94.8,90.9z"/>
<path class="st22" d="M96.5,90.4h0.2c0.1,0,0.2,0.1,0.2,0.2v3.5c0,0.1-0.1,0.2-0.2,0.2h-0.2c-0.1,0-0.2-0.1-0.2-0.2v-3.5
	C96.3,90.5,96.3,90.4,96.5,90.4z"/>
<path class="st22" d="M99.6,90.3h0.2c0.1,0,0.2,0.1,0.2,0.2v3.5c0,0.1-0.1,0.2-0.2,0.2h-0.2c-0.1,0-0.2-0.1-0.2-0.2v-3.5
	C99.4,90.3,99.4,90.3,99.6,90.3z"/>
<path class="st16" d="M68.9,82h0.4c0.2,0,0.3,0.1,0.3,0.3v6c0,0.2-0.1,0.3-0.3,0.3h-0.4c-0.2,0-0.3-0.1-0.3-0.3v-6
	C68.5,82.2,68.7,82,68.9,82z"/>
<path class="st16" d="M70.6,82h0.4c0.2,0,0.3,0.1,0.3,0.3v6c0,0.2-0.1,0.3-0.3,0.3h-0.4c-0.2,0-0.3-0.1-0.3-0.3v-6
	C70.3,82.2,70.5,82,70.6,82z"/>
<path class="st21" d="M69.1,76.3h1.8c0.4,0,0.8,0.3,0.8,0.8v9l0,0h-3.3l0,0v-9C68.4,76.6,68.7,76.3,69.1,76.3z"/>
<path class="st16" d="M67.8,76.8h0.4c0.2,0,0.3,0.1,0.3,0.3v6c0,0.2-0.1,0.3-0.3,0.3h-0.4c-0.2,0-0.3-0.1-0.3-0.3v-6
	C67.5,77,67.6,76.8,67.8,76.8z"/>
<path class="st16" d="M71.8,76.8h0.4c0.2,0,0.3,0.1,0.3,0.3v6c0,0.2-0.1,0.3-0.3,0.3h-0.4c-0.2,0-0.3-0.1-0.3-0.3v-6
	C71.5,77,71.6,76.8,71.8,76.8z"/>
<ellipse class="st16" cx="70" cy="74.3" rx="1.4" ry="2.4"/>
<path class="st17" d="M69,87.8L69,87.8c0.3,0,0.6,0.3,0.6,0.6l0,0v0.7l0,0h-1.2l0,0v-0.7C68.4,88.1,68.7,87.8,69,87.8z"/>
<path class="st17" d="M70.9,87.8L70.9,87.8c0.3,0,0.6,0.3,0.6,0.6l0,0v0.7l0,0h-1.2l0,0v-0.7C70.3,88.1,70.5,87.8,70.9,87.8
	L70.9,87.8z"/>
<path class="st19" d="M69.2,71.3c-0.5,0.2-0.9,0.7-1.1,1.2c-0.1,0.2-0.2,0.5-0.2,0.7c0,0.3,0,0.6,0,0.9l0.3-0.4
	c-0.1,0-0.4,0-0.6,0.1l0.7,0.9c0.3-0.4,0.4-0.8,0.3-1.2c-0.1-0.8-1.3-0.8-1.3,0s-0.6,2,0.6,2.4c0.3,0.1,0.7-0.1,0.8-0.4
	c0,0,0-0.1,0-0.2V75c0.1-0.8-1.2-0.8-1.3,0v0.4l0.8-0.6c0.4,0.2,0.4-1,0.4-1.2h-1.2c0,0.2,0,0.4-0.2,0.6c-0.3,0.5,0.2,1,0.7,0.9
	c0.3-0.1,0.6,0,0.8-0.2c0.2-0.1,0.3-0.4,0.3-0.7c0-0.8-0.1-1.4,0.7-1.8S69.9,71,69.2,71.3z"/>
<path class="st19" d="M69.5,72.4c0.5,0.4,1,0.3,1.3,1c0.1,0.2,0.2,0.4,0.3,0.7c0.1,0.1,0,0.3,0.1,0.4c0.2,0.3-0.1,0.3,0.4,0.1
	l0.8,0.4v-0.1c0.1-0.8-1.1-1.1-1.2-0.3c0,0.3,0,0.5,0,0.8c0.1,0.3,0.4,0.5,0.8,0.4c0.5-0.1,0.8-0.5,0.7-1c0-0.2-0.1-0.5-0.2-0.7
	c0-0.3-0.1-0.5-0.3-0.7c-0.2-0.5-0.4-0.9-0.7-1.3c-0.4-0.4-0.9-0.5-1.3-0.8C69.5,70.7,68.9,71.8,69.5,72.4L69.5,72.4z"/>
<path class="st19" d="M70.8,73.7c0.3,0.1,0-0.2,0.1-0.2C70.8,73.6,70.8,73.7,70.8,73.7c-0.1,0.3,0,0.6,0.1,0.8
	c0.2,0.4,0.4,0.4-0.1,0.6c-0.3,0.2-0.4,0.6-0.2,0.8c0.1,0.1,0.1,0.2,0.2,0.2c0.3,0.1,0.6,0.2,0.8,0.2L71.5,75c-0.1,0-0.3,0-0.4,0
	c-0.8-0.1-1.1,1.1-0.3,1.2c0.3,0.1,0.7,0.1,1,0c0.7-0.2,0.5-1.3-0.2-1.2c-0.1,0-0.1,0-0.2,0V76c0.7-0.3,1.1-1,0.8-1.7
	c0-0.1,0-0.1-0.1-0.1c0-0.1-0.1-0.2-0.2-0.2c-0.2-0.2,0,0,0,0.1c0.1-0.2,0.1-0.3,0.1-0.5c0-0.4-0.3-0.8-0.7-0.9
	C70.7,72.2,70.1,73.3,70.8,73.7L70.8,73.7z"/>
<path class="st19" d="M68.1,75.6L68.1,75.6L68,75.2v0.1l0.3-0.4c0.2,0,0.1-0.1-0.1,0l-0.3-0.1l0.3,1c-0.3,0.1-0.3,0.1-0.1,0.2
	l0.3,0.2c0.7,0.4,1.3-0.7,0.6-1.1s-1.2-0.8-1.8-0.2c-0.2,0.3-0.2,0.7,0.1,0.9c0.1,0,0.1,0.1,0.2,0.1c0.4,0.1,1.1,0.3,1.4-0.1
	c0.3-0.3,0.4-0.7,0.1-1.1c0,0-0.1-0.1-0.1-0.1C68.4,74.1,67.5,75,68.1,75.6L68.1,75.6z"/>
<line class="st24" x1="103.3" y1="93.7" x2="100.6" y2="108"/>
<path class="st25" d="M103.6,92.7h1.7c0.3,0,0.6,0.2,0.6,0.6v0c0,0.3-0.2,0.6-0.6,0.6h-1.7c-0.3,0-0.6-0.2-0.6-0.6v0
	C103,92.9,103.2,92.7,103.6,92.7z"/>
</svg>
