<svg id="Ebene_1" data-name="Ebene 1" xmlns="http://www.w3.org/2000/svg" viewBox="0 0 141.73 141.73"><defs><style>.cls-1,.cls-13{fill:#e3d599;}.cls-1,.cls-10,.cls-11,.cls-12,.cls-13,.cls-14,.cls-15,.cls-16,.cls-17,.cls-18,.cls-19,.cls-2,.cls-20,.cls-6{stroke:#fff;stroke-miterlimit:10;}.cls-1,.cls-10,.cls-11,.cls-12,.cls-2,.cls-6{stroke-width:2px;}.cls-2{fill:#666047;}.cls-10,.cls-11,.cls-12,.cls-13,.cls-14,.cls-15,.cls-16,.cls-17,.cls-18,.cls-19,.cls-2,.cls-20,.cls-6{stroke-linecap:round;}.cls-19,.cls-3{fill:#fff;}.cls-11,.cls-4{fill:#646463;}.cls-5{fill:#96c347;}.cls-6,.cls-7{fill:#bfbebe;}.cls-8{fill:#942b2b;}.cls-9{fill:#e84241;}.cls-10{fill:none;}.cls-12{fill:#111110;}.cls-13,.cls-14,.cls-15,.cls-16,.cls-17,.cls-18,.cls-19,.cls-20{stroke-width:0.25px;}.cls-14{fill:#d1b95a;}.cls-15{fill:#f8aa16;}.cls-17{fill:#e84143;}.cls-18{fill:#42bac1;}.cls-20{fill:#e84343;}</style></defs><title>Zeichenfläche 1 Kopie 2</title><polygon class="cls-1" points="127.29 81.96 18.56 81.96 3.61 115.56 140.27 116.02 127.29 81.96"/><path class="cls-2" d="M79.27,57.49h0a2.25,2.25,0,0,1,2.25,2.25V89.32a.17.17,0,0,1-.17.17H77.65a.63.63,0,0,1-.63-.63V59.74a2.25,2.25,0,0,1,2.25-2.25Z"/><path class="cls-3" d="M77.76,58C72.08,57.91,72.85,45.1,73,41.51c0-.81-1.22-.8-1.25,0-.15,4.34-.87,17.64,6,17.72a.63.63,0,0,0,0-1.25Z"/><path class="cls-3" d="M72.81,53.52a6.92,6.92,0,0,0,7.73-6.86.63.63,0,0,0-1.25,0,5.68,5.68,0,0,1-6.48,5.61c-.8-.08-.79,1.17,0,1.25Z"/><path class="cls-3" d="M82.08,58.85c6.65-.8,8.52-7.56,9.48-13.2.14-.79-1.07-1.13-1.2-.33-.85,4.94-2.26,11.56-8.28,12.28-.79.1-.8,1.35,0,1.25Z"/><path class="cls-3" d="M86.55,55.55a6.26,6.26,0,0,1-1.67-3.39c-.13-.8-1.34-.46-1.21.33a7.5,7.5,0,0,0,2,3.94c.56.58,1.44-.3.89-.88Z"/><path class="cls-3" d="M73.44,55.28a6.66,6.66,0,0,1-6.06-5.46c-.15-.79-1.35-.45-1.2.33a7.89,7.89,0,0,0,7.26,6.38c.81,0,.8-1.2,0-1.25Z"/><path class="cls-3" d="M90,50.54a6,6,0,0,0,6.58-3.21c.35-.72-.73-1.36-1.07-.63a4.75,4.75,0,0,1-5.18,2.64c-.78-.16-1.12,1-.33,1.2Z"/><path class="cls-3" d="M82.48,42.32a6.78,6.78,0,0,0,7.46,6.61c.79-.08.8-1.33,0-1.25a5.53,5.53,0,0,1-6.21-5.36c0-.8-1.28-.8-1.25,0Z"/><path class="cls-3" d="M84.72,57.81a3.7,3.7,0,0,0,4.75,2.52c.75-.27.43-1.48-.33-1.2a2.47,2.47,0,0,1-3.22-1.65.62.62,0,0,0-1.2.33Z"/><path class="cls-3" d="M71.94,44.37A5.45,5.45,0,0,1,67.1,42c-.45-.66-1.53,0-1.08.63a6.72,6.72,0,0,0,5.92,2.95c.8,0,.81-1.29,0-1.25Z"/><path class="cls-4" d="M98,87.05a1.26,1.26,0,0,1,2,.44c.18.43.89.7,1.14.15a1.58,1.58,0,0,1,2.88-.27c.44.67,1.52,0,1.08-.63a2.83,2.83,0,0,0-5,.27l1.15.15A2.5,2.5,0,0,0,97.33,86c-.65.46,0,1.54.63,1.07Z"/><path class="cls-4" d="M101.52,86a2.54,2.54,0,1,0-5-1c-.13.79,1.08,1.13,1.21.34a1.41,1.41,0,0,1,1.44-1.25,1.37,1.37,0,0,1,1.13,1.57c-.14.79,1.06,1.13,1.2.33Z"/><path class="cls-4" d="M98.1,93.25a1.51,1.51,0,0,1,2.14,1.69.63.63,0,0,0,.94.54c1.08-.7,1.61,1,1.82,1.7a.62.62,0,0,0,1.2-.34c-.45-1.55-1.77-3.65-3.65-2.44l.94.54a2.73,2.73,0,0,0-3.72-2.89c-.75.28-.42,1.48.33,1.2Z"/><path class="cls-4" d="M102.64,94.63A1.25,1.25,0,0,1,104.1,94a.62.62,0,0,0,.33-1.2A2.51,2.51,0,0,0,101.56,94c-.37.72.71,1.35,1.08.63Z"/><path class="cls-4" d="M113.85,86.33c.87-.15,1.45.45,2,1a.63.63,0,0,0,1-.13,1.28,1.28,0,0,1,2.12-.35c.57.57,1.46-.32.88-.88a2.5,2.5,0,0,0-4.07.6l1-.12a3.58,3.58,0,0,0-3.22-1.29c-.79.13-.45,1.34.33,1.2Z"/><path class="cls-4" d="M117.21,86.24a4,4,0,0,0-1.73-3.06c-.67-.46-1.29.63-.64,1.08a2.6,2.6,0,0,1,1.12,2c.05.8,1.3.8,1.25,0Z"/><path class="cls-4" d="M114.34,94.58a2.87,2.87,0,0,1,2.15.71c.31.28.52.66,1,.68,1.34,0,.83-2,2.61-1.46.77.24,1.1-1,.33-1.21a2.48,2.48,0,0,0-3,1.18c-.12.16,0,.22.2.18a3.39,3.39,0,0,0-.51-.49,3.91,3.91,0,0,0-.73-.46,4.18,4.18,0,0,0-2-.38c-.8,0-.81,1.3,0,1.25Z"/><path class="cls-4" d="M118.29,95.23a3.71,3.71,0,0,0-2.34-3.8c-.75-.3-1.07.91-.34,1.21A2.45,2.45,0,0,1,117,95.23c-.09.8,1.16.79,1.25,0Z"/><path class="cls-4" d="M116.62,101.42c.32-.07,1.07-.11,1.3.21s.1.09,0,.28-.29.27-.41.41a2.9,2.9,0,0,0-.63,1.92.63.63,0,0,0,1.25,0,1.86,1.86,0,0,1,.75-1.52,1.27,1.27,0,0,0,.43-1.41c-.43-1.09-2-1.3-3-1.09-.79.16-.46,1.36.33,1.2Z"/><path class="cls-4" d="M119.59,102.13a1.12,1.12,0,0,1,1.51-.19c.67.45,1.3-.64.63-1.08a2.37,2.37,0,0,0-3.22.64c-.48.65.61,1.28,1.08.63Z"/><path class="cls-4" d="M99.35,103.18a2.4,2.4,0,0,1,2.68.93.63.63,0,0,0,1.17-.32,1.12,1.12,0,0,1,2.16-.43c.29.74,1.5.42,1.21-.33a2.36,2.36,0,0,0-4.62.76l1.16-.31A3.67,3.67,0,0,0,99,102a.62.62,0,0,0,.33,1.2Z"/><path class="cls-4" d="M101.38,103.5a1.7,1.7,0,0,1-1.11,1.36c-.76.27-.43,1.48.33,1.21a3,3,0,0,0,2-2.24c.15-.79-1.06-1.12-1.21-.33Z"/><path class="cls-4" d="M116,110a1.52,1.52,0,0,1,1.83,1.15.63.63,0,0,0,1.14.15L121,108c.42-.68-.66-1.31-1.08-.63l-2.06,3.36,1.14.15a2.77,2.77,0,0,0-3.36-2c-.79.18-.45,1.38.33,1.2Z"/><path class="cls-4" d="M120.11,110.28a2.17,2.17,0,0,1,1.47.65.62.62,0,0,0,.88-.88,3.42,3.42,0,0,0-2.35-1c-.81,0-.81,1.21,0,1.25Z"/><path class="cls-4" d="M105.12,108.74v-.14a.59.59,0,0,0-.31-.54.84.84,0,0,0-1,0,17.4,17.4,0,0,0-2,1.75.62.62,0,0,0,.75,1c.57-.36,1.12-.79,1.72-1.1s.56,0,1,.41a1.32,1.32,0,0,0,.76.45c.29.05,1-.29,1.21-.15.64.48,1.27-.6.63-1.08s-.87,0-1.43-.07c-.37,0-.33-.15-.54-.46a2,2,0,0,0-.42-.46c-1.1-.77-2.68.83-3.54,1.38l.76,1c.2-.17,1.77-1.44,1.53-1.6l-.31-.54v.14c-.07.8,1.18.79,1.25,0Z"/><path class="cls-4" d="M105.36,109.06a2.74,2.74,0,0,0-2.11,2,.62.62,0,0,0,1.2.33,1.52,1.52,0,0,1,1.24-1.13c.79-.16.46-1.37-.33-1.21Z"/><path class="cls-5" d="M39.61,79.44a81.6,81.6,0,0,1,13.89.42V76.11l-22.16.47v3.75a75.82,75.82,0,0,1,19.5.78l.5-3.69L30.8,79.61c-2.35.26-2.47,3.73,0,3.75a182.82,182.82,0,0,1,20.92,1.41V81l-22,2.13a1.88,1.88,0,0,0,0,3.75l22,.84V84l-9.6,1.11a1.88,1.88,0,0,0,0,3.75l12.94,1-.5-3.69a67.61,67.61,0,0,1-10.08,1.91,1.88,1.88,0,0,0,0,3.75l14.14.69-.5-3.68a147.89,147.89,0,0,0-16.93,3.4,1.88,1.88,0,0,0,.5,3.68l13.52.45V92.63L39.86,94.25c-2.35.25-2.46,3.67,0,3.75l16,.53V94.78l-18,2c-2.35.26-2.47,3.66,0,3.75l14.28.51-.5-3.69a77.58,77.58,0,0,1-10.31,1.36,1.88,1.88,0,0,0,0,3.75l14.88,1-.49-3.68a56.83,56.83,0,0,1-12.33,1.31v3.75l24.13-.62c2.44-.06,2.38-3.55,0-3.75L24.83,96.86v3.75L61.62,99.2c2-.08,2.67-3.29.49-3.68-9.85-1.79-19.75-3.23-29.69-4.39v3.75L58.6,92.65c2.37-.2,2.45-3.74,0-3.75a153.85,153.85,0,0,1-26.75-2.36l-.5,3.68,19.71-1.3c3.36-.22,8.65.48,10.94-2.5a1.79,1.79,0,0,0,0-1.89C59.39,81,52.65,80.81,48.76,79.9c-3.13-.74-6.29-1.41-9.38-2.33L38.29,78a17.31,17.31,0,0,1,4.18-.55c1.7-.1,3.42,0,5.12.06,2.41.07,2.41-3.68,0-3.75-3.17-.1-11.15-1.14-13.18,2.41s4.26,5.19,6.39,5.75c3.47.9,7,1.65,10.47,2.47,1.47.34,3.66,1.37,5.13,1.23.86.45,1.52.12,2-1-1.18.17-2.37.29-3.56.35-7.81.62-15.65,1-23.47,1.55-2,.13-2.7,3.28-.5,3.68a159.36,159.36,0,0,0,27.75,2.5V88.9L32.42,91.13a1.88,1.88,0,0,0,0,3.75q14.42,1.68,28.7,4.25l.5-3.68L24.83,96.86a1.88,1.88,0,0,0,0,3.75l42.77,3.57v-3.75l-24.13.62c-2.41.06-2.42,3.77,0,3.75a62.1,62.1,0,0,0,13.32-1.44c2.16-.49,1.53-3.55-.5-3.69l-14.88-1v3.75A84.36,84.36,0,0,0,52.72,101c2.14-.44,1.55-3.61-.5-3.68l-14.28-.51v3.75l18-2c2.35-.26,2.47-3.67,0-3.75l-16-.53V98l15.39-1.62c2.36-.25,2.47-3.67,0-3.75l-13.52-.45.5,3.69a145.77,145.77,0,0,1,16.93-3.4c2.18-.32,1.5-3.59-.5-3.69l-14.14-.69v3.75a75.79,75.79,0,0,0,11.08-2c2.12-.58,1.54-3.52-.5-3.68l-12.94-1v3.75l9.6-1.11c2.35-.27,2.47-3.65,0-3.75l-22-.84V86.9l22-2.13a1.88,1.88,0,0,0,0-3.75A182.82,182.82,0,0,0,30.8,79.61v3.75l20.54-2.19c1.91-.2,2.76-3.28.5-3.68a79.55,79.55,0,0,0-20.5-.91c-2.37.2-2.44,3.81,0,3.75l22.16-.47c2.47,0,2.34-3.48,0-3.75a81.6,81.6,0,0,0-13.89-.42c-2.4.13-2.42,3.88,0,3.75Z"/><rect class="cls-6" x="16.25" y="57.78" width="25.5" height="36.37"/><path class="cls-7" d="M62.13,56.74V81.3H42.77V57.55h1.3a.53.53,0,0,0,.44-.81Z"/><path class="cls-8" d="M63.05,55.6a.53.53,0,0,1-.39.89H44.31L43,55,52.37,44.7a.53.53,0,0,1,.78,0Z"/><path class="cls-9" d="M29.26,39,43,55l-.55.61a.53.53,0,0,0,.39.89h1.45l.16.18a.25.25,0,0,1,0,.07H42.77v.81H13.66a.53.53,0,0,1-.4-.88L28.46,39A.52.52,0,0,1,29.26,39Z"/><path class="cls-9" d="M44.51,56.74a.53.53,0,0,1-.44.81h-1.3v-.81Z"/><path class="cls-8" d="M43,55l1.29,1.5H42.86a.53.53,0,0,1-.39-.89Z"/><path class="cls-10" d="M44.31,56.49H62.66a.53.53,0,0,0,.39-.89l-9.9-10.9a.53.53,0,0,0-.78,0L43,55"/><polyline class="cls-10" points="44.51 56.74 62.13 56.74 62.13 81.3 42.77 81.3 42.77 57.55"/><path class="cls-10" d="M43,55,29.26,39a.52.52,0,0,0-.8,0L13.26,56.67a.53.53,0,0,0,.4.88H44.07a.53.53,0,0,0,.44-.81.25.25,0,0,0,0-.07l-.16-.18Z"/><path class="cls-11" d="M52.65,95.49h14.6a1.69,1.69,0,0,1,1.69,1.69v4.15a7,7,0,0,1-7,7H57.27a7,7,0,0,1-7-7V97.86a2.38,2.38,0,0,1,2.38-2.38Z"/><ellipse class="cls-12" cx="59.61" cy="95.24" rx="8.5" ry="3.58"/><ellipse class="cls-13" cx="85.19" cy="42.6" rx="1.24" ry="0.66" transform="translate(-9.54 32.68) rotate(-20.59)"/><ellipse class="cls-13" cx="81.52" cy="41.51" rx="0.66" ry="1.24" transform="translate(4.81 91.36) rotate(-60)"/><ellipse class="cls-13" cx="89.21" cy="58.23" rx="1.24" ry="0.66" transform="translate(-3.25 111.15) rotate(-62.92)"/><ellipse class="cls-13" cx="65.64" cy="51.12" rx="1.24" ry="0.66" transform="translate(-13.78 26.35) rotate(-20.59)"/><ellipse class="cls-13" cx="74.09" cy="42.56" rx="1.24" ry="0.66" transform="translate(-10.23 28.77) rotate(-20.59)"/><rect class="cls-14" x="33.97" y="95.91" width="1.52" height="9.15" rx="0.33" ry="0.33"/><rect class="cls-14" x="36.44" y="95.91" width="1.52" height="9.15" rx="0.33" ry="0.33"/><path class="cls-15" d="M34.47,88h3a.77.77,0,0,1,.77.77v12.59a0,0,0,0,1,0,0H33.68a0,0,0,0,1,0,0V88.75A.79.79,0,0,1,34.47,88Z"/><rect class="cls-14" x="32.52" y="88.79" width="1.52" height="9.15" rx="0.33" ry="0.33"/><rect class="cls-14" x="38.05" y="88.79" width="1.52" height="9.15" rx="0.33" ry="0.33"/><ellipse class="cls-14" cx="35.97" cy="85.3" rx="2" ry="3.24"/><path class="cls-16" d="M34.43,103.85h.49a.61.61,0,0,1,.61.61v1.12a0,0,0,0,1,0,0h-1.7a0,0,0,0,1,0,0v-1.12A.61.61,0,0,1,34.43,103.85Z"/><path class="cls-16" d="M37,103.85h.49a.61.61,0,0,1,.61.61v1.12a0,0,0,0,1,0,0h-1.7a0,0,0,0,1,0,0v-1.12A.61.61,0,0,1,37,103.85Z"/><path class="cls-4" d="M35,81.41a3,3,0,0,0-1.59,1.83,4.13,4.13,0,0,0-.16,1.36,3.42,3.42,0,0,0,0,.45l.14-.18c-.22,0-.44,0-.67,0l.71.92a2.18,2.18,0,0,0,.44-1.58c-.08-.79-1.29-.82-1.25,0,0,1.09-.87,2.58.58,3.1a.63.63,0,0,0,.79-.61l.07-.53c.1-.8-1.16-.79-1.25,0l-.07.53.8-.6c.24.09.33-1.77.33-1.89H32.67a1.3,1.3,0,0,1-.27,1c-.35.47.22,1,.7.92.66-.14,1.4,0,1.47-.91.08-1.13-.19-2.12,1.07-2.72.72-.35.09-1.43-.63-1.08Z"/><path class="cls-4" d="M35.48,82.41a4.33,4.33,0,0,0,.9.42,1.62,1.62,0,0,1,.94,1.11c.11.29.74,2,1,2l.77.43V86c.11-.79-1.09-1.13-1.2-.33a2.58,2.58,0,0,0,0,1,.62.62,0,0,0,.76.44,1,1,0,0,0,.8-1.07,4.41,4.41,0,0,0-.59-1.88,13,13,0,0,0-1-1.76c-.52-.57-1.22-.62-1.79-1s-1.26.59-.63,1.08Z"/><path class="cls-4" d="M37.23,84.17c.28.13.14.14.09.41a1.1,1.1,0,0,0,.11.71c.08.18.34.4.35.6s-.3.41-.53.51a.63.63,0,0,0,0,1.08,1.86,1.86,0,0,0,1.06.21l-.17-1.22a1.47,1.47,0,0,1-.66,0c-.79-.15-1.13,1.06-.33,1.21a3.09,3.09,0,0,0,1.32,0c.67-.15.55-1.3-.16-1.23a.58.58,0,0,1-.43,0v1.08a1.64,1.64,0,0,0,1-2.29c-.07-.13-.26-.41-.26-.42,0-.2.15-.38.14-.59a1.33,1.33,0,0,0-.86-1.09c-.72-.34-1.36.74-.63,1.08Z"/><path class="cls-4" d="M33.51,86.93l.09.1-.07-.48,0,.12.28-.37c.1-.07-.21,0-.26,0a4.54,4.54,0,0,1-.51-.09l.28,1c-.19,0-.2.08,0,.14l.2.13.48.31c.68.43,1.31-.65.63-1.08s-1.47-1.08-2.16-.38a.62.62,0,0,0,.27,1,2.46,2.46,0,0,0,1.69,0,.81.81,0,0,0,0-1.35c-.59-.55-1.47.33-.88.88Z"/><rect class="cls-14" x="29.42" y="100.4" width="1.13" height="6.48" rx="0.33" ry="0.33"/><rect class="cls-14" x="31.25" y="100.4" width="1.13" height="6.48" rx="0.33" ry="0.33"/><path class="cls-17" d="M30,94.77h1.83a.77.77,0,0,1,.77.77v8.69a0,0,0,0,1,0,0H29.2a0,0,0,0,1,0,0V95.56A.79.79,0,0,1,30,94.77Z"/><rect class="cls-14" x="28.34" y="95.36" width="1.13" height="6.48" rx="0.33" ry="0.33"/><rect class="cls-14" x="32.45" y="95.36" width="1.13" height="6.48" rx="0.33" ry="0.33"/><ellipse class="cls-14" cx="30.9" cy="92.89" rx="1.48" ry="2.3"/><path class="cls-15" d="M29.92,106h0a.61.61,0,0,1,.61.61v.62a0,0,0,0,1,0,0H29.31a0,0,0,0,1,0,0v-.62A.61.61,0,0,1,29.92,106Z"/><path class="cls-15" d="M31.79,106h0a.61.61,0,0,1,.61.61v.62a0,0,0,0,1,0,0H31.19a0,0,0,0,1,0,0v-.62A.61.61,0,0,1,31.79,106Z"/><path class="cls-4" d="M29.33,90.2a3.52,3.52,0,0,0-.87,3,.62.62,0,0,0,1.2-.34,2.56,2.56,0,0,1,.75-2.07c.47-.66-.62-1.28-1.08-.63Z"/><path class="cls-4" d="M30.34,91c.37.08.9.15,1.12.5a5,5,0,0,1,.36,1.63c.14.79,1.34.45,1.2-.34a4.51,4.51,0,0,0-.65-2.16,2.86,2.86,0,0,0-1.7-.83c-.78-.17-1.12,1-.33,1.2Z"/><rect class="cls-18" x="39.06" y="101.02" width="1.08" height="6.42" rx="0.33" ry="0.33"/><rect class="cls-18" x="40.83" y="101.02" width="1.08" height="6.42" rx="0.33" ry="0.33"/><path class="cls-19" d="M39.65,95.44h1.7a.77.77,0,0,1,.77.77v4.61a1.63,1.63,0,0,1-1.63,1.63h0a1.63,1.63,0,0,1-1.63-1.63V96.23A.79.79,0,0,1,39.65,95.44Z"/><rect class="cls-14" x="38.03" y="96.02" width="1.08" height="6.42" rx="0.33" ry="0.33"/><rect class="cls-14" x="41.97" y="96.02" width="1.08" height="6.42" rx="0.33" ry="0.33"/><ellipse class="cls-14" cx="40.49" cy="93.58" rx="1.42" ry="2.28"/><path class="cls-20" d="M38.57,95.85h0a.61.61,0,0,1,.61.61v1.09a0,0,0,0,1,0,0H38a0,0,0,0,1,0,0V96.46A.61.61,0,0,1,38.57,95.85Z"/><path class="cls-20" d="M42.52,95.85h0a.61.61,0,0,1,.61.61v1.09a0,0,0,0,1,0,0H41.91a0,0,0,0,1,0,0V96.46A.61.61,0,0,1,42.52,95.85Z"/><path class="cls-20" d="M39.57,106.59h0a.61.61,0,0,1,.61.61v.61a0,0,0,0,1,0,0H39a0,0,0,0,1,0,0v-.61A.61.61,0,0,1,39.57,106.59Z"/><path class="cls-20" d="M41.37,106.59h0a.61.61,0,0,1,.61.61v.61a0,0,0,0,1,0,0H40.76a0,0,0,0,1,0,0v-.61A.61.61,0,0,1,41.37,106.59Z"/></svg>