<svg id="Ebene_1" data-name="Ebene 1" xmlns="http://www.w3.org/2000/svg" viewBox="0 0 141.73 141.73"><defs><style>.cls-1{fill:#e3d599;}.cls-1,.cls-11,.cls-12,.cls-13,.cls-2,.cls-3,.cls-4,.cls-5{stroke:#fff;stroke-miterlimit:10;}.cls-1,.cls-11,.cls-2,.cls-3,.cls-4,.cls-5{stroke-width:2px;}.cls-10,.cls-2{fill:#bfbebe;}.cls-11,.cls-12,.cls-13,.cls-2,.cls-3,.cls-4,.cls-5{stroke-linecap:round;}.cls-12,.cls-3,.cls-7{fill:#646463;}.cls-4{fill:#111110;}.cls-5{fill:#666047;}.cls-6{fill:#fff;}.cls-8{fill:#942b2b;}.cls-9{fill:#e84241;}.cls-11,.cls-13{fill:none;}.cls-13{stroke-width:0.25px;}</style></defs><title>Zeichenfläche 1 Kopie 3</title><polygon class="cls-1" points="126.22 82.94 17.49 82.94 2.53 116.54 139.2 116.99 126.22 82.94"/><rect class="cls-2" x="16.89" y="58.64" width="25.5" height="36.37"/><path class="cls-3" d="M53.3,96.35H67.9A1.69,1.69,0,0,1,69.59,98v4.15a7,7,0,0,1-7,7H57.92a7,7,0,0,1-7-7V98.72a2.38,2.38,0,0,1,2.38-2.38Z"/><ellipse class="cls-4" cx="60.25" cy="96.1" rx="8.5" ry="3.58"/><path class="cls-5" d="M79.92,58.35h0a2.25,2.25,0,0,1,2.25,2.25V90.18a.17.17,0,0,1-.17.17H78.3a.63.63,0,0,1-.63-.63V60.6a2.25,2.25,0,0,1,2.25-2.25Z"/><path class="cls-6" d="M78.41,58.84C72.72,58.77,73.5,46,73.63,42.37c0-.81-1.22-.8-1.25,0-.15,4.34-.87,17.64,6,17.72a.63.63,0,0,0,0-1.25Z"/><path class="cls-6" d="M73.46,54.38a6.9,6.9,0,0,0,7.72-6.86.63.63,0,0,0-1.25,0,5.67,5.67,0,0,1-6.47,5.61c-.8-.08-.79,1.17,0,1.25Z"/><path class="cls-6" d="M82.72,59.71c6.66-.8,8.53-7.56,9.49-13.2.14-.79-1.07-1.13-1.2-.33-.85,4.94-2.27,11.56-8.29,12.28-.79.1-.79,1.35,0,1.25Z"/><path class="cls-6" d="M87.2,56.41A6.3,6.3,0,0,1,85.53,53c-.14-.8-1.34-.46-1.21.33a7.5,7.5,0,0,0,2,3.94c.56.58,1.44-.3.89-.88Z"/><path class="cls-6" d="M74.09,56.14A6.65,6.65,0,0,1,68,50.68c-.15-.79-1.35-.45-1.21.33a7.91,7.91,0,0,0,7.27,6.38c.8,0,.8-1.2,0-1.25Z"/><path class="cls-6" d="M90.6,51.4a6,6,0,0,0,6.58-3.21c.35-.72-.73-1.36-1.08-.63a4.73,4.73,0,0,1-5.17,2.64c-.78-.16-1.12,1-.33,1.2Z"/><path class="cls-6" d="M83.13,43.18a6.77,6.77,0,0,0,7.46,6.61c.79-.08.8-1.33,0-1.25a5.53,5.53,0,0,1-6.21-5.36c0-.8-1.28-.8-1.25,0Z"/><path class="cls-6" d="M85.37,58.67a3.7,3.7,0,0,0,4.75,2.52c.75-.27.42-1.48-.33-1.21a2.45,2.45,0,0,1-3.22-1.64.62.62,0,0,0-1.2.33Z"/><path class="cls-6" d="M72.59,45.23a5.42,5.42,0,0,1-4.84-2.34c-.45-.65-1.54,0-1.08.64a6.71,6.71,0,0,0,5.92,2.95c.8,0,.8-1.29,0-1.25Z"/><path class="cls-7" d="M98.61,87.91a1.25,1.25,0,0,1,2,.44c.18.43.89.7,1.14.15a1.58,1.58,0,0,1,2.88-.27c.43.67,1.52,0,1.08-.63a2.83,2.83,0,0,0-5,.27l1.14.15A2.5,2.5,0,0,0,98,86.83c-.65.47,0,1.55.63,1.08Z"/><path class="cls-7" d="M98.75,94.11a1.5,1.5,0,0,1,2.13,1.69.63.63,0,0,0,.94.54c1.09-.7,1.62,1,1.83,1.7a.62.62,0,0,0,1.2-.34c-.46-1.55-1.78-3.65-3.66-2.44l.94.54a2.72,2.72,0,0,0-3.71-2.89c-.75.27-.43,1.48.33,1.2Z"/><path class="cls-7" d="M114.5,87.19c.87-.15,1.44.45,2,1a.63.63,0,0,0,1-.13,1.27,1.27,0,0,1,2.11-.35c.58.57,1.46-.32.89-.88a2.51,2.51,0,0,0-4.08.6l1-.12A3.56,3.56,0,0,0,114.17,86c-.79.13-.46,1.34.33,1.2Z"/><path class="cls-7" d="M115,95.44a2.88,2.88,0,0,1,2.16.71c.3.28.52.66,1,.68,1.34,0,.83-2,2.61-1.46.77.24,1.09-1,.33-1.21a2.47,2.47,0,0,0-3,1.18c-.12.16-.06.22.2.18a3.39,3.39,0,0,0-.51-.49,4.27,4.27,0,0,0-.73-.46,4.2,4.2,0,0,0-2-.38c-.8,0-.8,1.3,0,1.25Z"/><path class="cls-7" d="M117.27,102.28c.32-.07,1.07-.11,1.3.21s.09.09,0,.28-.29.27-.41.41a2.91,2.91,0,0,0-.64,1.92.63.63,0,0,0,1.25,0,1.89,1.89,0,0,1,.76-1.52,1.25,1.25,0,0,0,.42-1.41c-.43-1.09-2-1.3-3-1.1-.78.17-.45,1.37.34,1.21Z"/><path class="cls-7" d="M100,104a2.4,2.4,0,0,1,2.68.93.63.63,0,0,0,1.17-.32,1.12,1.12,0,0,1,2.16-.43c.29.74,1.5.42,1.2-.33a2.36,2.36,0,0,0-4.61.76l1.16-.31a3.7,3.7,0,0,0-4.09-1.51A.63.63,0,0,0,100,104Z"/><path class="cls-7" d="M120.75,111.14a2.17,2.17,0,0,1,1.48.65.62.62,0,0,0,.88-.88,3.43,3.43,0,0,0-2.36-1c-.8,0-.8,1.21,0,1.25Z"/><path class="cls-7" d="M105.77,109.6v-.14a.63.63,0,0,0-.31-.54.84.84,0,0,0-1,0,17.5,17.5,0,0,0-2,1.75c-.53.47.17,1.37.76,1s1.12-.79,1.71-1.1.57,0,1,.41a1.3,1.3,0,0,0,.75.45c.3.05,1-.29,1.21-.15.65.48,1.27-.61.64-1.08s-.87,0-1.43-.07c-.37,0-.33-.16-.55-.46a2,2,0,0,0-.41-.46c-1.11-.77-2.69.83-3.54,1.38l.76,1c.19-.17,1.77-1.44,1.53-1.6l-.31-.54v.14c-.08.8,1.18.79,1.25,0Z"/><path class="cls-8" d="M45,57.35H43.51a.53.53,0,0,1-.39-.89l.55-.61Z"/><path class="cls-9" d="M45.16,57.6a.53.53,0,0,1-.44.81h-1.3V57.6Z"/><path class="cls-9" d="M45.12,57.53a.25.25,0,0,1,0,.07H43.42v.81H14.31a.53.53,0,0,1-.4-.88l15.2-17.65a.52.52,0,0,1,.8,0l3.49,4L31,45.8l5.6,1.81,7.1,8.24-.55.61a.53.53,0,0,0,.39.89H45Z"/><path class="cls-10" d="M62.78,57.6V82.16H43.42V58.41h1.3a.53.53,0,0,0,.44-.81Z"/><path class="cls-8" d="M53.8,45.56l9.9,10.9a.53.53,0,0,1-.39.89H45l-1.29-1.5L53,45.56A.53.53,0,0,1,53.8,45.56Z"/><path class="cls-11" d="M45,57.35H63.31a.53.53,0,0,0,.39-.89l-9.9-10.9a.53.53,0,0,0-.78,0L43.67,55.85"/><polyline class="cls-11" points="45.16 57.6 62.78 57.6 62.78 82.16 43.42 82.16 43.42 58.41"/><polyline class="cls-11" points="36.57 47.61 30.97 45.8 33.4 43.92"/><path class="cls-11" d="M33.4,43.92l-3.49-4a.52.52,0,0,0-.8,0L13.91,57.53a.53.53,0,0,0,.4.88H44.72a.53.53,0,0,0,.44-.81.25.25,0,0,0,0-.07L45,57.35l-1.29-1.5-7.1-8.24"/><path class="cls-12" d="M15.46,105.75c0-4.35.74-7.65,3.65-7.65s3.6,3.74,3.6,8.09-.71,1.48-3.62,1.48S15.46,110.1,15.46,105.75Z"/><line class="cls-13" x1="19.09" y1="100.66" x2="19.09" y2="104.81"/><line class="cls-13" x1="17.96" y1="101.82" x2="20.22" y2="101.82"/><path class="cls-12" d="M27.3,105.05c0-4.35.73-7.64,3.64-7.64s3.61,3.74,3.61,8.09S33.83,107,30.92,107,27.3,109.4,27.3,105.05Z"/><line class="cls-13" x1="30.92" y1="99.97" x2="30.92" y2="104.12"/><line class="cls-13" x1="29.79" y1="101.13" x2="32.05" y2="101.13"/></svg>