<svg id="Ebene_1" data-name="Ebene 1" xmlns="http://www.w3.org/2000/svg" viewBox="0 0 141.73 141.73"><defs><style>.cls-1,.cls-11,.cls-19{fill:#96c347;}.cls-1,.cls-10,.cls-11,.cls-12,.cls-17,.cls-18,.cls-19,.cls-2,.cls-20,.cls-21,.cls-22,.cls-24,.cls-25,.cls-26,.cls-27,.cls-3,.cls-4,.cls-5{stroke:#fff;}.cls-1,.cls-10,.cls-11,.cls-12,.cls-14,.cls-17,.cls-18,.cls-19,.cls-2,.cls-20,.cls-21,.cls-22,.cls-24,.cls-25,.cls-26,.cls-27,.cls-28,.cls-3,.cls-4,.cls-5{stroke-miterlimit:10;}.cls-1,.cls-10,.cls-2,.cls-3,.cls-4,.cls-5{stroke-width:2px;}.cls-2,.cls-7{fill:#bfbebe;}.cls-10,.cls-11,.cls-12,.cls-18,.cls-19,.cls-2,.cls-20,.cls-21,.cls-22,.cls-24,.cls-25,.cls-26,.cls-27,.cls-28,.cls-3,.cls-4,.cls-5{stroke-linecap:round;}.cls-23,.cls-27,.cls-3{fill:#646463;}.cls-4{fill:#017871;}.cls-28,.cls-5{fill:#4c4835;}.cls-24,.cls-6{fill:#fff;}.cls-17,.cls-8{fill:#942b2b;}.cls-9{fill:#e84241;}.cls-10{fill:none;}.cls-12{fill:#e84143;}.cls-12,.cls-14,.cls-17,.cls-18,.cls-19,.cls-20,.cls-21,.cls-22,.cls-24,.cls-25,.cls-26,.cls-27{stroke-width:0.25px;}.cls-13{fill:#e3d599;}.cls-14{fill:#f8aa12;stroke:#fdfdfd;}.cls-15{fill:#739b2d;}.cls-16{fill:#505b37;}.cls-18{fill:#42bac1;}.cls-20{fill:#d1b95a;}.cls-22{fill:#f8aa16;}.cls-25{fill:#e84343;}.cls-26{fill:#018e8a;}.cls-28{stroke:#4c4835;stroke-width:0.5px;}</style></defs><title>Zeichenfläche 1 Kopie</title><polygon class="cls-1" points="128.06 81.47 19.33 81.47 4.38 115.07 141.04 115.53 128.06 81.47"/><rect class="cls-2" x="19.36" y="59.27" width="25.5" height="36.37"/><path class="cls-3" d="M55.76,97h14.6A1.69,1.69,0,0,1,72,98.66v4.15a7,7,0,0,1-7,7H60.38a7,7,0,0,1-7-7V99.35A2.38,2.38,0,0,1,55.76,97Z"/><ellipse class="cls-4" cx="62.72" cy="96.72" rx="8.5" ry="3.58"/><path class="cls-5" d="M82.38,59h0a2.25,2.25,0,0,1,2.25,2.25V90.81a.17.17,0,0,1-.17.17H80.76a.63.63,0,0,1-.63-.63V61.22A2.25,2.25,0,0,1,82.38,59Z"/><path class="cls-6" d="M80.87,59.46C75.19,59.4,76,46.58,76.09,43c0-.81-1.22-.81-1.25,0-.15,4.33-.87,17.63,6,17.71a.63.63,0,0,0,0-1.25Z"/><path class="cls-6" d="M85.19,60.34c6.65-.81,8.52-7.57,9.48-13.2.14-.79-1.07-1.13-1.2-.34-.85,4.94-2.27,11.56-8.28,12.29-.79.09-.8,1.35,0,1.25Z"/><path class="cls-6" d="M76.55,56.76a6.64,6.64,0,0,1-6.06-5.45c-.15-.79-1.35-.46-1.21.33A7.89,7.89,0,0,0,76.55,58c.81.05.8-1.2,0-1.25Z"/><path class="cls-6" d="M87.83,59.3a3.7,3.7,0,0,0,4.75,2.52c.75-.28.42-1.49-.33-1.21A2.45,2.45,0,0,1,89,59a.62.62,0,0,0-1.2.33Z"/><rect class="cls-7" x="45.88" y="61.22" width="19.36" height="24.56"/><path class="cls-8" d="M45.58,60.08l1-1h.65a.53.53,0,0,0,.4-.88L47.46,58l8-8.83a.53.53,0,0,1,.78,0l9.9,10.9a.53.53,0,0,1-.39.89H46A.53.53,0,0,1,45.58,60.08Z"/><path class="cls-9" d="M46.53,59H16.77a.53.53,0,0,1-.4-.88L31.57,40.5a.52.52,0,0,1,.8,0L47.46,58Z"/><path class="cls-8" d="M47.58,58.15a.53.53,0,0,1-.4.88h-.65l.93-1Z"/><path class="cls-10" d="M46.53,59l-1,1A.53.53,0,0,0,46,61h19.8a.53.53,0,0,0,.39-.89l-9.9-10.9a.53.53,0,0,0-.78,0l-8,8.83"/><rect class="cls-10" x="45.88" y="61.22" width="19.36" height="24.56"/><path class="cls-10" d="M47.46,58,32.37,40.5a.52.52,0,0,0-.8,0L16.37,58.15a.53.53,0,0,0,.4.88H47.18a.53.53,0,0,0,.4-.88Z"/><ellipse class="cls-11" cx="89.55" cy="47.22" rx="15.83" ry="11.75"/><ellipse class="cls-11" cx="76.32" cy="44.94" rx="10.23" ry="6.62"/><ellipse class="cls-11" cx="68.3" cy="51.13" rx="8.25" ry="4.32"/><ellipse class="cls-11" cx="95.23" cy="60.12" rx="6.14" ry="3.25"/><circle class="cls-12" cx="97.28" cy="52.24" r="1.6"/><circle class="cls-12" cx="100.63" cy="43.76" r="1.6"/><circle class="cls-12" cx="90.42" cy="39.51" r="1.6"/><circle class="cls-12" cx="79.27" cy="46.97" r="1.6"/><circle class="cls-12" cx="71.95" cy="43" r="1.6"/><circle class="cls-12" cx="64.49" cy="51.13" r="1.6"/><path class="cls-13" d="M106.85,89.18l3,.25.5-3.68-6.39.7.5,3.68,4.32.4.45-3.43-5.92,2.34a1.88,1.88,0,0,0,.5,3.68,17.73,17.73,0,0,1,5.54,1.06V90.56L103,92.85a1.88,1.88,0,0,0,.49,3.68l6.35.57-.94-3.49-2.77,1.17c-1.5.64-1,3.1.45,3.43l3.73.83-.82-3.13a7.57,7.57,0,0,1-2.67,1.72c-1.88.89-.66,3.29,1,3.49l4.08.51-1-3.49a29,29,0,0,0-5.25,3.75c-1.3,1.16-.18,3.1,1.33,3.2l3.9.28-.5-3.68L106,103.42a1.88,1.88,0,0,0,.5,3.68l4.63.33-.5-3.68-5.18,2.12a1.88,1.88,0,0,0,.5,3.68l4.12.34-1-3.5-2.66,1.31c-1.58.55-2,3.26,0,3.61l4.29.76-.44-3.43a4.81,4.81,0,0,1-3.25,1.28c-2.07.3-1.6,3.94.5,3.68l7-.86c1.93-.24,2.74-3.15.5-3.68l-12.35-3v3.62l10.6-1.77c1.62-.27,1.78-2.7.45-3.43a63.24,63.24,0,0,0-8.88-4v3.61l7.54-2.43a1.88,1.88,0,0,0-.5-3.68A13.78,13.78,0,0,1,105,96.22l-.45,3.42c2.52-.65,8.51-.82,9.56-3.87a4,4,0,0,0-.46-2.91,6.8,6.8,0,0,0-1.51-1.52c-.35-.31-4.51-4.13-3.44-4.09,2.41.1,2.4-3.65,0-3.75-2.92-.12-6.14,1.67-5,5.12.56,1.71,2.45,3,3.85,3.95l1.35,1c2,.38,2.28.67.82.87-1.16,1-4.66,1.2-6.15,1.59a1.9,1.9,0,0,0-.45,3.43,19.13,19.13,0,0,0,8.81,2.29l-.5-3.69-7.54,2.44a1.89,1.89,0,0,0,0,3.61,58.72,58.72,0,0,1,8,3.65l.45-3.43-10.61,1.77c-1.86.31-1.72,3.21,0,3.62l12.35,3,.5-3.68-7,.86.5,3.69a8.71,8.71,0,0,0,4.14-1.66c1.19-.82,1.28-3.12-.45-3.42l-4.29-.76v3.61a12.9,12.9,0,0,0,3.56-1.68,1.89,1.89,0,0,0-1-3.49l-4.12-.34.5,3.69,5.18-2.13a1.88,1.88,0,0,0-.5-3.68l-4.63-.33L107,107l4.44-1.73a1.88,1.88,0,0,0-.5-3.68l-3.9-.28,1.32,3.2a23.12,23.12,0,0,1,4.5-3.16c1.79-1,.74-3.28-1-3.5l-4.08-.51,1,3.5a14.19,14.19,0,0,0,3.42-2.31,1.88,1.88,0,0,0-.83-3.13l-3.73-.84.44,3.43,2.77-1.17c1.89-.81.67-3.35-1-3.5l-6.35-.57.5,3.69,6.33-2.29a1.9,1.9,0,0,0,0-3.62,21.11,21.11,0,0,0-6.54-1.19l.5,3.69,5.92-2.34c1.32-.52,2.07-2.68.45-3.43a10,10,0,0,0-7.22-.77c-2,.47-1.63,3.91.5,3.68l6.39-.7c2-.22,2.67-3.08.5-3.68a11,11,0,0,0-5-.25c-2.38.35-1.37,4,1,3.61Z"/><path class="cls-14" d="M104.92,85.83h.92A1.17,1.17,0,0,1,107,87V88.7a0,0,0,0,1,0,0h-3.25a0,0,0,0,1,0,0V87A1.17,1.17,0,0,1,104.92,85.83Z"/><path class="cls-15" d="M103.93,83.9a8.65,8.65,0,0,1,.91,2,.63.63,0,0,0,1.23-.17,11.35,11.35,0,0,1,.63-3.26c.27-.76-.94-1.08-1.2-.33a12.2,12.2,0,0,0-.68,3.59l1.23-.17a10.59,10.59,0,0,0-1-2.27c-.42-.68-1.5,0-1.08.63Z"/><path class="cls-16" d="M104.16,90.75a8,8,0,0,1,2,1.69c.38.47,1,0,1.06-.44a4.39,4.39,0,0,1,1.27-2.43c.55-.6-.33-1.48-.88-.89A5.8,5.8,0,0,0,106,92l1.07-.44a9,9,0,0,0-2.27-1.89.63.63,0,0,0-.63,1.08Z"/><path class="cls-14" d="M106.55,97.31h.92a1.17,1.17,0,0,1,1.17,1.17v1.71a0,0,0,0,1,0,0h-3.25a0,0,0,0,1,0,0V98.47a1.17,1.17,0,0,1,1.17-1.17Z"/><path class="cls-15" d="M105.56,95.38a8.89,8.89,0,0,1,.91,2,.62.62,0,0,0,1.22-.17,11.36,11.36,0,0,1,.64-3.26c.27-.76-.94-1.08-1.21-.33a12.2,12.2,0,0,0-.68,3.59l1.23-.17a9.89,9.89,0,0,0-1-2.27c-.43-.68-1.51-.06-1.08.63Z"/><path class="cls-14" d="M107.27,103.72h.92a1.17,1.17,0,0,1,1.17,1.17v1.71a0,0,0,0,1,0,0H106.1a0,0,0,0,1,0,0v-1.71A1.17,1.17,0,0,1,107.27,103.72Z"/><path class="cls-15" d="M106.27,101.8a8.39,8.39,0,0,1,.91,2,.63.63,0,0,0,1.23-.16,11,11,0,0,1,.64-3.26c.26-.76-.94-1.09-1.21-.33a12.2,12.2,0,0,0-.68,3.59l1.23-.17a9.52,9.52,0,0,0-1-2.27.63.63,0,0,0-1.08.63Z"/><path class="cls-14" d="M108,108.79h.92a1.17,1.17,0,0,1,1.17,1.17v1.71a0,0,0,0,1,0,0h-3.25a0,0,0,0,1,0,0V110A1.17,1.17,0,0,1,108,108.79Z"/><path class="cls-15" d="M107,106.86a8.39,8.39,0,0,1,.91,2,.63.63,0,0,0,1.23-.16,11.35,11.35,0,0,1,.63-3.26c.27-.76-.93-1.09-1.2-.33a12.2,12.2,0,0,0-.68,3.59l1.23-.17a9.93,9.93,0,0,0-1-2.27c-.42-.68-1.5-.06-1.08.63Z"/><path class="cls-13" d="M119.9,85.35a10.8,10.8,0,0,0-4.68,1.57c-1.91,1.16-.59,3.76,1.44,3.42l6.26-1c2.09-.34,1.59-3.77-.5-3.68a9.74,9.74,0,0,0-6.65,2.65c-1.36,1.17-.12,3,1.33,3.2l6.25.67-.49-3.68A20.54,20.54,0,0,0,117,91.35a1.9,1.9,0,0,0,1,3.5l6.63.51-.5-3.68-5.88,2.24a1.88,1.88,0,0,0,.5,3.68l3,.39-1-3.49-3.32,1.8a1.88,1.88,0,0,0,0,3.24,13.47,13.47,0,0,0,3.88,1.31l-.45-3.42L117,99c-1.51.64-1,3.07.45,3.42a22.44,22.44,0,0,1,5.12,1.85l.45-3.43-3.64,1.31a1.88,1.88,0,0,0,.5,3.68l4.68.48-.5-3.68-4.31,1.55a1.88,1.88,0,0,0,.5,3.68l5.5.67-.5-3.69-3.83,1.42a1.9,1.9,0,0,0,0,3.62,12.73,12.73,0,0,0,3.86.67l-.94-3.49L120.5,109c-1.57.76-1,2.93.45,3.42a8.66,8.66,0,0,0,4.4.5l-.5-3.69-6.84,1,1.44,3.42,10.94-6.14c1.53-.86,1-3.7-.95-3.49l-10.56,1.13,1.33,3.2a55.58,55.58,0,0,1,6.6-5.65,1.9,1.9,0,0,0-1-3.5L118,98.85l.49,3.69A18.71,18.71,0,0,0,126.29,98,1.9,1.9,0,0,0,125,94.79c-1.79,0-3.59.09-5.38.1-2.41,0-1.61.34-.09-1.39,1.32-1.49,3.26-3.68,3.35-5.8.15-3.62-3.36-4.5-6.16-3.59-2.28.74-1.3,4.36,1,3.61,1.76-.57-.92,3.22-.92,3.22-.74,1-1.85,2-2.17,3.26a4,4,0,0,0,.22,3.14c1.72,2.63,7.79,1.25,10.15,1.2l-1.32-3.2a13.31,13.31,0,0,1-6.1,3.58,1.88,1.88,0,0,0,.5,3.68l7.82.33-.94-3.49a61.76,61.76,0,0,0-7.36,6.24c-1.07,1-.35,3.38,1.32,3.2l10.56-1.13-.94-3.5-10.94,6.15c-2,1.11-.53,3.72,1.44,3.42l6.85-1c2.07-.31,1.6-4-.5-3.68a4.72,4.72,0,0,1-3.41-.36l.45,3.43,3.88-1.88c1.8-.88.75-3.38-1-3.5l-2.86-.54v3.62l3.83-1.42a1.88,1.88,0,0,0-.5-3.68l-5.5-.67.5,3.69,4.31-1.56a1.88,1.88,0,0,0-.5-3.68l-4.68-.48.5,3.68,3.63-1.31c1.39-.5,2-2.65.45-3.42a28,28,0,0,0-6-2.22l.45,3.42,3.73-1.58c1.46-.61,1.08-3.16-.44-3.42a7.37,7.37,0,0,1-3-.94v3.24l3.32-1.8c1.82-1,.73-3.27-.94-3.5l-3-.39.5,3.68,5.88-2.24a1.88,1.88,0,0,0-.5-3.68l-6.63-.51.94,3.49a16.35,16.35,0,0,1,5-2.5,1.89,1.89,0,0,0-.5-3.69l-6.25-.67,1.32,3.21,4-1.56-.5-3.68-6.26,1,1.45,3.43,2.79-1.06c2.36-.3,2.39-4,0-3.75Z"/><path class="cls-14" d="M118.92,86.16h.92A1.17,1.17,0,0,1,121,87.33V89a0,0,0,0,1,0,0h-3.25a0,0,0,0,1,0,0V87.33A1.17,1.17,0,0,1,118.92,86.16Z"/><path class="cls-15" d="M117.92,84.24a8.39,8.39,0,0,1,.91,2,.63.63,0,0,0,1.23-.17,11.28,11.28,0,0,1,.63-3.25c.27-.76-.94-1.09-1.2-.33a12.14,12.14,0,0,0-.68,3.58l1.23-.16a10.2,10.2,0,0,0-1-2.28c-.42-.68-1.5,0-1.08.64Z"/><path class="cls-14" d="M119.92,91.31h.92A1.17,1.17,0,0,1,122,92.47v1.71a0,0,0,0,1,0,0h-3.25a0,0,0,0,1,0,0V92.47a1.17,1.17,0,0,1,1.17-1.17Z"/><path class="cls-15" d="M118.93,89.38a8.46,8.46,0,0,1,.91,2,.63.63,0,0,0,1.23-.17,11.35,11.35,0,0,1,.63-3.26c.27-.76-.94-1.08-1.2-.33a12.2,12.2,0,0,0-.68,3.59l1.23-.17a10.37,10.37,0,0,0-1-2.27c-.42-.68-1.5-.06-1.08.63Z"/><path class="cls-16" d="M119.29,97.31a5.91,5.91,0,0,1,1.41,1.5.63.63,0,0,0,1.17-.31,4.72,4.72,0,0,1,.93-2.32c.47-.65-.61-1.28-1.07-.63a5.77,5.77,0,0,0-1.11,3l1.16-.32a6.91,6.91,0,0,0-1.61-1.76c-.62-.49-1.51.39-.88.89Z"/><path class="cls-14" d="M122.26,103.72h.92a1.17,1.17,0,0,1,1.17,1.17v1.71a0,0,0,0,1,0,0h-3.25a0,0,0,0,1,0,0v-1.71a1.17,1.17,0,0,1,1.17-1.17Z"/><path class="cls-15" d="M121.26,101.8a8.85,8.85,0,0,1,.92,2,.62.62,0,0,0,1.22-.16,11.3,11.3,0,0,1,.64-3.26c.27-.76-.94-1.09-1.21-.33a12.2,12.2,0,0,0-.68,3.59l1.23-.17a9.52,9.52,0,0,0-1-2.27.63.63,0,0,0-1.08.63Z"/><path class="cls-14" d="M123.88,109.12h.92a1.17,1.17,0,0,1,1.17,1.17V112a0,0,0,0,1,0,0h-3.25a0,0,0,0,1,0,0v-1.71a1.17,1.17,0,0,1,1.17-1.17Z"/><path class="cls-15" d="M122.89,107.19a8.65,8.65,0,0,1,.91,2A.63.63,0,0,0,125,109a11,11,0,0,1,.63-3.26c.27-.76-.94-1.08-1.2-.33a12.2,12.2,0,0,0-.68,3.59l1.23-.16a10.45,10.45,0,0,0-1-2.28c-.42-.68-1.5,0-1.08.63Z"/><circle class="cls-17" cx="89.49" cy="92.16" r="1.6"/><circle class="cls-17" cx="74.65" cy="91.73" r="1.6"/><rect class="cls-18" x="27.62" y="94.99" width="1.72" height="10.25" rx="0.33" ry="0.33"/><rect class="cls-18" x="30.42" y="94.99" width="1.72" height="10.25" rx="0.33" ry="0.33"/><path class="cls-19" d="M28.08,86.06H31.7a.77.77,0,0,1,.77.77v8.79a1.63,1.63,0,0,1-1.63,1.63H28.92a1.63,1.63,0,0,1-1.63-1.63V86.86a.79.79,0,0,1,.79-.79Z"/><path class="cls-18" d="M28.13,89.93h3.62a.77.77,0,0,1,.77.77v4.85a1.63,1.63,0,0,1-1.63,1.63H29a1.63,1.63,0,0,1-1.63-1.63V90.72a.79.79,0,0,1,.79-.79Z"/><rect class="cls-20" x="25.97" y="87" width="1.72" height="10.25" rx="0.33" ry="0.33"/><rect class="cls-20" x="32.24" y="87" width="1.72" height="10.25" rx="0.33" ry="0.33"/><ellipse class="cls-20" cx="29.93" cy="84.15" rx="1.61" ry="2.58"/><path class="cls-19" d="M32.75,86.73h.71a.61.61,0,0,1,.61.61v2.11a0,0,0,0,1,0,0H32.14a0,0,0,0,1,0,0V87.34A.61.61,0,0,1,32.75,86.73Z"/><path class="cls-21" d="M28.06,103.88h.71a.61.61,0,0,1,.61.61v1.33a0,0,0,0,1,0,0H27.46a0,0,0,0,1,0,0v-1.33A.61.61,0,0,1,28.06,103.88Z"/><path class="cls-21" d="M30.92,103.88h.71a.61.61,0,0,1,.61.61v1.33a0,0,0,0,1,0,0H30.32a0,0,0,0,1,0,0v-1.33A.61.61,0,0,1,30.92,103.88Z"/><path class="cls-19" d="M26.47,86.73h.71a.61.61,0,0,1,.61.61v2.11a0,0,0,0,1,0,0H25.87a0,0,0,0,1,0,0V87.34A.61.61,0,0,1,26.47,86.73Z"/><rect class="cls-18" x="28.02" y="86.26" width="0.59" height="3.68" rx="0.2" ry="0.2"/><rect class="cls-18" x="31.28" y="86.06" width="0.59" height="3.68" rx="0.2" ry="0.2"/><rect class="cls-20" x="37.08" y="96.42" width="1.52" height="9.15" rx="0.33" ry="0.33"/><rect class="cls-20" x="39.55" y="96.42" width="1.52" height="9.15" rx="0.33" ry="0.33"/><path class="cls-22" d="M37.58,88.46h3a.77.77,0,0,1,.77.77v12.59a0,0,0,0,1,0,0H36.79a0,0,0,0,1,0,0V89.25A.79.79,0,0,1,37.58,88.46Z"/><rect class="cls-20" x="35.62" y="89.3" width="1.52" height="9.15" rx="0.33" ry="0.33"/><rect class="cls-20" x="41.16" y="89.3" width="1.52" height="9.15" rx="0.33" ry="0.33"/><ellipse class="cls-20" cx="39.08" cy="85.81" rx="2" ry="3.24"/><path class="cls-21" d="M37.54,104.36H38a.61.61,0,0,1,.61.61v1.12a0,0,0,0,1,0,0h-1.7a0,0,0,0,1,0,0V105A.61.61,0,0,1,37.54,104.36Z"/><path class="cls-21" d="M40.07,104.36h.49a.61.61,0,0,1,.61.61v1.12a0,0,0,0,1,0,0h-1.7a0,0,0,0,1,0,0V105a.61.61,0,0,1,.61-.61Z"/><path class="cls-23" d="M38.11,81.92a3,3,0,0,0-1.58,1.83,3.88,3.88,0,0,0-.16,1.36,3.42,3.42,0,0,0,0,.45l.14-.18c-.22,0-.44,0-.67,0l.71.92A2.13,2.13,0,0,0,37,84.76c-.08-.79-1.28-.82-1.25,0,0,1.09-.86,2.58.59,3.1a.63.63,0,0,0,.79-.61l.07-.53c.09-.8-1.16-.79-1.25,0l-.07.53.79-.6c.25.09.34-1.77.33-1.89H35.77a1.25,1.25,0,0,1-.26.95c-.35.47.22,1,.7.92.66-.14,1.4,0,1.47-.91.08-1.13-.19-2.12,1.07-2.72.72-.35.09-1.43-.64-1.08Z"/><path class="cls-23" d="M38.59,82.91a3.91,3.91,0,0,0,.9.43,1.62,1.62,0,0,1,.94,1.11c.11.29.74,2,1,1.94l.77.44v-.3c.11-.79-1.09-1.13-1.21-.34a3.16,3.16,0,0,0,0,1,.63.63,0,0,0,.77.44,1,1,0,0,0,.8-1.07A4.55,4.55,0,0,0,42,84.65a12.45,12.45,0,0,0-1-1.76c-.52-.57-1.22-.62-1.79-1s-1.26.59-.63,1.07Z"/><path class="cls-23" d="M40.34,84.68c.28.13.14.14.09.41a1.1,1.1,0,0,0,.11.71c.08.18.34.4.35.6s-.31.41-.53.51a.63.63,0,0,0,0,1.08,1.86,1.86,0,0,0,1.06.21L41.25,87a1.63,1.63,0,0,1-.66,0c-.79-.15-1.13,1.06-.34,1.21a3.14,3.14,0,0,0,1.33,0c.67-.16.55-1.3-.16-1.23a.58.58,0,0,1-.43,0V88a1.65,1.65,0,0,0,1-2.29c-.07-.14-.27-.41-.27-.42,0-.2.16-.38.15-.6A1.33,1.33,0,0,0,41,83.6c-.72-.34-1.36.74-.63,1.08Z"/><path class="cls-23" d="M36.62,87.44l.09.1-.07-.48,0,.12.29-.37c.1-.07-.21,0-.26,0a4.5,4.5,0,0,1-.51-.08l.28,1c-.19,0-.2.08,0,.14l.21.13.48.3c.68.44,1.31-.64.63-1.07s-1.47-1.09-2.16-.38a.62.62,0,0,0,.27,1,2.46,2.46,0,0,0,1.69,0,.82.82,0,0,0,0-1.36c-.59-.54-1.47.34-.88.89Z"/><rect class="cls-20" x="32.53" y="100.91" width="1.13" height="6.48" rx="0.33" ry="0.33"/><rect class="cls-20" x="34.36" y="100.91" width="1.13" height="6.48" rx="0.33" ry="0.33"/><path class="cls-12" d="M33.1,95.28h1.83a.77.77,0,0,1,.77.77v8.69a0,0,0,0,1,0,0H32.31a0,0,0,0,1,0,0V96.07A.79.79,0,0,1,33.1,95.28Z"/><rect class="cls-20" x="31.45" y="95.87" width="1.13" height="6.48" rx="0.33" ry="0.33"/><rect class="cls-20" x="35.56" y="95.87" width="1.13" height="6.48" rx="0.33" ry="0.33"/><ellipse class="cls-20" cx="34.01" cy="93.4" rx="1.48" ry="2.3"/><path class="cls-22" d="M33,106.53h0a.61.61,0,0,1,.61.61v.62a0,0,0,0,1,0,0H32.42a0,0,0,0,1,0,0v-.62A.61.61,0,0,1,33,106.53Z"/><path class="cls-22" d="M34.9,106.53h0a.61.61,0,0,1,.61.61v.62a0,0,0,0,1,0,0H34.3a0,0,0,0,1,0,0v-.62A.61.61,0,0,1,34.9,106.53Z"/><path class="cls-23" d="M32.44,90.71a3.52,3.52,0,0,0-.87,3,.62.62,0,0,0,1.2-.34c-.22-.78.32-1.47.75-2.07s-.62-1.28-1.08-.63Z"/><path class="cls-23" d="M33.45,91.53c.37.08.9.15,1.12.5a4.9,4.9,0,0,1,.36,1.62c.14.8,1.34.46,1.2-.33a4.51,4.51,0,0,0-.65-2.16,2.86,2.86,0,0,0-1.7-.83c-.78-.17-1.12,1-.33,1.2Z"/><rect class="cls-18" x="22.64" y="100.06" width="1.08" height="6.42" rx="0.33" ry="0.33"/><rect class="cls-18" x="24.4" y="100.06" width="1.08" height="6.42" rx="0.33" ry="0.33"/><path class="cls-24" d="M23.22,94.48h1.7a.77.77,0,0,1,.77.77v4.61a1.63,1.63,0,0,1-1.63,1.63h0a1.63,1.63,0,0,1-1.63-1.63V95.27a.79.79,0,0,1,.79-.79Z"/><rect class="cls-20" x="21.6" y="95.06" width="1.08" height="6.42" rx="0.33" ry="0.33"/><rect class="cls-20" x="25.55" y="95.06" width="1.08" height="6.42" rx="0.33" ry="0.33"/><ellipse class="cls-20" cx="24.06" cy="92.62" rx="1.42" ry="2.28"/><path class="cls-25" d="M22.14,94.89h0a.61.61,0,0,1,.61.61v1.09a0,0,0,0,1,0,0H21.53a0,0,0,0,1,0,0V95.5A.61.61,0,0,1,22.14,94.89Z"/><path class="cls-25" d="M26.09,94.89h0a.61.61,0,0,1,.61.61v1.09a0,0,0,0,1,0,0H25.48a0,0,0,0,1,0,0V95.5A.61.61,0,0,1,26.09,94.89Z"/><path class="cls-25" d="M23.14,105.63h0a.61.61,0,0,1,.61.61v.61a0,0,0,0,1,0,0H22.53a0,0,0,0,1,0,0v-.61A.61.61,0,0,1,23.14,105.63Z"/><path class="cls-25" d="M24.94,105.63h0a.61.61,0,0,1,.61.61v.61a0,0,0,0,1,0,0H24.33a0,0,0,0,1,0,0v-.61A.61.61,0,0,1,24.94,105.63Z"/><rect class="cls-26" x="97.74" y="99.46" width="1.64" height="10.75" rx="0.33" ry="0.33"/><rect class="cls-26" x="100.4" y="99.46" width="1.64" height="10.75" rx="0.33" ry="0.33"/><path class="cls-27" d="M98.22,90.1h3.37a.77.77,0,0,1,.77.77v9.34a1.63,1.63,0,0,1-1.63,1.63H99.05a1.63,1.63,0,0,1-1.63-1.63V90.9A.79.79,0,0,1,98.22,90.1Z"/><path class="cls-26" d="M98.26,94.16h3.37a.77.77,0,0,1,.77.77v5.2a1.63,1.63,0,0,1-1.63,1.63H99.1a1.63,1.63,0,0,1-1.63-1.63V95a.79.79,0,0,1,.79-.79Z"/><rect class="cls-20" x="96.17" y="91.08" width="1.64" height="10.75" rx="0.33" ry="0.33"/><rect class="cls-20" x="102.13" y="91.08" width="1.64" height="10.75" rx="0.33" ry="0.33"/><ellipse class="cls-20" cx="99.93" cy="88.1" rx="1.54" ry="2.71"/><path class="cls-27" d="M102.64,90.8h.62a.61.61,0,0,1,.61.61v2.24a0,0,0,0,1,0,0H102a0,0,0,0,1,0,0V91.41A.61.61,0,0,1,102.64,90.8Z"/><path class="cls-21" d="M98.19,108.79h.62a.61.61,0,0,1,.61.61v1.42a0,0,0,0,1,0,0H97.58a0,0,0,0,1,0,0V109.4A.61.61,0,0,1,98.19,108.79Z"/><path class="cls-21" d="M100.91,108.79h.62a.61.61,0,0,1,.61.61v1.42a0,0,0,0,1,0,0H100.3a0,0,0,0,1,0,0V109.4A.61.61,0,0,1,100.91,108.79Z"/><path class="cls-27" d="M96.68,90.8h.62a.61.61,0,0,1,.61.61v2.24a0,0,0,0,1,0,0H96.07a0,0,0,0,1,0,0V91.41A.61.61,0,0,1,96.68,90.8Z"/><rect class="cls-26" x="98.12" y="90.31" width="0.56" height="3.86" rx="0.2" ry="0.2"/><rect class="cls-26" x="101.22" y="90.1" width="0.56" height="3.86" rx="0.2" ry="0.2"/><line class="cls-28" x1="105.12" y1="93.85" x2="102.43" y2="108.13"/><rect class="cls-28" x="104.86" y="93.09" width="2.81" height="1.11" rx="0.55" ry="0.55"/></svg>