<?xml version="1.0" encoding="utf-8"?>
<!-- Generator: Adobe Illustrator 22.1.0, SVG Export Plug-In . SVG Version: 6.00 Build 0)  -->
<svg version="1.1" id="Ebene_1" xmlns="http://www.w3.org/2000/svg" xmlns:xlink="http://www.w3.org/1999/xlink" x="0px" y="0px"
	 viewBox="0 0 141.7 141.7" style="enable-background:new 0 0 141.7 141.7;" xml:space="preserve">
<style type="text/css">
	.st0{stroke:#FFFFFF;stroke-width:4;stroke-miterlimit:10;}
</style>
<title>Zeichenfläche 2</title>
<path class="st0" d="M81.4,40.8c0,0.1,0,0.1,0,0.2c0,3.6-3.7,6.5-8.3,6.5s-8.3-2.9-8.3-6.5c0-0.5,0.1-1.1,0.3-1.6
	c-24.8,2.4-46,26.2-37.9,45.3c25.7,60.8,33,33.3,48.8,36.3c20,3.9,26.7,10.5,40-40.9C120,64.7,102.8,46.2,81.4,40.8z"/>
<path class="st0" d="M82.9,39.7c-6.2,2.9-9.4,6.6-12.3,4.9s-2.3-6.6,1.5-11s0-19.1,3-17.5S95.1,34.1,82.9,39.7z"/>
</svg>
