<?xml version="1.0" encoding="utf-8"?>
<!-- Generator: Adobe Illustrator 22.1.0, SVG Export Plug-In . SVG Version: 6.00 Build 0)  -->
<svg version="1.1" id="Ebene_1" xmlns="http://www.w3.org/2000/svg" xmlns:xlink="http://www.w3.org/1999/xlink" x="0px" y="0px"
	 viewBox="0 0 141.7 141.7" style="enable-background:new 0 0 141.7 141.7;" xml:space="preserve">
<style type="text/css">
	.st0{stroke:#FFFFFF;stroke-width:4;stroke-miterlimit:10;}
</style>
<title>Zeichenfläche 2 Kopie 4</title>
<path class="st0" d="M89.4,79.7c8.1-6.5,18.9-7.4,26.5-5.1c0-14.6-7.4-27.6-19.1-36.2c-0.7-0.5-1.7-0.2-2.1,0.8
	c-1.5,3.2-3.3,3.8-5.2,2.7s-3.2-3.4-3-7.3c0.1-1.1-0.4-2.1-1.3-2.7c-2.1-0.9-4.2-1.6-6.4-2.2c-0.9-0.2-1.7,0.6-2,1.9
	c-0.8,3.5-2.6,4.8-4.6,4.8c-2.2,0-3.8-2-4.3-6.5c-0.1-1.3-0.9-2.2-1.7-2.2c-1-0.1-2-0.1-3.1-0.1c-1.6,0-3.2,0.1-4.7,0.2
	c-0.9,0.1-1.6,1.1-1.6,2.4c-0.2,4.6-1.8,6.5-4.1,6.7c-2.1,0.2-4.1-1-4.9-4.9c-0.3-1.3-1.1-2.1-2-1.9c-3.4,1.1-3.8,1-6.8,2.6
	c0.1,0.3-2.8,0.5-2.7,2.4c0.4,6.3-0.5,7.5-3,8.6c-2,0.9-3.9,1.7-5.2-1.5c-0.5-1.2-1.5-1.5-2.3-0.8c-9.5,8.5-15.3,20.2-15.3,33.1
	c0,25.9,23.9,22.2,53,22.2c5.3,0,10.3,0.1,15.1,0.2C79.4,91.3,82.5,85.3,89.4,79.7z"/>
<path class="st0" d="M136.5,96.6c0-8.5-13.1-27.5-28.9-27.5S78.4,87.7,78.4,96.2s11.9,7.1,27.7,7.1S136.5,105.1,136.5,96.6z"/>
<path d="M128.6,92.7c0-5.3-9.6-17.1-21-17.1S86.3,87.2,86.3,92.5s8.7,4.4,20.2,4.4S128.6,98,128.6,92.7z"/>
</svg>
