<?xml version="1.0" encoding="utf-8"?>
<!-- Generator: Adobe Illustrator 22.1.0, SVG Export Plug-In . SVG Version: 6.00 Build 0)  -->
<svg version="1.1" id="Ebene_1" xmlns="http://www.w3.org/2000/svg" xmlns:xlink="http://www.w3.org/1999/xlink" x="0px" y="0px"
	 viewBox="0 0 141.7 141.7" style="enable-background:new 0 0 141.7 141.7;" xml:space="preserve">
<style type="text/css">
	.st0{fill:#FFFFFF;}
</style>
<title>Zeichenfläche 2 Kopie 5</title>
<g>
	<polygon points="91.4,128.3 46.1,128.3 27,40.2 106.5,40.2 	"/>
	<path class="st0" d="M93.1,130.3H44.5l-20-92.1h84.4L93.1,130.3z M47.7,126.3h42l14.4-84.1H29.4L47.7,126.3z"/>
</g>
<g>
	<path d="M23.9,26h85.7c2.2,0,4,1.8,4,4v2.9c0,2.2-1.8,4-4,4H23.9c-2.2,0-4-1.8-4-4V30C19.9,27.8,21.7,26,23.9,26z"/>
	<path class="st0" d="M109.6,38.9H23.9c-3.3,0-6-2.7-6-6V30c0-3.3,2.7-6,6-6h85.7c3.3,0,6,2.7,6,6v2.9
		C115.6,36.2,112.9,38.9,109.6,38.9z M23.9,28c-1.1,0-2,0.9-2,2v2.9c0,1.1,0.9,2,2,2h85.7c1.1,0,2-0.9,2-2V30c0-1.1-0.9-2-2-2H23.9z
		"/>
</g>
<g>
	<path d="M35.7,12.7h62.1c2,0,3.7,1.6,3.7,3.7V19c0,2-1.6,3.7-3.7,3.7H35.7c-2,0-3.7-1.6-3.7-3.7v-2.6C32,14.3,33.6,12.7,35.7,12.7z
		"/>
	<path class="st0" d="M97.8,24.7H35.7c-3.1,0-5.7-2.5-5.7-5.7v-2.6c0-3.1,2.5-5.7,5.7-5.7h62.1c3.1,0,5.7,2.5,5.7,5.7V19
		C103.5,22.1,100.9,24.7,97.8,24.7z M35.7,14.7c-0.9,0-1.7,0.8-1.7,1.7V19c0,0.9,0.8,1.7,1.7,1.7h62.1c0.9,0,1.7-0.8,1.7-1.7v-2.6
		c0-0.9-0.8-1.7-1.7-1.7H35.7z"/>
</g>
</svg>
