<?xml version="1.0" encoding="utf-8"?>
<!-- Generator: Adobe Illustrator 22.1.0, SVG Export Plug-In . SVG Version: 6.00 Build 0)  -->
<svg version="1.1" id="Ebene_1" xmlns="http://www.w3.org/2000/svg" xmlns:xlink="http://www.w3.org/1999/xlink" x="0px" y="0px"
	 viewBox="0 0 141.7 141.7" style="enable-background:new 0 0 141.7 141.7;" xml:space="preserve">
<style type="text/css">
	.st0{stroke:#FFFFFF;stroke-width:4;stroke-miterlimit:10;}
	.st1{stroke:#FFFFFF;stroke-miterlimit:10;}
</style>
<title>Zeichenfläche 2 Kopie</title>
<polygon class="st0" points="41,127.7 102.3,127.6 102.4,15.4 41.2,15.5 "/>
<path class="st0" d="M63.2,9.4V7.3c0-0.5-0.4-0.9-0.9-0.8H48.5c-0.5,0-0.9,0.3-0.9,0.8c0,0,0,0,0,0v2.1c0,0.6,0.4,1,0.9,1
	c0,0,0,0,0.1,0H62C62.7,10.5,63.2,10,63.2,9.4z"/>
<path class="st1" d="M82.3,72.7c-3.7,10.3,1.4,14.5-7.4,14.8c-9,0.3-4.2-3.1-12.2-14.6c-6.3-9,1-13,7.6-14.4S86.2,61.7,82.3,72.7z"
	/>
<path class="st1" d="M64,63.6c-0.9,2.3-5,0.7-6.9-1.6s0.3-6.4,2.2-7.9s-1.9,3.3,0,5.7S64.8,61.7,64,63.6z"/>
<path class="st1" d="M78.5,61.8c0.9,2.3,5,0.7,6.9-1.6s-0.2-6.4-2.1-7.9s1.9,3.3-0.1,5.7S77.7,59.8,78.5,61.8z"/>
<path class="st1" d="M55.2,66.7c0.5,1.2,4.5,2.9,6,1.8c0.8-0.6,0.5-1.4-0.2-2.4s-4.5-1.1-5.4-0.8S54.8,65.6,55.2,66.7z"/>
<path class="st1" d="M87.5,64.4c-0.8,1.2-5.3,2.6-6.4,1.4c-0.6-0.6-0.1-1.4,0.9-2.4s4.7-0.8,5.5-0.4S88.3,63.2,87.5,64.4z"/>
</svg>
