<?xml version="1.0" encoding="utf-8"?>
<!-- Generator: Adobe Illustrator 22.1.0, SVG Export Plug-In . SVG Version: 6.00 Build 0)  -->
<svg version="1.1" id="Ebene_1" xmlns="http://www.w3.org/2000/svg" xmlns:xlink="http://www.w3.org/1999/xlink" x="0px" y="0px"
	 viewBox="0 0 141.7 141.7" style="enable-background:new 0 0 141.7 141.7;" xml:space="preserve">
<style type="text/css">
	.st0{stroke:#FFFFFF;stroke-width:4;stroke-miterlimit:10;}
	.st1{stroke:#FFFFFF;stroke-miterlimit:10;}
</style>
<title>Zeichenfläche 2 Kopie 6</title>
<rect x="44.7" y="12.5" class="st0" width="61.8" height="110.9"/>
<path class="st1" d="M60.6,71.9c-2.4-6.4,4.4-14.6,12.1-14.6s14.8,7.2,13.4,13.1c-3.8,16.5-5.7,14.4-11.5,13.1
	C70.1,82.5,68,91.3,60.6,71.9z"/>
<path class="st0" d="M66.2,6.3V4.3c0-0.5-0.4-0.9-0.9-0.9c0,0,0,0,0,0H51.5c-0.5-0.1-0.9,0.3-1,0.8c0,0,0,0,0,0v2.1c0,0.6,0.4,1,1,1
	H65C65.6,7.5,66.2,7,66.2,6.3C66.2,6.4,66.2,6.4,66.2,6.3z"/>
<path class="st1" d="M76.7,55c-1.7,1.3-2.8,2.6-3.4,2.3s-0.2-1.9,1-3.5s1.1-6,1.8-5.7S80.1,52.5,76.7,55z"/>
</svg>
