<?xml version="1.0" encoding="utf-8"?>
<!-- Generator: Adobe Illustrator 22.1.0, SVG Export Plug-In . SVG Version: 6.00 Build 0)  -->
<svg version="1.1" id="Ebene_1" xmlns="http://www.w3.org/2000/svg" xmlns:xlink="http://www.w3.org/1999/xlink" x="0px" y="0px"
	 viewBox="0 0 141.7 141.7" style="enable-background:new 0 0 141.7 141.7;" xml:space="preserve">
<style type="text/css">
	.st0{stroke:#FFFFFF;stroke-width:4;stroke-linecap:round;stroke-miterlimit:10;}
	.st1{fill:#FFFFFF;}
</style>
<title>Zeichenfläche 2</title>
<path class="st0" d="M110.3,30.4c-3.3,1-7,1.2-9.8,3.5c-2.1,1.7-2.9,4.9-4.5,7c-1.2,1.6-2.7,2.3-4.3,3.6c-3.5,3-3.7,6.4-4.8,10.5
	c-0.1,0.5-0.7,0.8-1.2,0.7c0,0,0,0,0,0c-4.7-1.7-7,1.3-10.2,3.4s-5,1.8-4.8,6.6c0,1.3-2,1.3-2,0c-0.2-4.7,1.2-5.6,4.9-7.8
	c2.2-1.3,3.1-3.7,5.4-4.8c2.1-1,4.3-0.4,6.3,0.3c0.7-2.8,1.1-5.8,2.8-8.2s4.2-3.6,6.1-5.7c-1-3.5-4.9-3.7-7.7-5s-5-2.9-8-3.6
	c-3.5-0.9-7.2-0.7-10.7-1.8c-2.4-0.8-3.8-2.5-6-3.5c-4.3-2-10.5,6.9-11.5,10.6c-0.5,2-0.5,4.1-1.8,5.9c-1.8,2.6-5.2,3.1-6,6.6
	c0,0.1-0.1,0.1-0.1,0.2c1.1,0.2,2.1,0,3.1-0.4c0.4-0.1,0.9,0.1,1.1,0.5c1.6,2.8,3.5,6.7,6.8,7.7c3,0.9,5.3-1.4,8-1.6
	c1.7-0.1,2.6,0.3,3.3,1.8c0.6,1.3,0.3,3.1,0.5,4.5c0.5,4.2,2.6,5.8,6.3,7.2c3.1,1.1,6.9,2,9,4.7c0.8,1.2,1.4,2.5,1.8,3.8
	c0.3,1.4,0.9,2.6,1.6,3.8c1.4,1.7,3,1.3,4.9,1.7c3,0.6,4.6,1.7,5.1,5c0.6,3.9-0.4,8.5-0.8,12.4c-0.2,3.5-1.8,6.8-4.4,9.2
	c-0.9,0.9-2.3-0.5-1.4-1.4c4.4-4.2,4.6-11.7,4.7-17.6c0-2.6,0.1-4.7-3.2-5.7c-0.8-0.2-1.8,0-2.7-0.1c-1.5-0.2-3-1-4-2.1
	c-1-1.3-1.3-3.2-1.8-4.7c-1.4-3.8-3.3-5-7-6.3c-3.5-1.3-7.5-2-9.3-5.8c-0.6-1.6-1-3.4-1-5.1c-0.2-1.6,0.2-2.4-1.2-3s-2.7,0.7-4,1.1
	c-4.2,1.1-7.3-0.4-9.9-3.7c-0.6-0.7-1-1.7-1.6-2.4c-1.7-1.8-0.6-1-2.9-1.1c-1.3,0-2.6-0.3-3.7-1.1c-2.2-1.5-3.5-4-5.4-5.7
	c-3-2.7-4.6-1-7.5,0.6l0,0c-1.5,0.7-2.7,2-3.3,3.6c-9.4,27,4.8,56.5,31.8,65.9s56.5-4.8,65.9-31.8C127.6,64.6,123.4,44.5,110.3,30.4
	z"/>
<path d="M76.8,107.6c5.4-5.1,11.9-8.8,19-10.9c2.6-0.7,6.2-0.1,6.5,3.6c-0.2-5.5,2.1-10.8,6.2-14.3c3.6-2.9,7.8-3.5,12-3.7
	c4.2-0.1,8.3,0.2,12.3-1c-1.9,13.3-7.9,25.2-16.1,31.7s-18.4,7.4-27.2,2.4c-4.6-2.6-9.4-6.9-14.1-4.6"/>
<path class="st1" d="M78.6,109.4c2.2-2,19.9-15.3,21.4-8.4c0.6,2.8,4.9,2.1,4.9-0.7c0-7,3.7-13.4,10.9-15c5.8-1.3,11.9-0.2,17.7-1.7
	l-3.1-3.1c-1.9,12.7-7.5,27.3-19.7,33.3c-6.6,3.2-14.4,2.8-20.6-1c-4.9-2.8-9.5-6.5-15.4-4.4c-3,1.1-1.7,5.9,1.3,4.8
	c4.6-1.6,8.4,2.2,12.2,4.3c2.9,1.6,6,2.7,9.2,3.2c6.5,0.9,13.1-0.6,18.5-4.2c11.5-7.5,17.3-21.5,19.3-34.7c0.3-1.4-0.5-2.7-1.8-3.1
	c-0.4-0.1-0.8-0.1-1.2,0c-8.1,2-16.9-0.6-24.2,4.4c-5.6,3.8-8.1,10.4-8.2,17l4.9-0.7c-3.1-14.3-24.7,1.6-29.8,6.1
	C72.6,107.9,76.2,111.5,78.6,109.4L78.6,109.4z"/>
<path d="M12.2,82.7c2.5-1.5-1-3.1-0.1-4.3c1.7-2.4,6.3-0.6,8.6,1s3.7,4.8,6.5,6c2.7,1.1,5.8,0,8.7-0.6c7.8-1.7,16.2,0,23.4,3.2
	s13.4,7.9,19.5,12.6c3.5,2.7,7.2,5.8,7.7,9.8c0.6,4.8-4.6,9.4-10,8.9c-3-0.3-5.7-1.9-8.5-2.9c-12.2-4.4-27.6,1.8-38.6-4.6
	c-5.5-3.2-8.4-8.8-10.6-14.3S16,87.4,12.2,82.7"/>
<path class="st1" d="M14,84.5c1.7-1.6,1.6-2.5,1.3-4.5c-0.2-0.5-0.4-1-0.7-1.5c0.3,1,1.2,1.7,2.3,1.7c1.5,0.7,2.9,1.7,4.1,2.8
	c1.8,1.9,3.2,4,5.8,4.9c3.3,1.2,6.7,0,10-0.6c9.2-1.8,18.3,0.9,26.2,5.4c3.6,2.1,7,4.4,10.3,6.9c3.2,2.4,7.4,4.9,9.6,8.3
	c4,6.1-3.7,9.6-8.7,8.3c-3.4-0.9-6.3-2.7-9.9-3.4c-6.9-1.3-13.8-0.3-20.7-0.4c-8.8-0.1-15.7-2.7-20.1-10.7c-3.6-6.6-4.5-14.1-9-20.2
	c-1.9-2.6-6.3-0.1-4.4,2.5c4.6,6.3,5.6,14.2,9.4,20.9c3.1,5.7,8.3,9.8,14.6,11.5c6.9,1.8,14.1,0.8,21.2,0.8
	c3.8-0.1,7.6,0.3,11.3,1.4c3.3,1.1,6.3,3,9.8,3.2c5.4,0.3,11.2-3.3,12.3-8.8c1.2-5.8-3.4-10.3-7.6-13.6C68.8,89.6,54.2,79.7,37.6,82
	c-1.9,0.3-4,1.2-5.9,1.2c-3.8,0-5.1-1.5-7.4-3.8c-2-2.2-4.6-3.7-7.5-4.4c-2.3-0.5-5.3-0.3-6.7,1.9c-0.5,0.7-0.7,1.6-0.6,2.5
	c0.1,0.3,0.2,0.6,0.3,0.9c0.1,0.4,0.3,0.7,0.5,1c0.3,0.6,0.3,0.5,0.1-0.4C8.1,83.1,11.6,86.6,14,84.5L14,84.5z"/>
</svg>
