<?xml version="1.0" encoding="utf-8"?>
<!-- Generator: Adobe Illustrator 22.1.0, SVG Export Plug-In . SVG Version: 6.00 Build 0)  -->
<svg version="1.1" id="Ebene_1" xmlns="http://www.w3.org/2000/svg" xmlns:xlink="http://www.w3.org/1999/xlink" x="0px" y="0px"
	 viewBox="0 0 141.7 141.7" style="enable-background:new 0 0 141.7 141.7;" xml:space="preserve">
<style type="text/css">
	.st0{stroke:#FFFFFF;stroke-width:4;stroke-miterlimit:10;}
</style>
<title>Zeichenfläche 2 Kopie 9</title>
<path class="st0" d="M38.8,35.3c0.8-2.3,1.6-4.5,2.5-6.3C40.2,31,39.4,33.1,38.8,35.3z"/>
<path class="st0" d="M92.5,22.8L92.5,22.8c-2.6-2.5-5.8-4.3-9.2-5.2c0.2,0.9,0.3,1.8,0.3,2.8c0,7.8-6,14.1-13.3,14.1
	s-13.3-6.3-13.3-14.1c0-1.1,0.1-2.1,0.3-3.2c-4,0.7-7.7,2.5-10.7,5.2c0.2,0,0.4,0.1,0.5,0.1c3.2,1.3,1.6,5.2-1.2,16.3
	c-1.9,7.8-5,20.9-7.9,29.1v59.3h62.7V65.3c-2.6-8.2-5.2-19.3-6.9-26.2C90.9,28,89.3,24.2,92.5,22.8z"/>
<path class="st0" d="M42.9,44.2c2.2-6.8,6.5-20,2.7-23.7c-11.2-4.4-17.1,12.1-17.8,15.2l-9.5,28.2c-0.7,3.2,0.6,6.5,2.8,7.5l9.1,3.9
	c2.2,1,4.7-0.7,5.4-3.9l0.1-0.2c-0.1,0,0-0.5,0.1-0.6C37.9,63.8,39.4,55.1,42.9,44.2z"/>
<path class="st0" d="M95.1,44.2c-2.2-6.8-6.5-20-2.7-23.7c11.2-4.4,17.1,12.1,17.8,15.2l9.5,28.2c0.7,3.2-0.6,6.5-2.8,7.5l-9.2,3.9
	c-2.3,1-4.7-0.7-5.4-3.9l-0.1-0.2c0.1,0,0-0.5-0.1-0.6C100,63.8,98.6,55.1,95.1,44.2z"/>
</svg>
