<?xml version="1.0" encoding="utf-8"?>
<!-- Generator: Adobe Illustrator 22.1.0, SVG Export Plug-In . SVG Version: 6.00 Build 0)  -->
<svg version="1.1" id="Ebene_1" xmlns="http://www.w3.org/2000/svg" xmlns:xlink="http://www.w3.org/1999/xlink" x="0px" y="0px"
	 viewBox="0 0 141.7 141.7" style="enable-background:new 0 0 141.7 141.7;" xml:space="preserve">
<style type="text/css">
	.st0{stroke:#FFFFFF;stroke-width:4;stroke-miterlimit:10;}
</style>
<title>Zeichenfläche 2 Kopie 3</title>
<path class="st0" d="M110.1,45.1c-0.3-0.2-0.7-0.4-1-0.7c-9.3-7-21.3-10.5-39.6-10.5c-18.5,0-27.1,3.2-36.7,10.4
	c-0.4,0.3-0.7,0.5-1.1,0.8c-8.3,5.4-13.4,13.8-13.4,26.4c0,27.1,23.5,49.1,52.6,49.1s52.6-22,52.6-49.1
	C123.4,58.9,118.4,50.5,110.1,45.1z"/>
<ellipse class="st0" cx="68.9" cy="25.4" rx="5.3" ry="14.9"/>
<ellipse transform="matrix(0.9187 -0.3949 0.3949 0.9187 -6.1059 23.7457)" class="st0" cx="54.6" cy="26.7" rx="5.3" ry="14.9"/>
<ellipse transform="matrix(0.9207 -0.3903 0.3903 0.9207 -5.895 41.0622)" class="st0" cx="98.1" cy="35" rx="14.8" ry="5.3"/>
<ellipse transform="matrix(0.3949 -0.9187 0.9187 0.3949 26.0798 92.9796)" class="st0" cx="83.6" cy="26.7" rx="14.9" ry="5.3"/>
<ellipse transform="matrix(0.3874 -0.9219 0.9219 0.3874 -8.6091 57.8052)" class="st0" cx="39.2" cy="35.4" rx="5.3" ry="14.9"/>
</svg>
