<svg id="Ebene_1" data-name="Ebene 1" xmlns="http://www.w3.org/2000/svg" viewBox="0 0 141.73 141.73"><defs><style>.cls-1,.cls-8{fill:#bfbdbe;}.cls-1,.cls-10,.cls-2,.cls-3,.cls-5,.cls-6,.cls-8{stroke:#fff;}.cls-1,.cls-10,.cls-13,.cls-14,.cls-3,.cls-5,.cls-6,.cls-8,.cls-9{stroke-linecap:round;}.cls-1,.cls-10,.cls-13,.cls-14,.cls-2,.cls-3,.cls-5,.cls-6,.cls-8,.cls-9{stroke-miterlimit:10;}.cls-1{stroke-width:0.75px;}.cls-2{fill:#e3d599;}.cls-2,.cls-3{stroke-width:2px;}.cls-3{fill:#646463;}.cls-4{fill:#96c347;}.cls-5{fill:#d1b95a;}.cls-10,.cls-13,.cls-14,.cls-5,.cls-6,.cls-8{stroke-width:0.25px;}.cls-7{fill:#ededed;}.cls-14,.cls-9{fill:none;}.cls-9{stroke:#bfbdbe;}.cls-10{fill:#42bac1;}.cls-11,.cls-12{fill:#fff;}.cls-12{font-size:12px;font-family:MyriadPro-Regular, Myriad Pro;}.cls-13,.cls-14{stroke:#1d1d1b;}</style></defs><title>Zeichenfläche 1 Kopie 5</title><ellipse class="cls-1" cx="35.56" cy="23.33" rx="3.22" ry="1.57"/><polygon class="cls-2" points="126.91 87.94 18.18 87.94 3.23 121.54 139.9 121.99 126.91 87.94"/><rect class="cls-3" x="35.84" y="54.42" width="69.81" height="40.92"/><polygon class="cls-3" points="44.66 95.49 27.2 95.49 30.56 24.9 40.1 24.9 44.66 95.49"/><path class="cls-4" d="M53.45,101.72q19.53-.12,39.05.64V98.61L30.23,98.4v3.75c18.75-.26,37.51,0,56.23,1.08V99.48l-57.69,1.06a1.88,1.88,0,0,0,0,3.75q29.45.3,58.87,1.5V102l-61.7,1a1.88,1.88,0,0,0,0,3.75l61.87,1.13v-3.75l-27,.55a1.88,1.88,0,0,0,0,3.75l36.4,1v-3.75c-9.89.62-19.78,1-29.69,1.14a1.88,1.88,0,0,0,0,3.75l39.76.83V107.7c-15.84.43-31.68,1-47.5,2-2.39.14-2.43,3.71,0,3.75l38,.64v-3.75l-43.23.77a1.88,1.88,0,0,0,0,3.75l45.13.76v-3.75l-50.49,1a1.88,1.88,0,0,0,0,3.75l40.18.71v-3.75c-10.12.46-20.24.68-30.37.75a1.88,1.88,0,0,0,0,3.75l41.87,1v-3.75c-12,.63-24,.77-36,.66v3.75l67.84.15c2.42,0,2.41-3.68,0-3.75L12.41,112.6v3.75l103.39-.11c2.43,0,2.4-3.62,0-3.75q-41.07-2.25-82.18-3.77v3.75l73.55-.94a1.88,1.88,0,0,0,0-3.75c-25.57-.23-51.14-1-76.68-2.38v3.75l46.05-.37q11.26-.09,22.53-.18c4.2,0,10,.86,13.91-1a1.91,1.91,0,0,0,.67-2.56c-1.22-2.34-7.11-1.94-9.18-2.12-7.37-.63-14.76-1-22.14-1.53s-14.48-1-21.72-1.47c-3.41-.24-6.82-.48-10.22-.81-1.8-.17-5,.12-6.46-1l.86,2.11c-.42,1.5.21.58,1.55.58.9,0,1.82-.14,2.72-.19,2.87-.17,5.75-.23,8.62-.26,6-.07,12.1,0,18.15.14,2.42,0,2.42-3.71,0-3.75-8.4-.14-16.82-.34-25.21,0-2.08.09-8.63-.52-9.45,2.45a2,2,0,0,0,.86,2.11c2.3,1.74,7.28,1.44,9.94,1.68,6.82.61,13.66,1,20.49,1.46L94.18,106c3.15.21,6.29.4,9.44.66,1.59.13,3.19.24,4.78.45,1.3.17,2.63,1,2-.12l.67-2.57c-1.94.91-5.64.38-7.72.41-3.39.06-6.78.07-10.16.1l-20.58.16-42.13.34c-2.43,0-2.4,3.62,0,3.75,25.54,1.42,51.11,2.15,76.68,2.38v-3.75l-73.55.94a1.88,1.88,0,0,0,0,3.75q41.1,1.55,82.18,3.77v-3.75l-103.39.11c-2.42,0-2.42,3.68,0,3.75l120.34,3.56v-3.75L64.91,116c-2.41,0-2.41,3.73,0,3.75,12,.11,24,0,36-.66a1.88,1.88,0,0,0,0-3.75l-41.87-1v3.75c10.13-.07,20.25-.29,30.37-.75a1.88,1.88,0,0,0,0-3.75l-40.18-.71v3.75l50.49-1a1.88,1.88,0,0,0,0-3.75l-45.13-.76v3.75l43.23-.77a1.88,1.88,0,0,0,0-3.75l-38-.64v3.75c15.82-1,31.66-1.57,47.5-2a1.88,1.88,0,0,0,0-3.75l-39.76-.83v3.75c9.91-.19,19.8-.52,29.69-1.14a1.88,1.88,0,0,0,0-3.75l-36.4-1v3.75l27-.55a1.88,1.88,0,0,0,0-3.75L25.94,103v3.75l61.7-1a1.88,1.88,0,0,0,0-3.75q-29.43-1.23-58.87-1.5v3.75l57.69-1.06a1.88,1.88,0,0,0,0-3.75c-18.72-1-37.48-1.34-56.23-1.08-2.41,0-2.42,3.75,0,3.75l62.27.21c2.42,0,2.41-3.66,0-3.75Q73,97.83,53.45,98c-2.42,0-2.42,3.77,0,3.75Z"/><rect class="cls-5" x="97.43" y="74.03" width="3.18" height="19.93" rx="0.33" ry="0.33" transform="translate(113.27 -45.07) rotate(55.99)"/><path class="cls-6" d="M99.76,74.71h2a.61.61,0,0,1,.61.61V91a0,0,0,0,1,0,0H99.15a0,0,0,0,1,0,0V75.32A.61.61,0,0,1,99.76,74.71Z" transform="translate(113.06 -47.01) rotate(55.99)"/><rect class="cls-6" x="106" y="93.87" width="2.85" height="19.59" rx="0.33" ry="0.33"/><rect class="cls-6" x="110.64" y="93.87" width="2.85" height="19.59" rx="0.33" ry="0.33"/><path class="cls-6" d="M106.25,76.83h7a.77.77,0,0,1,.77.77v19a1.63,1.63,0,0,1-1.63,1.63h-5.32a1.63,1.63,0,0,1-1.63-1.63V77.62a.79.79,0,0,1,.79-.79Z"/><rect class="cls-5" x="113.66" y="78.61" width="2.85" height="19.59" rx="0.33" ry="0.33"/><path class="cls-6" d="M106.34,110.87h2a.61.61,0,0,1,.61.61v3.09a0,0,0,0,1,0,0h-3.19a0,0,0,0,1,0,0v-3.09A.61.61,0,0,1,106.34,110.87Z"/><path class="cls-6" d="M111.08,110.87h2a.61.61,0,0,1,.61.61v3.09a0,0,0,0,1,0,0h-3.19a0,0,0,0,1,0,0v-3.09A.61.61,0,0,1,111.08,110.87Z"/><path class="cls-6" d="M114.1,78.1h2a.61.61,0,0,1,.61.61V94.34a0,0,0,0,1,0,0h-3.19a0,0,0,0,1,0,0V78.71A.61.61,0,0,1,114.1,78.1Z"/><polygon class="cls-7" points="109.83 84.7 108.05 77.23 111.61 77.23 109.83 84.7"/><ellipse class="cls-5" cx="109.83" cy="73.63" rx="2.68" ry="3.88"/><path class="cls-4" d="M109.83,79.72h0c-.28,0-.49-.09-.49-.41l-.1-.86c0-.33.31-.1.59-.1h0c.29,0,.66-.24.66.09l-.14,1C110.35,79.78,110.12,79.72,109.83,79.72Z"/><path class="cls-4" d="M109.93,85h-.13c-.14,0-.22,0-.39-.26l.13-4.76a.31.31,0,0,1,.26-.33h.13a.31.31,0,0,1,.26.33l.15,4.76C110.15,85.06,110.07,85,109.93,85Z"/><rect class="cls-8" x="89.74" y="89.61" width="1.29" height="1.29" rx="0.56" ry="0.56" transform="translate(123.36 -33.15) rotate(60)"/><rect class="cls-8" x="90.82" y="90.64" width="0.45" height="0.93" rx="0.15" ry="0.15"/><rect class="cls-8" x="83.39" y="102.05" width="22.29" height="1.33" rx="0.67" ry="0.67" transform="translate(197.25 8.18) rotate(90)"/><rect class="cls-8" x="85.37" y="91.57" width="9.83" height="1.33" rx="0.67" ry="0.67"/><line class="cls-9" x1="94.49" y1="92.47" x2="94.49" y2="93.33"/><line class="cls-9" x1="94.59" y1="92.27" x2="94.59" y2="93.13"/><rect class="cls-10" x="75.01" y="103.26" width="22.29" height="1.58" rx="0.33" ry="0.33" transform="translate(190.21 17.89) rotate(90)"/><path class="cls-8" d="M85.89,91.4h.58a.67.67,0,0,1,.67.67v2a0,0,0,0,1,0,0H85.22a0,0,0,0,1,0,0v-2A.67.67,0,0,1,85.89,91.4Z"/><path class="cls-11" d="M85.28,113.56a1.49,1.49,0,0,1-1.43-1l-.86.86a10.72,10.72,0,0,1,2.08,1.84c.48.53,1.35-.16,1-.76L85.16,113l-1,.76a1.88,1.88,0,0,0,3.4-.66l-1.22-.17L86.24,114a.63.63,0,0,0,.94.54l1.19-.8-.86-.86c-.58,1.2-1.86.62-2.86.63s-2,.67-3.16.51l-.17,1.23a88.5,88.5,0,0,0,8.92.28.63.63,0,0,0,0-1.25c-.44,0-2.06-.51-2.32.07.33-.73-.75-1.37-1.08-.63-.87,1.88,2.4,1.69,3.4,1.81v-1.25a88.5,88.5,0,0,1-8.92-.28c-.69-.06-.86,1.13-.16,1.23a5,5,0,0,0,2-.12,6.05,6.05,0,0,1,1.5-.35c1,0,.74.37,1.47.48,1.26.19,2-.7,2.47-1.73.25-.51-.29-1.23-.86-.85l-1.18.8.94.54.12-1.06c.07-.71-1-.83-1.23-.16l-1.32.11c-.44-.57-1.34.16-1,.75l.9,1.48,1-.76a12.6,12.6,0,0,0-2.34-2c-.55-.38-1.11.34-.85.85A2.76,2.76,0,0,0,85,114.76c.79.13,1.13-1.08.33-1.2Z"/><path class="cls-11" d="M81.37,112a.63.63,0,0,0,0-1.25.63.63,0,0,0,0,1.25Z"/><path class="cls-11" d="M89.62,113.11a.63.63,0,0,0,0-1.25.63.63,0,0,0,0,1.25Z"/><ellipse class="cls-1" cx="74.62" cy="17.4" rx="28.08" ry="8.67"/><ellipse class="cls-1" cx="68.31" cy="23.29" rx="10.42" ry="4.33"/><ellipse class="cls-1" cx="47.61" cy="16.18" rx="8.83" ry="3.92"/><ellipse class="cls-1" cx="95.2" cy="12.83" rx="3.22" ry="1.57"/><ellipse class="cls-1" cx="56.45" cy="12.26" rx="3.22" ry="1.57"/><ellipse class="cls-1" cx="40.89" cy="18.6" rx="4.96" ry="2.43"/><ellipse class="cls-1" cx="35.09" cy="21.3" rx="1.61" ry="0.79"/><ellipse class="cls-1" cx="38.23" cy="20.52" rx="1.61" ry="0.79"/><ellipse class="cls-1" cx="48.38" cy="21.03" rx="1.61" ry="0.79"/><ellipse class="cls-1" cx="77.12" cy="20.88" rx="1.61" ry="0.79"/><ellipse class="cls-1" cx="98.72" cy="13.05" rx="1.61" ry="0.79"/><ellipse class="cls-1" cx="105.89" cy="17.75" rx="3.19" ry="1.57"/><ellipse class="cls-1" cx="102.7" cy="19.59" rx="1.61" ry="0.79"/><path class="cls-11" d="M40.18,92.55a14.57,14.57,0,0,0-3-4.89l-.6,1a5,5,0,0,1,2,1.37.64.64,0,0,0,1.07-.45,21.6,21.6,0,0,0-.11-4.82l-1.15.49a38.41,38.41,0,0,1,2.11,6.29.63.63,0,0,0,1.14.15l1-2.26-1.16-.32a18.51,18.51,0,0,1,0,3.57l.8-.6c-.55-.08-2.54-.28-1.93-1.48H39.31a4.41,4.41,0,0,0,1.93,1.94.63.63,0,0,0,.85-.85l-1.77-3a.63.63,0,0,0-1.17.31,7.64,7.64,0,0,1-.84,3.45l1.16.31a6.94,6.94,0,0,0-.75-3.13c-.35-.73-1.43-.09-1.08.63a5.56,5.56,0,0,1,.58,2.5.63.63,0,0,0,1.17.32,9.32,9.32,0,0,0,1-4.08l-1.16.32,1.77,3,.86-.85A3.35,3.35,0,0,1,40.39,90a.62.62,0,0,0-1.08,0c-1,2,1,3.07,2.67,3.31a.63.63,0,0,0,.79-.6,18.51,18.51,0,0,0,0-3.57c-.06-.54-.89-.94-1.17-.31l-1,2.26,1.14.15a39,39,0,0,0-2.23-6.59c-.31-.72-1.22-.15-1.14.48a19.75,19.75,0,0,1,.07,4.48l1.07-.44a6.32,6.32,0,0,0-2.61-1.68.63.63,0,0,0-.61,1A12.9,12.9,0,0,1,39,92.89c.28.74,1.49.42,1.21-.34Z"/><path class="cls-5" d="M49.12,106.83c0,6.09-3.68,6.5-8.23,6.5s-8.22-.41-8.22-6.5,3.68-14.25,8.22-14.25S49.12,100.73,49.12,106.83Z"/><text class="cls-12" transform="translate(37.48 107.39)">€</text><path class="cls-11" d="M69.07,95.41a14.42,14.42,0,0,0,.46-5.58l-1.17.31a5.35,5.35,0,0,1,.92,2.46.63.63,0,0,0,1,.28A20.27,20.27,0,0,0,73.1,89L72,88.46a38.49,38.49,0,0,1-2.07,6.48c-.22.53.49,1,.92.71L73,94.42l-.86-.86a17.48,17.48,0,0,1-2,2.76H71c-.47-.46-1.75-1.7-.56-2.32l-.92-.7a4.85,4.85,0,0,0,.42,2.88c.29.62,1.11.23,1.16-.32l.33-3.43c.06-.69-.84-.75-1.17-.32a7.43,7.43,0,0,1-2.75,2.25l.86.86a6.75,6.75,0,0,0,1.2-2.82c.14-.78-1.07-1.12-1.21-.33a6,6,0,0,1-1.07,2.52c-.4.55.35,1.11.85.85a8.88,8.88,0,0,0,3.2-2.7l-1.16-.31-.33,3.43L71,95.55a2.84,2.84,0,0,1-.29-1.92.63.63,0,0,0-.92-.7c-2,1-.87,3.12.31,4.28a.64.64,0,0,0,.88,0,18.66,18.66,0,0,0,2.2-3,.63.63,0,0,0-.86-.85l-2.14,1.23.92.7a39.58,39.58,0,0,0,2.06-6.47A.63.63,0,0,0,72,88.32,19.11,19.11,0,0,1,69.44,92l1,.28a6,6,0,0,0-1-2.76c-.32-.42-1.24-.38-1.16.32a13.63,13.63,0,0,1-.41,5.24.62.62,0,0,0,1.2.34Z"/><path class="cls-5" d="M67.81,109.82c-6.06.59-5.06,2.55-10.48,2.81-4.53.21-6.38-5.2-2.78-10.11S66,93.22,69.62,95.9,77,108.92,67.81,109.82Z"/><text class="cls-12" transform="matrix(0.81, 0.59, -0.59, 0.81, 57.91, 105.44)">€</text><path class="cls-11" d="M50.9,95.94a14.1,14.1,0,0,0-3.59-4.28l-.61,1a5.42,5.42,0,0,1,2.38,1.1.63.63,0,0,0,.94-.54,20.7,20.7,0,0,0-.8-4.75L48.08,89a37.82,37.82,0,0,1,3,5.91.63.63,0,0,0,1.21,0L53,92.51h-1.2a17.48,17.48,0,0,1,.51,3.37l.63-.63c-.59,0-2.46.08-2-1.25l-1.14.15a4.67,4.67,0,0,0,2.31,1.75c.65.23,1-.62.61-1.05l-2.19-2.67a.64.64,0,0,0-1.07.45,7.93,7.93,0,0,1-.35,3.68h1.21a6.64,6.64,0,0,0-1.13-2.84c-.45-.66-1.54,0-1.08.63a5.9,5.9,0,0,1,1,2.54c.11.66,1,.53,1.21,0a8.8,8.8,0,0,0,.39-4l-1.06.44,2.18,2.67.61-1a3.08,3.08,0,0,1-1.56-1.17.64.64,0,0,0-1.15.15c-.69,2.13,1.58,2.84,3.24,2.83a.62.62,0,0,0,.62-.62,19.23,19.23,0,0,0-.56-3.7.63.63,0,0,0-1.2,0l-.67,2.39h1.21a38.94,38.94,0,0,0-3.15-6.21.63.63,0,0,0-1.14.48,19.56,19.56,0,0,1,.75,4.42l.94-.54A6,6,0,0,0,47,91.5c-.53-.08-1.16.6-.61,1a13.2,13.2,0,0,1,3.4,4c.39.7,1.47.07,1.08-.63Z"/><path class="cls-5" d="M61.86,108.81c.89,6-2.69,7-7.18,7.63s-8.2.8-9.09-5.23,1.56-14.63,6-15.29S61,102.78,61.86,108.81Z"/><text class="cls-12" transform="matrix(0.99, -0.15, 0.15, 0.99, 50.43, 111.07)">€</text><path class="cls-13" d="M109.37,73.48a.81.81,0,0,1-1.61,0c0-.44.36-.51.8-.51S109.37,73,109.37,73.48Z"/><line class="cls-14" x1="107.44" y1="73.31" x2="112.31" y2="73.31"/><path class="cls-13" d="M111.83,73.48a.8.8,0,0,1-1.6,0c0-.44.36-.51.8-.51S111.83,73,111.83,73.48Z"/></svg>