<svg id="Ebene_1" data-name="Ebene 1" xmlns="http://www.w3.org/2000/svg" viewBox="0 0 141.73 141.73"><defs><style>.cls-1,.cls-8{fill:#bfbdbe;}.cls-1,.cls-10,.cls-2,.cls-3,.cls-5,.cls-6,.cls-8{stroke:#fff;}.cls-1,.cls-10,.cls-13,.cls-14,.cls-3,.cls-5,.cls-6,.cls-8,.cls-9{stroke-linecap:round;}.cls-1,.cls-10,.cls-13,.cls-14,.cls-2,.cls-3,.cls-5,.cls-6,.cls-8,.cls-9{stroke-miterlimit:10;}.cls-1{stroke-width:0.75px;}.cls-2{fill:#e3d599;}.cls-2,.cls-3{stroke-width:2px;}.cls-3{fill:#646463;}.cls-4{fill:#96c347;}.cls-5{fill:#d1b95a;}.cls-10,.cls-13,.cls-14,.cls-5,.cls-6,.cls-8{stroke-width:0.25px;}.cls-7{fill:#ededed;}.cls-14,.cls-9{fill:none;}.cls-9{stroke:#bfbdbe;}.cls-10{fill:#42bac1;}.cls-11,.cls-12{fill:#fff;}.cls-12{font-size:12px;font-family:MyriadPro-Regular, Myriad Pro;}.cls-13,.cls-14{stroke:#1d1d1b;}</style></defs><title>Zeichenfläche 1 Kopie 7</title><ellipse class="cls-1" cx="35.62" cy="21.81" rx="3.22" ry="1.57"/><polygon class="cls-2" points="126.97 86.42 18.24 86.42 3.28 120.02 139.95 120.47 126.97 86.42"/><rect class="cls-3" x="35.89" y="52.9" width="69.81" height="40.92"/><polygon class="cls-3" points="44.72 93.97 27.25 93.97 30.61 23.38 40.15 23.38 44.72 93.97"/><path class="cls-4" d="M76,104.13c5.45-.1,10.89,0,16.33.33v-3.75l-26,.08v3.75a200.63,200.63,0,0,1,23.52.59v-3.75l-24.14,1a1.88,1.88,0,0,0,0,3.75c8.22.09,16.43.37,24.62.9v-3.75l-25.81,1a1.88,1.88,0,0,0,0,3.75l25.88.61v-3.75L79,105.35a1.88,1.88,0,0,0,0,3.75l15.22.63V106c-4.13.49-8.26.78-12.42,1a1.88,1.88,0,0,0,0,3.75l16.63.47v-3.75c-6.64.39-13.27.92-19.88,1.67-2.34.26-2.47,3.69,0,3.75l15.9.33v-3.75l-18.08.74a1.88,1.88,0,0,0,0,3.75l18.87.4v-3.75l-21.12.92a1.88,1.88,0,0,0,0,3.75l16.8.37v-3.75c-4.23.37-8.45.57-12.7.67a1.88,1.88,0,0,0,0,3.75l17.51.62v-3.75c-5,.49-10,.64-15.07.63v3.75l28.38-.15c2.42,0,2.4-3.64,0-3.75l-50.34-2.2v3.75l43.26-.47c2.44,0,2.37-3.54,0-3.75q-17.18-1.5-34.37-2.49v3.75l30.77-1a1.88,1.88,0,0,0,0-3.75c-10.7-.09-21.4-.54-32.06-1.48v3.75l21-.49c4.17-.09,10.14.88,14-1a1.9,1.9,0,0,0,.38-2.95c-2.11-2.24-8.18-1.84-10.9-2.14l-9.17-1c-2.54-.29-7-.07-9.16-1.5l.67,2.57c-.13.25,4.58-.1,5.7-.12,2.14,0,4.28,0,6.42.07,2.41,0,2.41-3.7,0-3.75-3.12-.07-13.53-1.68-15.35,1.91a1.92,1.92,0,0,0,.67,2.56c3.06,2,8.47,1.72,12,2.11l8.26.92c1.36.15,7.29,0,8.25,1l.38-3c-1.89.92-5.31.35-7.35.39l-8.61.2-17.21.4c-2.45.06-2.38,3.54,0,3.75,10.66.94,21.36,1.39,32.06,1.48v-3.75l-30.77,1a1.88,1.88,0,0,0,0,3.75q17.2,1,34.37,2.49v-3.75l-43.26.47a1.88,1.88,0,0,0,0,3.75l50.34,2.2v-3.75l-28.38.15a1.88,1.88,0,0,0,0,3.75c5,0,10.06-.14,15.07-.63a1.88,1.88,0,0,0,0-3.75l-17.51-.62v3.75c4.25-.1,8.47-.3,12.7-.67,2.38-.2,2.45-3.69,0-3.75l-16.8-.37v3.75l21.12-.92a1.88,1.88,0,0,0,0-3.75l-18.87-.4v3.75l18.08-.74a1.88,1.88,0,0,0,0-3.75l-15.9-.33v3.75c6.61-.75,13.24-1.28,19.88-1.67a1.88,1.88,0,0,0,0-3.75l-16.63-.47v3.75c4.16-.18,8.29-.47,12.42-1a1.88,1.88,0,0,0,0-3.75L79,105.35v3.75l11.28-.51a1.88,1.88,0,0,0,0-3.75l-25.88-.61V108l25.81-1a1.88,1.88,0,0,0,0-3.75c-8.19-.53-16.4-.81-24.62-.9v3.75l24.14-1a1.88,1.88,0,0,0,0-3.75,200.63,200.63,0,0,0-23.52-.59c-2.4.07-2.42,3.76,0,3.75l26.05-.08c2.43,0,2.4-3.61,0-3.75-5.44-.33-10.88-.43-16.33-.33-2.41,0-2.42,3.79,0,3.75Z"/><rect class="cls-5" x="97.49" y="72.51" width="3.18" height="19.93" rx="0.33" ry="0.33" transform="matrix(0.56, 0.83, -0.83, 0.56, 112.04, -45.78)"/><path class="cls-6" d="M99.81,73.2h2a.61.61,0,0,1,.61.61V89.44a0,0,0,0,1,0,0H99.2a0,0,0,0,1,0,0V73.8A.61.61,0,0,1,99.81,73.2Z" transform="translate(111.83 -47.72) rotate(55.99)"/><rect class="cls-6" x="106.05" y="92.35" width="2.85" height="19.59" rx="0.33" ry="0.33"/><rect class="cls-6" x="110.69" y="92.35" width="2.85" height="19.59" rx="0.33" ry="0.33"/><path class="cls-6" d="M106.3,75.31h7a.77.77,0,0,1,.77.77v19a1.63,1.63,0,0,1-1.63,1.63h-5.32a1.63,1.63,0,0,1-1.63-1.63V76.1A.79.79,0,0,1,106.3,75.31Z"/><rect class="cls-5" x="113.71" y="77.09" width="2.85" height="19.59" rx="0.33" ry="0.33"/><path class="cls-6" d="M106.39,109.35h2a.61.61,0,0,1,.61.61V113a0,0,0,0,1,0,0h-3.19a0,0,0,0,1,0,0V110A.61.61,0,0,1,106.39,109.35Z"/><path class="cls-6" d="M111.13,109.35h2a.61.61,0,0,1,.61.61V113a0,0,0,0,1,0,0h-3.19a0,0,0,0,1,0,0V110A.61.61,0,0,1,111.13,109.35Z"/><path class="cls-6" d="M114.15,76.58h2a.61.61,0,0,1,.61.61V92.83a0,0,0,0,1,0,0h-3.19a0,0,0,0,1,0,0V77.19a.61.61,0,0,1,.61-.61Z"/><polygon class="cls-7" points="109.88 83.18 108.1 75.72 111.67 75.72 109.88 83.18"/><ellipse class="cls-5" cx="109.88" cy="72.42" rx="2.68" ry="4.17"/><path class="cls-4" d="M109.88,78.2h0c-.28,0-.49-.08-.49-.41l-.1-.86c0-.33.31-.1.59-.1h0c.29,0,.67-.24.67.09l-.15,1C110.4,78.26,110.17,78.2,109.88,78.2Z"/><path class="cls-4" d="M110,83.44h-.12c-.15,0-.22,0-.39-.26l.12-4.76a.3.3,0,0,1,.27-.32H110a.3.3,0,0,1,.26.32l.15,4.76C110.21,83.54,110.12,83.44,110,83.44Z"/><rect class="cls-8" x="89.79" y="88.09" width="1.29" height="1.29" rx="0.56" ry="0.56" transform="translate(122.07 -33.95) rotate(60)"/><rect class="cls-8" x="90.87" y="89.12" width="0.45" height="0.93" rx="0.15" ry="0.15"/><rect class="cls-8" x="83.44" y="100.53" width="22.29" height="1.33" rx="0.67" ry="0.67" transform="translate(195.78 6.61) rotate(90)"/><rect class="cls-8" x="85.42" y="90.05" width="9.83" height="1.33" rx="0.67" ry="0.67"/><line class="cls-9" x1="94.54" y1="90.95" x2="94.54" y2="91.81"/><line class="cls-9" x1="94.64" y1="90.75" x2="94.64" y2="91.61"/><rect class="cls-10" x="75.11" y="102.11" width="22.29" height="0.83" rx="0.33" ry="0.33" transform="translate(188.78 16.28) rotate(90)"/><path class="cls-8" d="M85.94,89.88h.58a.67.67,0,0,1,.67.67v2a0,0,0,0,1,0,0H85.27a0,0,0,0,1,0,0v-2A.67.67,0,0,1,85.94,89.88Z"/><path class="cls-11" d="M85.92,112.26a.5.5,0,0,1-.44-.49l-1,.61a5.83,5.83,0,0,1,1,1.23c.36.57,1.43.19,1.14-.48l-.43-1-1.14.48a1.19,1.19,0,0,0,2.29-.42L86,112l-.06.74a.63.63,0,0,0,1.07.44l.58-.56-1-.61c-.15.46-.07.49-.47.31a1.51,1.51,0,0,0-.59-.11c-.47,0-1,.47-1.44.36l-.17,1.23a30,30,0,0,0,4.34.2c.67,0,.89-1.12.17-1.23-.33-.06-1,0-1.24-.24l.28.38v0c.25-.77-1-1.1-1.21-.33-.38,1.19,1.06,1.25,1.84,1.37l.16-1.22a30,30,0,0,1-4.34-.2c-.7-.08-.84,1.07-.17,1.23a1.93,1.93,0,0,0,1.09-.06,2.56,2.56,0,0,1,.58-.22c.34,0,.39.16.68.26,1,.34,1.45-.68,1.7-1.41a.63.63,0,0,0-1.05-.61l-.57.56,1.06.44.06-.74a.63.63,0,0,0-1.23-.16V112c-.33-.61-1.43-.19-1.15.48l.44,1,1.14-.48a7.34,7.34,0,0,0-1.17-1.48.63.63,0,0,0-1,.61,1.84,1.84,0,0,0,1.32,1.36c.79.15,1.12-1,.33-1.21Z"/><ellipse class="cls-1" cx="74.67" cy="15.88" rx="28.08" ry="8.67"/><ellipse class="cls-1" cx="47.67" cy="14.66" rx="8.83" ry="3.92"/><ellipse class="cls-1" cx="56.5" cy="10.74" rx="3.22" ry="1.57"/><ellipse class="cls-1" cx="40.95" cy="17.09" rx="4.96" ry="2.43"/><ellipse class="cls-1" cx="35.14" cy="19.79" rx="1.61" ry="0.79"/><ellipse class="cls-1" cx="38.29" cy="19" rx="1.61" ry="0.79"/><path class="cls-11" d="M40.23,91a14.33,14.33,0,0,0-3-4.9l-.61,1a5,5,0,0,1,2.06,1.36.63.63,0,0,0,1.06-.44,20.45,20.45,0,0,0-.11-4.82l-1.14.48a37.76,37.76,0,0,1,2.1,6.29.63.63,0,0,0,1.14.15l1-2.26-1.17-.31a18.41,18.41,0,0,1,0,3.56l.79-.6c-.55-.08-2.53-.28-1.93-1.48H39.36a4.49,4.49,0,0,0,1.93,1.95.63.63,0,0,0,.85-.86l-1.77-3a.64.64,0,0,0-1.17.32A7.6,7.6,0,0,1,38.36,91l1.16.31a7.06,7.06,0,0,0-.74-3.13c-.36-.73-1.44-.09-1.08.63a5.42,5.42,0,0,1,.57,2.5.63.63,0,0,0,1.17.32,9,9,0,0,0,1-4.07l-1.16.31,1.77,3,.86-.85a3.41,3.41,0,0,1-1.48-1.5.63.63,0,0,0-1.08,0c-1,2,1,3.07,2.68,3.32a.64.64,0,0,0,.79-.61,18.41,18.41,0,0,0,0-3.56c-.05-.54-.88-1-1.16-.32l-1,2.26,1.15.15a40.25,40.25,0,0,0-2.23-6.59c-.31-.71-1.23-.15-1.15.48a18.73,18.73,0,0,1,.07,4.49l1.07-.45A6.32,6.32,0,0,0,36.94,86a.63.63,0,0,0-.61,1A12.79,12.79,0,0,1,39,91.37c.28.75,1.48.42,1.2-.33Z"/><path class="cls-5" d="M49.17,105.31c0,6.09-3.68,6.5-8.22,6.5s-8.23-.41-8.23-6.5S36.41,91.06,41,91.06,49.17,99.22,49.17,105.31Z"/><text class="cls-12" transform="translate(37.53 105.87)">€</text><path class="cls-5" d="M61.87,110.6c5.71,2.12-2.65,3.66-7.14,4.33s-13.59-1.13-9.08-5.23c3.46-3.16,3.17-2.19,7.66-2.85S57,108.79,61.87,110.6Z"/><path class="cls-13" d="M108,72.08a.8.8,0,0,1-1.6,0c0-.44.35-.51.8-.51S108,71.64,108,72.08Z"/><line class="cls-14" x1="107.68" y1="72.1" x2="112.56" y2="72.1"/><path class="cls-13" d="M110.09,72.17a.8.8,0,0,1-1.6,0c0-.45.36-.52.8-.52S110.09,71.72,110.09,72.17Z"/></svg>