<svg id="Ebene_1" data-name="Ebene 1" xmlns="http://www.w3.org/2000/svg" viewBox="0 0 141.73 141.73"><defs><style>.cls-1,.cls-8{fill:#bfbdbe;}.cls-1,.cls-2,.cls-3,.cls-4,.cls-5,.cls-8{stroke:#fff;}.cls-1,.cls-10,.cls-11,.cls-3,.cls-4,.cls-5,.cls-8,.cls-9{stroke-linecap:round;}.cls-1,.cls-10,.cls-11,.cls-12,.cls-2,.cls-3,.cls-4,.cls-5,.cls-8,.cls-9{stroke-miterlimit:10;}.cls-1{stroke-width:0.75px;}.cls-2{fill:#e3d599;}.cls-2,.cls-3{stroke-width:2px;}.cls-3{fill:#646463;}.cls-4{fill:#d1b95a;}.cls-10,.cls-11,.cls-12,.cls-4,.cls-5,.cls-8{stroke-width:0.25px;}.cls-6{fill:#ededed;}.cls-7{fill:#96c347;}.cls-11,.cls-9{fill:none;}.cls-9{stroke:#bfbdbe;}.cls-10,.cls-11{stroke:#1d1d1b;}.cls-12{stroke:#000;}</style></defs><title>Zeichenfläche 1 Kopie 9</title><ellipse class="cls-1" cx="34.91" cy="22.52" rx="3.22" ry="1.57"/><polygon class="cls-2" points="126.26 87.12 17.53 87.12 2.58 120.72 139.25 121.18 126.26 87.12"/><rect class="cls-3" x="35.18" y="53.6" width="69.81" height="40.92"/><polygon class="cls-3" points="44.01 94.67 26.55 94.67 29.91 24.09 39.45 24.09 44.01 94.67"/><rect class="cls-4" x="96.78" y="73.22" width="3.18" height="19.93" rx="0.33" ry="0.33" transform="translate(112.31 -44.89) rotate(55.99)"/><path class="cls-5" d="M99.1,73.9h2a.61.61,0,0,1,.61.61V90.14a0,0,0,0,1,0,0H98.5a0,0,0,0,1,0,0V74.51A.61.61,0,0,1,99.1,73.9Z" transform="translate(112.1 -46.83) rotate(55.99)"/><rect class="cls-5" x="105.35" y="93.06" width="2.85" height="19.59" rx="0.33" ry="0.33"/><rect class="cls-5" x="109.99" y="93.06" width="2.85" height="19.59" rx="0.33" ry="0.33"/><path class="cls-5" d="M105.6,76h7a.77.77,0,0,1,.77.77v19a1.63,1.63,0,0,1-1.63,1.63h-5.32a1.63,1.63,0,0,1-1.63-1.63V76.81a.79.79,0,0,1,.79-.79Z"/><rect class="cls-4" x="113.01" y="77.8" width="2.85" height="19.59" rx="0.33" ry="0.33"/><path class="cls-5" d="M105.69,110.05h2a.61.61,0,0,1,.61.61v3.09a0,0,0,0,1,0,0h-3.19a0,0,0,0,1,0,0v-3.09A.61.61,0,0,1,105.69,110.05Z"/><path class="cls-5" d="M110.43,110.05h2a.61.61,0,0,1,.61.61v3.09a0,0,0,0,1,0,0h-3.19a0,0,0,0,1,0,0v-3.09A.61.61,0,0,1,110.43,110.05Z"/><path class="cls-5" d="M113.45,77.29h2a.61.61,0,0,1,.61.61V93.53a0,0,0,0,1,0,0h-3.19a0,0,0,0,1,0,0V77.89A.61.61,0,0,1,113.45,77.29Z"/><polygon class="cls-6" points="109.18 83.88 107.4 76.42 110.96 76.42 109.18 83.88"/><ellipse class="cls-4" cx="109.18" cy="73.12" rx="2.68" ry="4.17"/><path class="cls-7" d="M109.18,78.9h0c-.28,0-.49-.08-.49-.41l-.1-.85c0-.33.31-.11.59-.11h0c.28,0,.66-.23.66.09l-.14,1C109.7,79,109.46,78.9,109.18,78.9Z"/><path class="cls-7" d="M109.28,84.15h-.13c-.14,0-.22,0-.39-.27l.13-4.76a.3.3,0,0,1,.26-.32h.13a.3.3,0,0,1,.26.32l.15,4.76C109.5,84.24,109.42,84.15,109.28,84.15Z"/><rect class="cls-8" x="89.09" y="88.8" width="1.29" height="1.29" rx="0.56" ry="0.56" transform="translate(122.33 -32.99) rotate(60)"/><rect class="cls-8" x="90.17" y="89.83" width="0.45" height="0.93" rx="0.15" ry="0.15"/><rect class="cls-8" x="82.74" y="101.23" width="22.29" height="1.33" rx="0.67" ry="0.67" transform="translate(195.78 8.02) rotate(90)"/><rect class="cls-8" x="84.72" y="90.76" width="9.83" height="1.33" rx="0.67" ry="0.67"/><line class="cls-9" x1="93.84" y1="91.66" x2="93.84" y2="92.52"/><line class="cls-9" x1="93.94" y1="91.46" x2="93.94" y2="92.32"/><ellipse class="cls-1" cx="34.44" cy="20.49" rx="1.61" ry="0.79"/><ellipse class="cls-1" cx="37.58" cy="19.7" rx="1.61" ry="0.79"/><path class="cls-8" d="M85.24,90.59h.58a.67.67,0,0,1,.67.67v2a0,0,0,0,1,0,0H84.57a0,0,0,0,1,0,0v-2A.67.67,0,0,1,85.24,90.59Z"/><path class="cls-10" d="M115,98a.8.8,0,1,1-.08-1.6c.45,0,.53.33.55.78S115.42,97.94,115,98Z"/><line class="cls-11" x1="114.79" y1="95.52" x2="115.41" y2="100.36"/><path class="cls-10" d="M115.28,100.2a.8.8,0,1,1-.08-1.6c.45,0,.53.33.55.77S115.73,100.18,115.28,100.2Z"/><circle cx="109.61" cy="72.89" r="0.23"/><circle cx="107.61" cy="72.89" r="0.23"/><rect class="cls-12" x="108" y="74.28" width="1.17" height="1.95" rx="0.58" ry="0.58"/></svg>