<?xml version="1.0" encoding="utf-8"?>
<!-- Generator: Adobe Illustrator 22.1.0, SVG Export Plug-In . SVG Version: 6.00 Build 0)  -->
<svg version="1.1" id="Ebene_1" xmlns="http://www.w3.org/2000/svg" xmlns:xlink="http://www.w3.org/1999/xlink" x="0px" y="0px"
	 viewBox="0 0 141.7 141.7" style="enable-background:new 0 0 141.7 141.7;" xml:space="preserve">
<style type="text/css">
	.st0{stroke:#FFFFFF;stroke-width:4;stroke-miterlimit:10;}
</style>
<title>Zeichenfläche 2 Kopie 10</title>
<path class="st0" d="M78.5,90.4c-6.7-8.3-5-23.8,3.7-34.6c0.1-0.2,0.3-0.3,0.4-0.5L64.1,43.6C29.2,37.7,8.8,63.2,8.8,102.9h74.8
	c7.3,0,13.6-4.7,17.2-11.8C93,97,83.8,97,78.5,90.4z"/>
<polygon class="st0" points="120.5,39.9 118.2,36.1 109.7,46.2 112,50 "/>
<path class="st0" d="M86.2,53.2C76,63.6,71.8,79.4,76.6,88.3s17,7.8,27.2-2.7c7.3-7.6,11.6-17.9,11.5-26.5c-0.3-3.3-1.3-6.5-2.9-9.4
	c-0.7-1.2-1.5-2.3-2.5-3.3C104,42.3,94.4,44.7,86.2,53.2z"/>
<ellipse transform="matrix(0.3213 -0.947 0.947 0.3213 47.0061 142.9159)" class="st0" cx="123.2" cy="38.7" rx="3.9" ry="5.4"/>
<ellipse transform="matrix(0.995 -9.966708e-02 9.966708e-02 0.995 -2.6532 11.877)" class="st0" cx="117.5" cy="32.5" rx="3.9" ry="5.4"/>
<ellipse transform="matrix(0.7922 -0.6103 0.6103 0.7922 2.6873 80.8211)" cx="120" cy="36.5" rx="2.2" ry="3.6"/>
</svg>
