<?xml version="1.0" encoding="utf-8"?>
<!-- Generator: Adobe Illustrator 22.1.0, SVG Export Plug-In . SVG Version: 6.00 Build 0)  -->
<svg version="1.1" id="Ebene_1" xmlns="http://www.w3.org/2000/svg" xmlns:xlink="http://www.w3.org/1999/xlink" x="0px" y="0px"
	 viewBox="0 0 141.7 141.7" style="enable-background:new 0 0 141.7 141.7;" xml:space="preserve">
<style type="text/css">
	.st0{stroke:#FFFFFF;stroke-width:4;stroke-miterlimit:10;}
</style>
<title>Zeichenfläche 2 Kopie 7</title>
<path class="st0" d="M70.8,10.2c-10.6,0-19.2,8.2-19.2,18.3v48.3c3.4,2.4,7.1,8.1,9.6,15.4v-2.9c0-18.2,4.4-33,9.8-33
	s9.1,14.8,9.8,33c0,0.8,0.1,1.5,0.1,2.3c2.5-6.5,6-11.6,9.2-13.8V28.4C90,18.4,81.4,10.2,70.8,10.2z"/>
<path class="st0" d="M101.9,69.3c-2.7-11.5-1.5-7.4-4.5-1.9c-0.8,1.5-2.6,2.4-3.9,3.7C80.8,83.7,74.6,102.3,76,112.4
	c0.2,1.5,1.5,2.5,3,2.3c0.5-0.1,1-0.3,1.5-0.7c2.5-2.3,4.7-4.9,6.7-7.8c0.1-0.1,0.1-0.2,0.2-0.3c3.1-5.7,6.6-12.7,10.4-19.4
	c0-0.1,0.1-0.2,0.2-0.3C101.9,80.7,102.8,73.3,101.9,69.3z"/>
<path class="st0" d="M41.9,69.3c2.7-11.5,1.5-7.4,4.5-1.9c0.8,1.5,2.6,2.4,4,3.7c12.6,12.6,18.8,31.2,17.4,41.3
	c-0.2,1.5-1.5,2.5-3,2.3c-0.5-0.1-1-0.3-1.5-0.7c-2.5-2.3-4.7-4.9-6.7-7.8c-0.1-0.1-0.1-0.2-0.2-0.3c-3.1-5.7-6.7-12.7-10.4-19.4
	c-0.1-0.1-0.1-0.3-0.2-0.3C41.8,80.7,40.9,73.3,41.9,69.3z"/>
<ellipse class="st0" cx="70.9" cy="88.6" rx="8.9" ry="32.2"/>
</svg>
