<?xml version="1.0" encoding="utf-8"?>
<!-- Generator: Adobe Illustrator 22.1.0, SVG Export Plug-In . SVG Version: 6.00 Build 0)  -->
<svg version="1.1" id="Ebene_1" xmlns="http://www.w3.org/2000/svg" xmlns:xlink="http://www.w3.org/1999/xlink" x="0px" y="0px"
	 viewBox="0 0 141.7 141.7" style="enable-background:new 0 0 141.7 141.7;" xml:space="preserve">
<style type="text/css">
	.st0{stroke:#FFFFFF;stroke-width:3;stroke-miterlimit:10;}
</style>
<title>Zeichenfläche 2 Kopie 13</title>
<path class="st0" d="M100.7,13.4L80.6,23.7c-0.6,0.3-1,0.9-1,1.6v22l12.1,3.5c1.5,0.4,0,3.5-1.1,4.5l-15,14.9l6.3,4l2.3,2l2,1.8
	l2.1,2l2.4,2.3l4.7,3.9l7.6-3.3V14.9c0-0.9-0.7-1.7-1.6-1.7C101.2,13.2,100.9,13.3,100.7,13.4z"/>
<path class="st0" d="M92.4,53.7c0.7-0.7,0.7-1.7,0-2.4c-0.2-0.2-0.4-0.3-0.6-0.4l-19.5-6.8c-0.3-0.2-0.8-0.4-1.2-0.3l-0.7,0.5
	l-49,48.4c-0.7,0.7-0.7,1.7,0,2.4c0.2,0.2,0.5,0.4,0.7,0.4l17.4,4.8c0.5,0.1,1,0.3,1.5,0.5c0.8,0.4,1.7,0.6,2.7,0.5
	c1-0.1,1.5-1.5,2-2.3l1-1.9c0-0.6,5-6.2,5.7-6.1l1.3,0.3c0.4,0.1,0.8-0.1,1.1-0.3L78.9,67L92.4,53.7z"/>
<path class="st0" d="M94.8,97.7c1.1,0.2,2.1-0.4,2.5-1.4c0.9-2.6-0.3-7.6-0.6-8.2l-0.9-3l0,0c-0.5-1-1.2-1.9-1.9-2.8
	c-0.6-0.6-1.8-1.8-2.6-2.6c-0.6-0.6-1.2-1.2-1.9-1.8l-1.5-1.1c-0.2-0.2-0.5-0.3-0.7-0.5c-1.1-0.7-4.4-2.9-4.5-3L76.1,70
	c-1.1,0-1.8,2.9-2.1,4.3l-4.2,16c-0.3,1.2,0.4,2.4,1.6,2.7c0,0,0,0,0.1,0l3,0.7L76,94L94.8,97.7z"/>
<path class="st0" d="M64.9,117.2c-0.2,1.1-1.2,1.9-2.3,1.8c-2.7-0.2-7-3-7.4-3.6l-2.4-2l0,0c-0.7-0.8-1.3-1.8-1.8-2.8
	c-0.4-0.8-1-2.3-1.5-3.3c-0.4-0.8-0.7-1.6-0.9-2.4l-0.5-1.8c-0.1-0.3-0.2-0.6-0.2-0.8c-0.3-1.3-1.1-5.1-1.1-5.3l-0.7-7.3
	c0.3-1,3.3-0.6,4.7-0.4l16.4,2c1.2,0.1,2.1,1.2,1.9,2.4c0,0,0,0,0,0.1l-0.5,3.1l-0.3,1.6L64.9,117.2z"/>
<path class="st0" d="M111.1,126.5c0.6,0.9,1.8,1.3,2.8,0.8c2.4-1.2,5.3-5.5,5.4-6.2l1.5-2.8l0,0c0.3-1.1,0.5-2.2,0.6-3.3
	c0.1-0.8,0.1-2.5,0.1-3.6c0-0.9,0-1.7-0.1-2.6l-0.2-1.9c0-0.3-0.1-0.6-0.1-0.8c-0.2-1.3-1-5.2-1-5.3l-2.2-7
	c-0.7-0.8-3.3,0.7-4.5,1.4L99,103.3c-1,0.6-1.4,2-0.8,3l1.6,2.7l0.8,1.3L111.1,126.5z"/>
<path class="st0" d="M76.2,118.9c-0.9,0.6-2.1,0.4-2.9-0.4c-1.8-2-2.7-7.1-2.6-7.8l-0.3-3.1l0,0c0.1-1.1,0.4-2.2,0.7-3.3
	c0.3-0.8,1-2.4,1.3-3.4c0.3-0.8,0.7-1.6,1.1-2.4l1-1.6c0.1-0.3,0.3-0.5,0.4-0.7c0.7-1.1,2.9-4.4,3-4.5l4.8-5.6c1-0.5,2.8,2,3.6,3.1
	l10,13.1c0.7,1,0.5,2.3-0.4,3.1c0,0,0,0-0.1,0l-2.5,1.8l-1.3,0.9L76.2,118.9z"/>
</svg>
