<?xml version="1.0" encoding="utf-8"?>
<!-- Generator: Adobe Illustrator 22.1.0, SVG Export Plug-In . SVG Version: 6.00 Build 0)  -->
<svg version="1.1" id="Ebene_1" xmlns="http://www.w3.org/2000/svg" xmlns:xlink="http://www.w3.org/1999/xlink" x="0px" y="0px"
	 viewBox="0 0 141.7 141.7" style="enable-background:new 0 0 141.7 141.7;" xml:space="preserve">
<style type="text/css">
	.st0{stroke:#FFFFFF;stroke-width:4;stroke-miterlimit:10;}
</style>
<title>Zeichenfläche 18</title>
<path class="st0" d="M101,78.3c-11.9,34.2,4.6,48.4-23.7,49.3c-28.8,0.8-13.4-10.4-39.3-48.7c-20.3-30.1,3.3-43.3,24.5-48.1
	S113.8,41.7,101,78.3z"/>
<path class="st0" d="M42.2,48c-3,7.6-16.1,2.4-22.3-5.4s1-21.4,7-26.2s-6.2,11.1,0,18.9S44.8,41.6,42.2,48z"/>
<path class="st0" d="M88.8,41.9c2.9,7.6,16.1,2.5,22.4-5.3s-0.7-21.4-6.8-26.2s6.1,11.1-0.2,18.9S86.3,35.5,88.8,41.9z"/>
<path class="st0" d="M13.9,58.4c1.4,4,14.5,9.7,19.4,6.1c2.5-1.8,1.8-4.6-0.5-7.9s-14.4-3.8-17.3-2.7C13,54.8,12.5,54.5,13.9,58.4z"
	/>
<path class="st0" d="M117.9,50.6c-2.5,3.9-16.9,8.7-20.7,4.7c-1.9-2-0.4-4.7,2.8-7.9s15.1-2.7,17.6-1.4
	C119.8,47,120.4,46.8,117.9,50.6z"/>
</svg>
