<?xml version="1.0" encoding="utf-8"?>
<!-- Generator: Adobe Illustrator 22.1.0, SVG Export Plug-In . SVG Version: 6.00 Build 0)  -->
<svg version="1.1" id="Ebene_1" xmlns="http://www.w3.org/2000/svg" xmlns:xlink="http://www.w3.org/1999/xlink" x="0px" y="0px"
	 viewBox="0 0 972.5 620.5" style="enable-background:new 0 0 972.5 620.5;" xml:space="preserve">
<style type="text/css">
	.st0{display:none;fill:#018D89;}
	.st1{fill:#FFFFFF;}
	.st2{fill:#646463;}
	.st3{fill:#817B5A;}
	.st4{fill:#C4B883;}
	.st5{fill:#ECE3BD;}
	.st6{fill:#E2D499;}
	.st7{fill:none;stroke:#FFFFFF;stroke-width:12;stroke-miterlimit:10;}
</style>
<rect x="-307" y="-191" class="st0" width="1497" height="909"/>
<g>
	<g>
		<g>
			<path class="st1" d="M729.2,475.6c-83.4,0-166.8,0-250.1,0c3.2-122.5,81.6-227.7,84.9-350.2c83.4,0,166.8,0,250.1,0
				C810.8,247.9,732.4,353.1,729.2,475.6z"/>
		</g>
		<g>
			<g>
				<g>
					<path class="st2" d="M656.7,175.6c0.1-0.7,0.2-1.4,0.4-2.1c-1.5,1.4-3.6,2.3-5.7,2.3c-3.9,0-6.5-3-5.9-6.7
						c0.6-3.7,4.1-6.7,8-6.7c3.9,0,6.6,3,6,6.7c-0.4,2.6-0.6,3.9-1.1,6.5C658.3,175.9,656.6,175.9,656.7,175.6z M651.7,173.9
						c2.9,0,5.6-2.3,6-4.8c0.4-2.6-1.6-4.8-4.5-4.8s-5.5,2.3-5.9,4.8C646.9,171.6,648.8,173.9,651.7,173.9z"/>
				</g>
				<g>
					<path class="st2" d="M672.8,178c0.1-0.7,0.7-3.8,0.8-4.5c-1.5,1.4-3.6,2.3-5.7,2.3c-3.9,0-6.5-3-5.9-6.7c0.6-3.7,4.1-6.7,8-6.7
						c3.9,0,6.6,3,6,6.7c-0.6,3.6-0.9,5.3-1.5,8.9C674.4,178.3,672.7,178.3,672.8,178z M668.2,173.9c2.9,0,5.6-2.3,6-4.8
						c0.4-2.6-1.6-4.8-4.5-4.8c-2.9,0-5.5,2.3-5.9,4.8C663.4,171.6,665.3,173.9,668.2,173.9z"/>
				</g>
				<g>
					<path class="st2" d="M691.9,169.1c-0.6,3.7-4.1,6.7-7.8,6.7c-3.7,0-6.1-3-5.5-6.7c0.6-3.7,0.9-6.2,0.9-6.2
						c0-0.3,0.5-0.6,0.9-0.6c0.5,0,0.8,0.3,0.8,0.6c0,0-0.5,3.6-0.9,6.2c-0.4,2.6,1.4,4.8,4.1,4.8c2.7,0,5.3-2.3,5.7-4.8
						c0.4-2.6,0.9-6.2,0.9-6.2c0-0.3,0.5-0.6,0.9-0.6s0.8,0.3,0.8,0.6C692.8,162.9,692.5,165.4,691.9,169.1z"/>
				</g>
				<g>
					<path class="st2" d="M705.7,175.6c0.1-0.7,0.2-1.4,0.4-2.1c-1.5,1.4-3.6,2.3-5.7,2.3c-3.9,0-6.5-3-5.9-6.7
						c0.6-3.7,4.1-6.7,8-6.7c3.9,0,6.6,3,6,6.7c-0.4,2.6-0.6,3.9-1.1,6.5C707.3,175.9,705.6,175.9,705.7,175.6z M700.6,173.9
						c2.9,0,5.6-2.3,6-4.8c0.4-2.6-1.6-4.8-4.5-4.8s-5.5,2.3-5.9,4.8C695.8,171.6,697.8,173.9,700.6,173.9z"/>
				</g>
				<g>
					<path class="st2" d="M712.6,169.1c-0.4,2.7,1.4,4.9,4,4.9c2.6,0,6.2,0,6.2,0c0.3,0,0.6,0.4,0.5,0.8c-0.1,0.5-0.4,0.8-0.8,0.8
						c0,0-2.5,0-6.2,0c-3.7,0-5.9-3-5.6-6.7c0.5-2.4,0.7-3.6,1.1-6c0-0.3,0.5-0.6,0.9-0.6s0.8,0.3,0.8,0.6
						C713.5,163.1,713.1,166.4,712.6,169.1z"/>
				</g>
				<g>
					<path class="st2" d="M727.4,175.1c-0.1,0.3-0.5,0.6-1,0.6c-0.5,0-0.8-0.3-0.7-0.6c0,0,1.9-12.2,1.9-12.2
						c0.1-0.2,0.5-0.6,0.9-0.6c0.5,0,0.8,0.3,0.8,0.6C728.7,167.8,728.3,170.2,727.4,175.1z"/>
				</g>
				<g>
					<path class="st2" d="M737.2,162.2c0.1,0,0.2,0,0.3,0c0.1,0,0.2,0,0.3,0c1.9,0,2.9,0,4.8,0c0.3,0,0.6,0.4,0.5,0.8
						c-0.1,0.5-0.4,0.8-0.8,0.8c0,0-2,0-4.3,0c-0.6,4.5-1,6.7-1.8,11.2c-0.1,0.3-0.5,0.6-1,0.6c-0.5,0-0.8-0.3-0.7-0.6
						c0,0,1.3-8.1,1.8-11.2c-2.3,0-4.3,0-4.3,0c-0.2-0.1-0.6-0.4-0.5-0.8c0.1-0.5,0.4-0.8,0.8-0.8
						C734.3,162.2,735.3,162.2,737.2,162.2z"/>
				</g>
				<g>
					<path class="st2" d="M758,162.9c0,0,0,0-0.5,3.7c0,0.2-0.1,0.4-0.1,0.5c-0.7,3.6-0.7,4.4-0.7,4.4c-0.5,4.1-3.8,5.8-7.5,5.8
						s-2.8,0-2.8,0c-0.3,0-0.6-0.4-0.5-0.8c0.1-0.5,0.5-0.8,0.8-0.8c0,0,0.3,0,2.8,0c2.6,0,5-0.9,5.4-3.6c0-0.1,0.1-0.2,0.1-0.3
						c0,0,0-0.1,0-0.1c0-0.2,0-0.3,0.1-0.4c-1.4,1.4-2.9,2.2-4.9,2.2c-3.7,0-5.8-3-5.3-6.7c0.6-3.7,0.6-3.7,0.6-3.7
						c0-0.3,0.5-0.6,0.9-0.6s0.8,0.3,0.8,0.6c0,0-0.2,1.2-0.5,3.7s1.1,4.8,3.9,4.8c2.6,0,4.7-2.1,5.3-4.6c0.2-1.6,0.4-2.4,0.6-3.9
						c0-0.3,0.5-0.6,0.9-0.6c0,0,0,0,0,0C757.7,162.2,758,162.5,758,162.9z M755,171.1C755,171.1,755.1,171,755,171.1
						C755.3,169.9,755.1,170.9,755,171.1z"/>
				</g>
			</g>
			<g>
				<g>
					<g>
						<path class="st2" d="M641.2,174.1c-5.8,12.7-30.3,12.7-26.8-3.8c0,0,0,0,0-0.1c0,0,0-0.1,0-0.1c0,0,0,0,0,0
							c0.6-3.6,6.2-3.6,5.6,0c0,0,0,0,0,0c0,0,0,0,0,0.1c0,0,0,0,0,0c0,0,0,0,0,0.1c0,0,0,0.1,0,0.1c0,0,0,0.1,0,0.1
							c0,0,0,0.1,0,0.1c0,0,0,0.1,0,0.1c0,0.1,0,0.2,0,0.3c0,0,0,0.1,0,0.1c0,0,0,0.1,0,0.1c0,0.1,0,0.2,0,0.2c0,0,0,0.1,0,0.1
							c0,0.1,0,0.1,0,0.2c0,0,0,0.1,0,0.1c0,0,0,0.1,0,0.1c0,0,0,0.1,0,0.1c0,0,0,0.1,0,0.1c0,0.1,0,0.1,0.1,0.2
							c0,0.1,0.1,0.1,0.1,0.2c0,0,0,0.1,0,0.1c0.1,0.3,0.3,0.5,0.5,0.8c0,0,0,0.1,0.1,0.1c0.4,0.4,0.8,0.7,1.3,0.9c0,0,0.1,0,0.1,0
							c0.1,0,0.1,0,0.2,0.1c0.1,0,0.1,0,0.2,0.1c0,0,0.1,0,0.1,0c0.1,0,0.1,0,0.2,0c0,0,0,0,0,0c0,0,0.1,0,0.1,0c0,0,0.1,0,0.1,0
							c0.1,0,0.1,0,0.2,0c0.2,0,0.5,0,0.7,0c0.1,0,0.2,0,0.3,0c0.1,0,0.2,0,0.3,0c0.1,0,0.1,0,0.2,0c0,0,0.1,0,0.1,0
							c0.1,0,0.1,0,0.2-0.1c0,0,0.1,0,0.1,0c0.1,0,0.1-0.1,0.2-0.1c0,0,0.1,0,0.1,0c0.1,0,0.1-0.1,0.2-0.1c0.1,0,0.1-0.1,0.2-0.1
							c0.1,0,0.1-0.1,0.2-0.1c0.1,0,0.1-0.1,0.2-0.1c0,0,0.1,0,0.1-0.1c0.1-0.1,0.2-0.1,0.3-0.2c0.1,0,0.1-0.1,0.2-0.1
							c0.1-0.1,0.2-0.2,0.4-0.3c0,0,0.1-0.1,0.1-0.1c0.1-0.1,0.2-0.2,0.3-0.3c0-0.1,0.1-0.1,0.1-0.2c0.1-0.1,0.1-0.1,0.2-0.2
							c0,0,0-0.1,0.1-0.1c0,0,0-0.1,0.1-0.1c0,0,0-0.1,0.1-0.1c0,0,0-0.1,0.1-0.1c0,0,0-0.1,0.1-0.1c0,0,0-0.1,0.1-0.1
							c0-0.1,0.1-0.1,0.1-0.2c0,0,0-0.1,0.1-0.1c0,0,0-0.1,0.1-0.1c0-0.1,0.1-0.1,0.1-0.2c0,0,0-0.1,0-0.1c0-0.1,0.1-0.1,0.1-0.2
							c0,0,0-0.1,0-0.1c0-0.1,0.1-0.2,0.1-0.3c0,0,0-0.1,0-0.1c0,0,0-0.1,0-0.1c0.7-3.6,6.2-3.7,5.7-0.1c0,0,0,0,0,0c0,0,0,0,0,0.1
							c0,0,0,0,0,0c0,0,0,0.1,0,0.1c0,0,0,0.1,0,0.1c0,0,0,0.1,0,0.1c0,0,0,0.1,0,0.1c0,0,0,0.1,0,0.1c0,0,0,0.1,0,0.1
							c0,0,0,0.1,0,0.1c0,0,0,0.1,0,0.1c0,0,0,0,0,0.1c0,0,0,0.1,0,0.1c0,0,0,0.1,0,0.1c0,0,0,0,0,0.1c0,0,0,0.1,0,0.1
							c0,0.1,0,0.3,0.1,0.4c0,0,0,0.1,0,0.1c0,0,0,0.1,0,0.1c0,0,0,0.1,0,0.1c0,0.1,0.1,0.2,0.1,0.3c0,0,0,0.1,0,0.1
							c0,0,0,0.1,0,0.1c0,0,0,0.1,0,0.1c0,0.1,0.1,0.1,0.1,0.2c0,0,0,0.1,0.1,0.1c0.1,0.1,0.1,0.2,0.2,0.3c0,0,0.1,0.1,0.1,0.1
							c0,0,0,0,0,0c0,0,0,0.1,0.1,0.1c0,0,0.1,0.1,0.1,0.1c0,0,0,0,0.1,0.1c0.3,0.3,0.7,0.5,1.1,0.7c0,0,0.1,0,0.1,0
							c0.1,0,0.1,0,0.2,0.1c0.1,0,0.1,0,0.2,0.1c0,0,0.1,0,0.1,0c0.1,0,0.1,0,0.2,0c0,0,0,0,0,0c0,0,0.1,0,0.1,0c0,0,0.1,0,0.1,0
							c0.1,0,0.1,0,0.2,0c0.2,0,0.3,0,0.5,0c0.1,0,0.1,0,0.2,0c0,0,0.1,0,0.1,0c0,0,0.1,0,0.1,0c0,0,0.1,0,0.1,0c0.1,0,0.2,0,0.2,0
							c0,0,0,0,0.1,0c0,0,0.1,0,0.1,0c0,0,0.1,0,0.1,0c0.2,0,0.3-0.1,0.5-0.1c0,0,0.1,0,0.1,0c0,0,0.1,0,0.1,0c0,0,0.1,0,0.1,0
							C641,174.3,641.1,174.2,641.2,174.1z"/>
					</g>
				</g>
				<g>
					<g>
						<path class="st2" d="M642.4,170.2c0,0.1,0,0.1,0,0.2c0,0,0,0,0,0c0,0,0,0,0,0.1c0,0,0,0,0,0c0,0,0,0,0,0.1c0,0,0,0.1,0,0.1
							c0,0.1,0,0.1-0.1,0.2c0,0,0,0.1,0,0.1c0,0,0,0.1-0.1,0.1c0,0,0,0.1-0.1,0.1c0,0,0,0.1-0.1,0.1c0,0,0,0.1-0.1,0.1
							c0,0-0.1,0.1-0.1,0.1c0,0-0.1,0.1-0.1,0.1c0,0-0.1,0.1-0.1,0.1c0,0-0.1,0.1-0.1,0.1c0,0-0.1,0.1-0.1,0.1c0,0-0.1,0.1-0.1,0.1
							c0,0-0.1,0.1-0.1,0.1c0,0-0.1,0-0.1,0.1c-0.1,0.1-0.2,0.1-0.3,0.2c-0.1,0.1-0.2,0.2-0.4,0.2c0,0-0.1,0-0.1,0.1
							c-0.1,0-0.2,0.1-0.3,0.1c0,0-0.1,0-0.1,0c0,0-0.1,0-0.1,0c-0.1,0-0.2,0-0.2,0.1c0,0-0.1,0-0.2,0c0,0-0.1,0-0.1,0
							c-1.5,0.2-2.9-1.3-2.7-2.8c0,0,0,0,0,0c0,0,0,0,0,0c1-6-8.3-6-9.2,0c0,0,0,0,0,0c0,0,0,0,0,0c-0.6,3.6-6.2,3.6-5.6,0
							c0,0,0,0,0,0c0,0,0,0,0,0c0.4-2.3-1.7-4.7-4-4.6c-0.1,0-0.1,0-0.2,0c0,0-0.1,0-0.1,0c0,0,0,0-0.1,0c-0.1,0-0.2,0-0.2,0
							c0,0-0.1,0-0.1,0c0,0,0,0,0,0c0,0-0.1,0-0.1,0c0,0,0,0,0,0c-0.1,0-0.2,0-0.3,0.1c0,0-0.1,0-0.1,0c0,0,0,0,0,0c0,0-0.1,0-0.1,0
							c-0.1,0-0.1,0-0.2,0.1c0,0-0.1,0-0.1,0c-0.1,0-0.2,0.1-0.3,0.1c0,0-0.1,0-0.1,0.1c0,0,0,0-0.1,0c0.5-1.1,1.1-2.2,1.8-3.2
							c0,0,0,0,0,0c0.4-0.5,0.8-1,1.2-1.5c0,0,0,0,0.1-0.1c3.6-4.7,3.4-12.1,9.6-14.4c-0.1,0.7-0.1,1.1-0.2,1.8
							c-0.1,1.6,1,2.8,2.6,2.8c0.1,0,0.2,0,0.3,0c1.6,0,3-1.3,3.1-2.8c0.1-0.7,0.1-1.1,0.2-1.8c5.6,2.3,4.1,9.8,6.4,14.4
							c0,0,0,0,0,0.1c0.3,0.5,0.6,1,0.8,1.5c0,0,0,0,0,0c0.9,2.1,1.2,4.5,0.9,6.9C642.5,170,642.4,170.1,642.4,170.2z"/>
					</g>
				</g>
				<g>
					<g>
						<path class="st2" d="M631.9,141.1c-0.9,0.9-3.7,8-1,8.6C633.1,150.2,633.8,141.1,631.9,141.1z"/>
					</g>
				</g>
			</g>
		</g>
		<g>
			<path class="st2" d="M783.6,219.3c-49.9,0-99.9,0-149.8,0c0.3-1.1,0.5-1.6,0.7-2.7c49.9,0,99.9,0,149.8,0
				C784.1,217.7,783.9,218.2,783.6,219.3z"/>
		</g>
		<g>
			<path class="st2" d="M778.9,234.9c-49.9,0-99.9,0-149.8,0c0.3-1.1,0.5-1.6,0.8-2.7c49.9,0,99.9,0,149.8,0
				C779.4,233.3,779.3,233.8,778.9,234.9z"/>
		</g>
		<g>
			<path class="st2" d="M773.9,250.5c-49.9,0-99.9,0-149.8,0c0.4-1.1,0.5-1.6,0.9-2.7c49.9,0,99.9,0,149.8,0
				C774.4,248.9,774.2,249.5,773.9,250.5z"/>
		</g>
		<g>
			<path class="st2" d="M768.5,266.1c-49.9,0-99.9,0-149.8,0c0.4-1.1,0.6-1.6,0.9-2.7c49.9,0,99.9,0,149.8,0
				C769.1,264.5,768.9,265.1,768.5,266.1z"/>
		</g>
		<g>
			<ellipse class="st2" cx="615.2" cy="298.3" rx="101.4" ry="2"/>
		</g>
		<g>
			<ellipse class="st2" cx="609.5" cy="313.9" rx="101.4" ry="2"/>
		</g>
		<g>
			<path class="st2" d="M678.4,330.8c-49.9,0-99.9,0-149.8,0c0.4-1.1,0.6-1.6,0.9-2.7c49.9,0,99.9,0,149.8,0
				C678.9,329.2,678.7,329.8,678.4,330.8z"/>
		</g>
		<g>
			<path class="st2" d="M673,346.4c-49.9,0-99.9,0-149.8,0c0.4-1.1,0.5-1.6,0.9-2.7c49.9,0,99.9,0,149.8,0
				C673.5,344.8,673.3,345.4,673,346.4z"/>
		</g>
		<g>
			<path class="st2" d="M727,388.1c-49.9,0-99.9,0-149.8,0c0.3-1.1,0.4-1.6,0.7-2.7c49.9,0,99.9,0,149.8,0
				C727.5,386.5,727.3,387,727,388.1z"/>
		</g>
		<g>
			<path class="st2" d="M723,403.7c-49.9,0-99.9,0-149.8,0c0.3-1.1,0.4-1.6,0.6-2.7c49.9,0,99.9,0,149.8,0
				C723.4,402.1,723.3,402.6,723,403.7z"/>
		</g>
		<g>
			<path class="st2" d="M719.6,419.3c-49.9,0-99.9,0-149.8,0c0.2-1.1,0.3-1.6,0.5-2.7c49.9,0,99.9,0,149.8,0
				C720,417.7,719.9,418.2,719.6,419.3z"/>
		</g>
		<g>
			<path class="st2" d="M716.9,434.9c-49.9,0-99.9,0-149.8,0c0.2-1.1,0.2-1.6,0.4-2.7c49.9,0,99.9,0,149.8,0
				C717.2,433.3,717.1,433.9,716.9,434.9z"/>
		</g>
		<g>
			<path class="st2" d="M588.9,263.7c-7.9,0-11.9,0-19.8,0c-7.3,0-11.1-5.9-8.7-13.2c2.6-7.9,3.9-11.9,6.3-19.8
				c2.2-7.3,9.8-13.2,17-13.2c7.9,0,11.9,0,19.8,0c7.3,0,11.5,5.9,9.3,13.2c-2.4,7.9-3.7,11.9-6.3,19.8
				C604.2,257.8,596.2,263.7,588.9,263.7z"/>
		</g>
		<g>
			<path class="st2" d="M725.1,344.7c-7.9,0-11.9,0-19.8,0c-7.3,0-11.2-5.9-8.6-13.2c2.8-7.9,4.2-11.9,7.1-19.8
				c2.6-7.3,10.7-13.2,17.9-13.2c7.9,0,11.9,0,19.8,0c7.3,0,11,5.9,8.4,13.2c-2.9,7.9-4.3,11.9-7.1,19.8
				C740.2,338.8,732.3,344.7,725.1,344.7z"/>
		</g>
		<g>
			<path class="st2" d="M536.7,433.2c-7.9,0-11.9,0-19.8,0c-7.3,0-12.3-5.9-10.9-13.2c1.5-7.9,2.4-11.9,4.4-19.8
				c1.8-7.3,9.3-13.2,16.6-13.2c7.9,0,11.9,0,19.8,0c7.3,0,11.5,5.9,9.7,13.2c-1.9,7.9-2.8,11.9-4.4,19.8
				C550.8,427.3,544,433.2,536.7,433.2z"/>
		</g>
	</g>
</g>
<g>
	<polygon class="st3" points="0,300.5 225.4,300.5 277.9,350.5 52.5,350.5 	"/>
	<polygon class="st4" points="52.5,350.5 0,300.5 0,0 24.4,21.9 52.5,199.7 	"/>
	<polygon class="st4" points="277.9,350.5 225.4,300.5 225.4,0 249.8,21.9 277.9,199.7 	"/>
	<polygon class="st5" points="0,0 225.4,0 249.8,21.9 24.4,21.9 	"/>
	<rect x="52.5" y="199.7" class="st6" width="225.4" height="101.6"/>
	<polygon class="st5" points="52.5,199.7 277.9,199.7 313.9,233.2 88.4,233.2 	"/>
	<path class="st6" d="M249.8,21.9H24.4l28.1,177.8h225.4L249.8,21.9z M75.9,170.2L57.1,51.5h169.3l18.8,118.7H75.9z"/>
	<polygon class="st4" points="52.3,229.3 88.2,262.8 88.4,233.2 52.5,199.7 	"/>
	<rect x="88.4" y="233.2" class="st6" width="225.4" height="29.6"/>
	<polygon class="st2" points="57.1,51.5 226.4,51.5 245.1,170.2 75.9,170.2 	"/>
</g>
<path class="st1" d="M667.5,22.5c89.1,0,168.9,39.8,222.6,102.5c43.9,51.2,70.4,117.8,70.4,190.5c0,161.8-131.2,293-293,293
	s-293-131.2-293-293c0-72.7,26.5-139.3,70.4-190.5C498.7,62.3,578.5,22.5,667.5,22.5 M667.5,10.5c-89.2,0-173.7,38.9-231.7,106.7
	c-23.2,27-41.3,57.6-53.8,90.8c-12.9,34.3-19.5,70.5-19.5,107.6c0,41.2,8.1,81.1,24,118.7c15.4,36.3,37.4,68.9,65.4,96.9
	c28,28,60.6,50,96.9,65.4c37.6,15.9,77.6,24,118.7,24c41.2,0,81.1-8.1,118.7-24c36.3-15.4,68.9-37.4,96.9-65.4
	c28-28,50-60.6,65.4-96.9c15.9-37.6,24-77.6,24-118.7c0-37-6.6-73.2-19.5-107.6c-12.5-33.2-30.6-63.7-53.8-90.8
	C841.2,49.4,756.7,10.5,667.5,10.5L667.5,10.5z"/>
<circle class="st7" cx="184" cy="346" r="87"/>
<line class="st7" x1="271" y1="346" x2="376" y2="342"/>
<path class="st6" d="M890.2,125H444.9C498.7,62.3,578.5,22.5,667.5,22.5S836.4,62.3,890.2,125z"/>
</svg>
