<svg id="Ebene_1" data-name="Ebene 1" xmlns="http://www.w3.org/2000/svg" viewBox="0 0 141.73 141.73"><defs><style>.cls-1{fill:#018e8a;}.cls-1,.cls-2,.cls-3{stroke:#fff;stroke-miterlimit:10;stroke-width:4px;}.cls-2{fill:#96c347;}.cls-3{fill:#42bac1;}</style></defs><title>Zeichenfläche 2 Kopie 9</title><path class="cls-1" d="M38.85,35.27c.82-2.31,1.64-4.45,2.46-6.29A27.26,27.26,0,0,0,38.85,35.27Z"/><path class="cls-2" d="M92.51,22.82h0a21.27,21.27,0,0,0-9.24-5.24,14.68,14.68,0,0,1,.26,2.76c0,7.77-6,14.07-13.35,14.07S56.87,28.1,56.87,20.33a14.3,14.3,0,0,1,.35-3.16,20.87,20.87,0,0,0-10.73,5.19,1.75,1.75,0,0,1,.55.12c3.17,1.34,1.6,5.19-1.18,16.31-1.94,7.79-5,20.87-7.9,29.14v59.29h62.66V65.35c-2.6-8.19-5.21-19.29-6.94-26.22C90.9,28,89.34,24.16,92.51,22.82Z"/><path class="cls-3" d="M42.87,44.24c2.21-6.85,6.5-20,2.65-23.73-11.21-4.38-17.1,12.1-17.77,15.19l-9.5,28.2c-.69,3.16.58,6.5,2.84,7.46l9.15,3.91c2.25,1,4.71-.72,5.4-3.88l.13-.23c-.1,0,0-.54.08-.64C37.92,63.79,39.37,55.1,42.87,44.24Z"/><path class="cls-3" d="M95.09,44.24c-2.21-6.85-6.5-20-2.65-23.73,11.21-4.38,17.1,12.1,17.77,15.19l9.5,28.2c.69,3.16-.58,6.5-2.84,7.46l-9.15,3.91c-2.25,1-4.71-.72-5.4-3.88l-.12-.23c.09,0,0-.54-.09-.64C100,63.79,98.6,55.1,95.09,44.24Z"/></svg>