<svg id="Ebene_1" data-name="Ebene 1" xmlns="http://www.w3.org/2000/svg" viewBox="0 0 141.73 141.73"><defs><style>.cls-1,.cls-8{fill:#bfbdbe;}.cls-1,.cls-10,.cls-2,.cls-3,.cls-5,.cls-6,.cls-8{stroke:#fff;}.cls-1,.cls-10,.cls-14,.cls-15,.cls-3,.cls-5,.cls-6,.cls-8,.cls-9{stroke-linecap:round;}.cls-1,.cls-10,.cls-14,.cls-15,.cls-2,.cls-3,.cls-5,.cls-6,.cls-8,.cls-9{stroke-miterlimit:10;}.cls-1{stroke-width:0.75px;}.cls-2{fill:#e3d599;}.cls-2,.cls-3{stroke-width:2px;}.cls-3{fill:#646463;}.cls-4{fill:#96c347;}.cls-5{fill:#d1b95a;}.cls-10,.cls-14,.cls-15,.cls-5,.cls-6,.cls-8{stroke-width:0.25px;}.cls-7{fill:#ededed;}.cls-15,.cls-9{fill:none;}.cls-9{stroke:#bfbdbe;}.cls-10{fill:#42bac1;}.cls-11,.cls-12,.cls-13{fill:#fff;}.cls-12{font-size:12px;}.cls-12,.cls-13{font-family:MyriadPro-Regular, Myriad Pro;}.cls-13{font-size:11.26px;}.cls-14,.cls-15{stroke:#1d1d1b;}</style></defs><title>Zeichenfläche 1 Kopie 6</title><ellipse class="cls-1" cx="35.23" cy="23.3" rx="3.22" ry="1.57"/><polygon class="cls-2" points="126.58 87.9 17.85 87.9 2.9 121.51 139.56 121.96 126.58 87.9"/><rect class="cls-3" x="35.51" y="54.38" width="69.81" height="40.92"/><polygon class="cls-3" points="44.33 95.46 26.87 95.46 30.23 24.87 39.77 24.87 44.33 95.46"/><path class="cls-4" d="M69.09,103c7.63-.12,15.25,0,22.87.44V99.68l-36.46.06v3.75a306.43,306.43,0,0,1,32.92.78v-3.75l-33.78,1.22a1.88,1.88,0,0,0,0,3.75q17.24.18,34.45,1.18v-3.75L53,104.08a1.88,1.88,0,0,0,0,3.75l36.22.81v-3.75l-15.79.62a1.88,1.88,0,0,0,0,3.75l21.3.82v-3.75c-5.78.62-11.57,1-17.38,1.19a1.88,1.88,0,0,0,0,3.75l23.28.62v-3.75c-9.29.47-18.57,1.12-27.82,2.07-2.36.24-2.47,3.7,0,3.75L95,114.4v-3.75l-25.31.9a1.88,1.88,0,0,0,0,3.75l26.41.54v-3.75l-29.56,1.12a1.88,1.88,0,0,0,0,3.75l23.52.5v-3.75c-5.92.46-11.84.71-17.78.82a1.88,1.88,0,0,0,0,3.75l24.51.81v-3.75c-7,.62-14,.81-21.1.77v3.75l39.72-.14c2.42,0,2.4-3.65,0-3.75L45,113.12v3.75l60.53-.52c2.44,0,2.38-3.56,0-3.75q-24-1.93-48.1-3.2v3.75L100.5,112a1.88,1.88,0,0,0,0-3.75c-15-.13-29.94-.7-44.87-1.92v3.75l26.76-.53c4.46-.09,8.93-.16,13.39-.26,2.6-.07,5.54.18,8-.72a2,2,0,0,0,1.38-1.81v-.22a1.82,1.82,0,0,0-.93-1.62c-5-2.41-12.11-1.91-17.5-2.46L75.2,101.26c-1.68-.18-9.88-.18-10.62-1.21l-.3,2.28c1-1,6.36-.6,7.66-.63,3.42-.08,6.85,0,10.26.07,2.42,0,2.42-3.71,0-3.75a142.19,142.19,0,0,0-14.6.12c-1.81.15-4.62.06-6,1.53a1.92,1.92,0,0,0-.29,2.28c2.46,3.4,11.27,2.79,14.83,3.16l13.48,1.36c2.24.23,4.5.43,6.74.69,1.32.12,2.63.29,3.94.49,1.17.61,1.54.3,1.1-.92l1.37-1.81c-2.87,1-6.89.58-9.89.64l-12.43.25-24.85.49c-2.45,0-2.38,3.55,0,3.75,14.93,1.22,29.9,1.79,44.87,1.92v-3.75L57.44,109.4a1.88,1.88,0,0,0,0,3.75q24.07,1.29,48.1,3.2V112.6L45,113.12c-2.42,0-2.41,3.65,0,3.75l70.44,2.85V116l-39.72.14c-2.41,0-2.41,3.73,0,3.75,7,0,14.08-.15,21.1-.77a1.88,1.88,0,0,0,0-3.75l-24.51-.81v3.75c5.94-.11,11.86-.36,17.78-.82,2.38-.19,2.44-3.7,0-3.75l-23.52-.5V117l29.56-1.12a1.88,1.88,0,0,0,0-3.75l-26.41-.54v3.75L95,114.4a1.88,1.88,0,0,0,0-3.75l-22.26-.44V114c9.25-.95,18.53-1.6,27.82-2.07a1.88,1.88,0,0,0,0-3.75l-23.28-.62v3.75c5.81-.22,11.6-.57,17.38-1.19a1.88,1.88,0,0,0,0-3.75l-21.3-.82v3.75l15.79-.62a1.88,1.88,0,0,0,0-3.75L53,104.08v3.75l36.12-1.16a1.88,1.88,0,0,0,0-3.75q-17.2-1-34.45-1.18v3.75l33.78-1.22a1.88,1.88,0,0,0,0-3.75,306.43,306.43,0,0,0-32.92-.78c-2.41.07-2.42,3.75,0,3.75L92,103.43c2.42,0,2.39-3.62,0-3.75-7.62-.43-15.24-.56-22.87-.44-2.41,0-2.41,3.79,0,3.75Z"/><rect class="cls-5" x="97.1" y="74" width="3.18" height="19.93" rx="0.33" ry="0.33" transform="translate(113.1 -44.81) rotate(55.99)"/><path class="cls-6" d="M99.42,74.68h2a.61.61,0,0,1,.61.61V90.92a0,0,0,0,1,0,0H98.82a0,0,0,0,1,0,0V75.29a.61.61,0,0,1,.61-.61Z" transform="translate(112.89 -46.75) rotate(55.99)"/><rect class="cls-6" x="105.67" y="93.84" width="2.85" height="19.59" rx="0.33" ry="0.33"/><rect class="cls-6" x="110.31" y="93.84" width="2.85" height="19.59" rx="0.33" ry="0.33"/><path class="cls-6" d="M105.92,76.8h7a.77.77,0,0,1,.77.77v19a1.63,1.63,0,0,1-1.63,1.63h-5.32a1.63,1.63,0,0,1-1.63-1.63V77.59a.79.79,0,0,1,.79-.79Z"/><rect class="cls-5" x="113.33" y="78.58" width="2.85" height="19.59" rx="0.33" ry="0.33"/><path class="cls-6" d="M106,110.83h2a.61.61,0,0,1,.61.61v3.09a0,0,0,0,1,0,0H105.4a0,0,0,0,1,0,0v-3.09A.61.61,0,0,1,106,110.83Z"/><path class="cls-6" d="M110.74,110.83h2a.61.61,0,0,1,.61.61v3.09a0,0,0,0,1,0,0h-3.19a0,0,0,0,1,0,0v-3.09A.61.61,0,0,1,110.74,110.83Z"/><path class="cls-6" d="M113.76,78.07h2a.61.61,0,0,1,.61.61V94.31a0,0,0,0,1,0,0h-3.19a0,0,0,0,1,0,0V78.68A.61.61,0,0,1,113.76,78.07Z"/><polygon class="cls-7" points="109.5 84.67 107.71 77.2 111.28 77.2 109.5 84.67"/><ellipse class="cls-5" cx="109.5" cy="74.19" rx="2.68" ry="3.88"/><path class="cls-4" d="M109.5,79.69h0c-.29,0-.49-.09-.49-.42l-.11-.85c0-.33.31-.11.6-.11h0c.28,0,.66-.23.66.1l-.15,1C110,79.75,109.78,79.69,109.5,79.69Z"/><path class="cls-4" d="M109.59,84.93h-.12c-.15,0-.22,0-.39-.27l.13-4.75a.3.3,0,0,1,.26-.33h.12a.31.31,0,0,1,.27.33l.14,4.75C109.82,85,109.74,84.93,109.59,84.93Z"/><rect class="cls-8" x="89.41" y="89.58" width="1.29" height="1.29" rx="0.56" ry="0.56" transform="translate(123.16 -32.87) rotate(60)"/><rect class="cls-8" x="90.49" y="90.61" width="0.45" height="0.93" rx="0.15" ry="0.15"/><rect class="cls-8" x="83.05" y="102.02" width="22.29" height="1.33" rx="0.67" ry="0.67" transform="translate(196.88 8.48) rotate(90)"/><rect class="cls-8" x="85.03" y="91.54" width="9.83" height="1.33" rx="0.67" ry="0.67"/><line class="cls-9" x1="94.16" y1="92.44" x2="94.16" y2="93.3"/><line class="cls-9" x1="94.25" y1="92.24" x2="94.25" y2="93.1"/><rect class="cls-10" x="74.72" y="103.6" width="22.29" height="0.83" rx="0.33" ry="0.33" transform="translate(189.88 18.15) rotate(90)"/><path class="cls-8" d="M85.55,91.37h.58a.67.67,0,0,1,.67.67v2a0,0,0,0,1,0,0H84.89a0,0,0,0,1,0,0V92A.67.67,0,0,1,85.55,91.37Z"/><path class="cls-11" d="M85.54,113.75a.52.52,0,0,1-.45-.49l-1,.61a6.12,6.12,0,0,1,1,1.23c.36.57,1.43.19,1.15-.49l-.44-1-1.14.48a1.19,1.19,0,0,0,2.29-.41l-1.23-.17-.05.74a.63.63,0,0,0,1.06.44l.58-.56-1-.61c-.16.46-.07.48-.48.31a1.2,1.2,0,0,0-.59-.11c-.47,0-1,.47-1.44.36l-.17,1.23a30.1,30.1,0,0,0,4.35.19c.67,0,.89-1.11.16-1.23a3.45,3.45,0,0,1-1.24-.23l.29.37v0c.25-.77-1-1.1-1.2-.34-.39,1.2,1,1.25,1.83,1.38l.17-1.23a30.1,30.1,0,0,1-4.35-.19c-.7-.08-.84,1.07-.16,1.23a1.85,1.85,0,0,0,1.09-.07A3.54,3.54,0,0,1,85,115c.34,0,.39.16.68.26,1,.35,1.45-.68,1.7-1.41s-.61-1-1-.61l-.58.56,1.07.45.05-.74a.62.62,0,0,0-1.22-.17v.12c-.33-.6-1.42-.18-1.14.48l.43,1,1.14-.49A7.55,7.55,0,0,0,84.93,113c-.43-.41-1.25,0-1,.61A1.78,1.78,0,0,0,85.2,115c.79.16,1.13-1,.34-1.2Z"/><ellipse class="cls-1" cx="74.28" cy="17.37" rx="28.08" ry="8.67"/><ellipse class="cls-1" cx="67.98" cy="23.26" rx="10.42" ry="4.33"/><ellipse class="cls-1" cx="47.28" cy="16.14" rx="8.83" ry="3.92"/><ellipse class="cls-1" cx="56.11" cy="12.23" rx="3.22" ry="1.57"/><ellipse class="cls-1" cx="40.56" cy="18.57" rx="4.96" ry="2.43"/><ellipse class="cls-1" cx="34.76" cy="21.27" rx="1.61" ry="0.79"/><ellipse class="cls-1" cx="37.9" cy="20.49" rx="1.61" ry="0.79"/><ellipse class="cls-1" cx="48.05" cy="21" rx="1.61" ry="0.79"/><path class="cls-11" d="M39.85,92.52a14.57,14.57,0,0,0-3-4.89l-.61,1A5,5,0,0,1,38.28,90a.63.63,0,0,0,1.07-.44,21,21,0,0,0-.12-4.82l-1.14.49a37.45,37.45,0,0,1,2.1,6.29.64.64,0,0,0,1.15.15l1-2.26-1.17-.32a18.51,18.51,0,0,1,0,3.57l.79-.6c-.54-.08-2.53-.28-1.93-1.48H39a4.52,4.52,0,0,0,1.93,1.94.63.63,0,0,0,.86-.85l-1.78-3a.63.63,0,0,0-1.16.31A7.58,7.58,0,0,1,38,92.49l1.17.32a7.15,7.15,0,0,0-.75-3.14c-.35-.72-1.43-.09-1.08.64a5.56,5.56,0,0,1,.58,2.5.62.62,0,0,0,1.16.31,9.15,9.15,0,0,0,1-4.07l-1.17.32,1.78,3,.85-.86A3.31,3.31,0,0,1,40.05,90,.63.63,0,0,0,39,90c-1,2,1,3.07,2.68,3.32a.63.63,0,0,0,.79-.6,18.51,18.51,0,0,0,0-3.57c-.05-.54-.88-.94-1.16-.31l-1,2.26,1.14.15a40.36,40.36,0,0,0-2.23-6.6c-.31-.71-1.23-.14-1.14.49a19.74,19.74,0,0,1,.07,4.48l1.06-.44a6.35,6.35,0,0,0-2.6-1.68.63.63,0,0,0-.61,1,12.9,12.9,0,0,1,2.69,4.35c.28.74,1.49.42,1.21-.34Z"/><path class="cls-5" d="M48.78,106.8c0,6.09-3.68,6.5-8.22,6.5s-8.22-.41-8.22-6.5S36,92.55,40.56,92.55,48.78,100.7,48.78,106.8Z"/><text class="cls-12" transform="translate(37.14 107.36)">€</text><path class="cls-11" d="M73,106.78A15.31,15.31,0,0,0,78,104.12l-1-.61a4.49,4.49,0,0,1-1.4,1.8.63.63,0,0,0,.44,1.07,22.58,22.58,0,0,0,4.65,0l-.16-1.23A42.9,42.9,0,0,1,74,107c-.68.13-.5,1,0,1.2l2.24,1,.17-1.23a20.28,20.28,0,0,1-3.57,0l.61.79c.1-.58.31-2.23,1.52-1.66v-1.08a4.44,4.44,0,0,0-2,1.73c-.35.56.33,1.13.86.86l3-1.55a.63.63,0,0,0-.32-1.17,8.27,8.27,0,0,1-3.42-.82l-.31,1.17a7.15,7.15,0,0,0,3-.58c.74-.3.42-1.51-.33-1.2a6.58,6.58,0,0,1-2.66.53c-.59,0-.89.89-.32,1.16a10,10,0,0,0,4,1l-.31-1.16-3,1.55.85.85A3.29,3.29,0,0,1,75.55,107a.63.63,0,0,0,0-1.08c-1.88-.89-3,.7-3.36,2.41a.63.63,0,0,0,.6.79,20.28,20.28,0,0,0,3.57,0,.63.63,0,0,0,.17-1.23L74.28,107v1.2a41.74,41.74,0,0,0,6.49-1.84c.6-.23.59-1.31-.17-1.23a22.58,22.58,0,0,1-4.65,0l.44,1.07a5.78,5.78,0,0,0,1.73-2.36c.23-.65-.61-1-1.05-.61a13.29,13.29,0,0,1-4.39,2.34c-.77.24-.44,1.45.33,1.21Z"/><path class="cls-5" d="M67.48,110.06c-6.07.53-5.06,2.31-10.48,2.54-4.54.19-6.39-4.7-2.78-9.13s13.35-3.51,17-1.08S76.66,109.25,67.48,110.06Z"/><text class="cls-13" transform="matrix(0.86, 0.57, -0.63, 0.78, 57.58, 106.1)">€</text><path class="cls-11" d="M50.57,95.9A14.21,14.21,0,0,0,47,91.63l-.61,1a5.26,5.26,0,0,1,2.38,1.1.63.63,0,0,0,.94-.54,20.69,20.69,0,0,0-.79-4.75L47.75,89a37.82,37.82,0,0,1,3,5.91.63.63,0,0,0,1.21,0l.66-2.39H51.43A18.31,18.31,0,0,1,52,95.85l.62-.63c-.59,0-2.46.08-2-1.25l-1.15.15a4.7,4.7,0,0,0,2.32,1.75c.64.23,1-.62.6-1.05l-2.18-2.67c-.33-.39-1.14-.08-1.07.44a8,8,0,0,1-.35,3.69h1.21a6.66,6.66,0,0,0-1.14-2.84c-.45-.66-1.53,0-1.07.63a6,6,0,0,1,1,2.54c.1.66,1,.53,1.21,0a8.83,8.83,0,0,0,.39-4L49.25,93l2.19,2.67.61-1a3.16,3.16,0,0,1-1.57-1.17.63.63,0,0,0-1.14.15c-.7,2.13,1.58,2.83,3.23,2.83a.63.63,0,0,0,.63-.62,19.23,19.23,0,0,0-.56-3.7.63.63,0,0,0-1.21,0l-.66,2.39H52a40.67,40.67,0,0,0-3.15-6.21.63.63,0,0,0-1.14.48,18.92,18.92,0,0,1,.74,4.42l1-.54a6.19,6.19,0,0,0-2.68-1.23c-.53-.07-1.17.61-.61,1.05a13.2,13.2,0,0,1,3.4,4c.39.7,1.47.07,1.08-.64Z"/><path class="cls-5" d="M61.53,108.78c.89,6-2.69,7-7.18,7.63s-8.2.8-9.09-5.23,1.56-14.63,6.05-15.3S60.64,102.75,61.53,108.78Z"/><text class="cls-12" transform="matrix(0.99, -0.15, 0.15, 0.99, 50.1, 111.04)">€</text><path class="cls-14" d="M109.05,73.84a.81.81,0,0,1-1.61,0c0-.44.36-.51.81-.51S109.05,73.4,109.05,73.84Z"/><line class="cls-15" x1="107.07" y1="73.93" x2="111.95" y2="73.93"/><path class="cls-14" d="M111.37,73.83a.81.81,0,0,1-1.61,0c0-.44.36-.51.81-.51S111.37,73.39,111.37,73.83Z"/></svg>