<svg id="Ebene_1" data-name="Ebene 1" xmlns="http://www.w3.org/2000/svg" viewBox="0 0 141.73 141.73"><defs><style>.cls-1{fill:#e84244;}.cls-1,.cls-3{stroke:#fff;}.cls-1,.cls-3,.cls-4{stroke-linecap:round;stroke-miterlimit:10;stroke-width:3px;}.cls-2{fill:#e3d599;}.cls-3{fill:none;}.cls-4{fill:#018e8a;stroke:#42bac1;}.cls-5{fill:#fff;}</style></defs><title>Zeichenfläche 40</title><ellipse class="cls-1" cx="96.92" cy="66.94" rx="18.26" ry="7.06" transform="translate(-20.28 55.15) rotate(-28.89)"/><path class="cls-2" d="M83.63,69.9h31.3c-1.68,26.51-23,47.48-49.14,47.48-27.21,0-49.26-22.76-49.26-50.84s22-50.84,49.26-50.84a48.5,48.5,0,0,1,37.88,18.37ZM64.83,50.25a5.51,5.51,0,1,0-5.5,5.67A5.59,5.59,0,0,0,64.83,50.25Z"/><path class="cls-3" d="M114.93,69.9c-1.68,26.51-23,47.48-49.14,47.48-27.21,0-49.26-22.76-49.26-50.84s22-50.84,49.26-50.84a48.5,48.5,0,0,1,37.88,18.37"/><polyline class="cls-3" points="103.67 34.06 83.63 69.9 114.93 69.9"/><path class="cls-3" d="M64.83,50.25a5.51,5.51,0,1,1-5.5-5.67A5.59,5.59,0,0,1,64.83,50.25Z"/><ellipse class="cls-4" cx="61.24" cy="47.85" rx="2.27" ry="2.34"/><polygon class="cls-2" points="60.13 42.5 44.13 42.5 52.13 56.8 60.13 42.5"/><path class="cls-5" d="M66.25,59.33a9.87,9.87,0,0,0,2.69-10.15c-.23-.77-1.44-.44-1.2.33a8.62,8.62,0,0,1-2.37,8.93c-.59.55.3,1.44.88.89Z"/><path class="cls-5" d="M36.48,101.47A33.18,33.18,0,0,0,52,110.16,112.3,112.3,0,0,1,31.53,85.09a9.87,9.87,0,0,0,17.58,3.47A28.3,28.3,0,0,1,32.75,42.31c2.43-2.83,5.46-5.24,7.11-8.59s1.26-8.17-2-9.89c-2.34-1.22-5.34-.41-7.35,1.31a17.74,17.74,0,0,0-4.3,6.58c-8.84,20.09-10.41,44.16-.43,63.72,1.77,3.47,3.95,6.85,7.12,9.12s7.48,3.24,11,1.65C32,98.34,26.44,83.23,26.45,68.93S31.16,40.8,35.8,27.28"/><path class="cls-5" d="M33,105a40.86,40.86,0,0,0,17.73,10c4.69,1.26,8.6-4.89,4.87-8.36a112.76,112.76,0,0,1-19.7-24.05c-2.86-4.7-11-1.7-9.14,3.85,3.7,11.32,17.88,15.13,25.94,5.68,2.26-2.66,1.75-7.52-2.21-8.36C36.84,80.86,28,67.68,32,54c2.92-9.87,22.18-21.9,10.33-33C38,16.91,31.11,17.8,26.92,21.6c-5.06,4.59-7.38,12.52-9.29,18.86-4.2,13.95-5.1,29.12-1.56,43.31C19.23,96.43,28.63,116.85,45.21,111a5.07,5.07,0,0,0,1.2-9.14C22.28,85.17,33,51,40.62,28.61c2.1-6.1-7.56-8.72-9.64-2.66-5.44,15.86-11.1,32.65-9.13,49.66,1.62,14,7.8,26.8,19.51,34.92l1.2-9.14C34.65,104.16,30.15,94,27.9,88.12a62.83,62.83,0,0,1-4-22.7A77.22,77.22,0,0,1,27,43.91a66.84,66.84,0,0,1,4.11-11.12c.61-1.22,1.84-4.33,3.54-4.33,1.51,0,1.27,1.37.83,2.76-1,3.3-5.16,6.09-7.23,8.71a33.22,33.22,0,0,0-4.68,8,34.38,34.38,0,0,0-2,19.26C24,80.3,35,90.66,47.78,93.38L45.58,85c-2.88,3.38-7.68,3.47-9.23-1.27l-9.13,3.85a122.07,122.07,0,0,0,21.26,26.08l4.86-8.35A30.34,30.34,0,0,1,40,97.94C35.35,93.51,28.26,100.57,33,105Z"/></svg>