<svg id="Ebene_1" data-name="Ebene 1" xmlns="http://www.w3.org/2000/svg" viewBox="0 0 141.73 141.73"><defs><style>.cls-1{fill:#e84244;}.cls-1,.cls-3{stroke:#fff;}.cls-1,.cls-3,.cls-4{stroke-linecap:round;stroke-miterlimit:10;stroke-width:3px;}.cls-2{fill:#e3d599;}.cls-3{fill:none;}.cls-4{fill:#018e8a;stroke:#42bac1;}.cls-5{fill:#fff;}</style></defs><title>Zeichenfläche 42</title><ellipse class="cls-1" cx="85.92" cy="104.87" rx="7.06" ry="18.26" transform="translate(-47.86 126.84) rotate(-60)"/><path class="cls-2" d="M72.84,97.86,94.45,113c-17,13.25-40.82,14.77-58.86,2.12C13.32,99.53,8.33,68.23,24.46,45.23S71.7,16.25,94,31.87C109.4,42.69,116.54,61,114.09,79Zm.51-38.25a5.5,5.5,0,1,0-7.77,1.5A5.59,5.59,0,0,0,73.35,59.61Z"/><path class="cls-3" d="M94.45,113c-17,13.25-40.82,14.77-58.86,2.12C13.32,99.53,8.33,68.23,24.46,45.23S71.7,16.25,94,31.87C109.4,42.69,116.54,61,114.09,79"/><polyline class="cls-3" points="114.09 78.95 72.84 97.86 94.45 113.02"/><path class="cls-3" d="M73.35,59.61a5.5,5.5,0,1,1-1.25-7.8A5.6,5.6,0,0,1,73.35,59.61Z"/><ellipse class="cls-4" cx="70.24" cy="56.78" rx="2.27" ry="2.34"/><path class="cls-5" d="M71,67.6c4-.74,7.56-3.66,7.43-8a.63.63,0,0,0-1.25,0c.11,3.84-3,6.18-6.51,6.82-.79.15-.46,1.35.33,1.21Z"/><path class="cls-5" d="M17.28,65.48a33.29,33.29,0,0,0,1.26,17.75,112.39,112.39,0,0,1,9.72-30.88A9.87,9.87,0,0,0,35,69,28.29,28.29,0,0,1,64.68,29.9c3.7.47,7.39,1.68,11.09,1.22s7.52-3.43,7.14-7.14c-.27-2.63-2.59-4.69-5.13-5.43a17.68,17.68,0,0,0-7.86,0C48.27,22.2,27.29,34.11,16.42,53.18c-1.93,3.38-3.56,7.07-3.72,11s1.4,8,4.68,10.13c0-14.3,9.64-27.2,21.6-35s26.09-11.5,39.94-15"/><path class="cls-5" d="M12.46,64.15a41.08,41.08,0,0,0,1.26,20.41c1.4,4.28,8.76,5.21,9.64,0a113.87,113.87,0,0,1,9.21-29.68c2.23-4.72-4-10.82-7.85-6.06C16.59,59,22.16,72.34,35,74c3.06.39,5.91-3.53,4.82-6.33-5.43-14,2.07-29.77,17.35-32.58,7.39-1.36,14.74,2.78,22,.36,5.76-1.92,10.26-7.81,8.28-14-4.41-13.76-24.8-7-34.1-3.63C40.85,22.27,29.11,29.41,20.25,39.4,11,49.83.65,67.74,14.86,78.59c3.18,2.43,7.43-.92,7.52-4.32C23.15,44.77,57.06,35,80.25,29c6.23-1.59,3.59-11.24-2.65-9.64-15.63,4-31.87,8.28-44.9,18.24C21.09,46.48,12.77,59.4,12.38,74.27L19.9,70C13.46,65,21.45,53.9,24.82,49.48A61.83,61.83,0,0,1,39.15,36a75.7,75.7,0,0,1,18.27-9.15c2.2-.75,19.39-6.47,20.24-2.8.9,3.85-10.39,1.16-11.65,1A33.42,33.42,0,0,0,57.3,25,34.3,34.3,0,0,0,39.08,33c-10.52,9-13.86,24.46-8.9,37.26L35,64a5,5,0,0,1-3.21-8.06l-7.85-6.06A123,123,0,0,0,13.72,81.9h9.64A30.47,30.47,0,0,1,22.1,66.81c1.11-6.29-8.53-9-9.64-2.66Z"/></svg>