<svg id="Ebene_1" data-name="Ebene 1" xmlns="http://www.w3.org/2000/svg" viewBox="0 0 141.73 141.73"><defs><style>.cls-1,.cls-2,.cls-3{fill:#646463;}.cls-1,.cls-3{stroke:#fff;stroke-miterlimit:10;stroke-width:2px;}.cls-1{stroke-linecap:round;}</style></defs><title>Zeichenfläche 41</title><path class="cls-1" d="M1.66,60.32h125a6.17,6.17,0,0,1,6.17,6.17V76a6.17,6.17,0,0,1-6.17,6.17H1.66a0,0,0,0,1,0,0V60.32A0,0,0,0,1,1.66,60.32Z"/><path class="cls-1" d="M120.79,59.36h8.37A9.83,9.83,0,0,1,139,69.19V94.71a2.5,2.5,0,0,1-2.5,2.5H114a3,3,0,0,1-3-3v-25a9.83,9.83,0,0,1,9.83-9.83Z"/><rect class="cls-2" x="47.75" y="46.66" width="9.27" height="17.25"/><ellipse class="cls-3" cx="42.41" cy="40.91" rx="9.98" ry="9.7"/><ellipse class="cls-3" cx="62.37" cy="40.91" rx="9.98" ry="9.7"/><ellipse class="cls-3" cx="52.02" cy="41.21" rx="8.3" ry="8.41"/><rect class="cls-3" x="108.66" y="94.13" width="32" height="4.67" rx="2.17" ry="2.17"/></svg>