<svg id="Ebene_1" data-name="Ebene 1" xmlns="http://www.w3.org/2000/svg" xmlns:xlink="http://www.w3.org/1999/xlink" viewBox="0 0 1365.62 436.18"><defs><style>.cls-1{fill:none;}.cls-2{clip-path:url(#clip-path);}.cls-3{fill:#fff;}.cls-4{fill:#008f8a;}.cls-5{fill:#94d442;}</style><clipPath id="clip-path"><rect class="cls-1" x="2.52" y="3.8" width="1355.71" height="425.25"/></clipPath></defs><title>Logo_Outline_weiß</title><g class="cls-2"><path class="cls-3" d="M388,320.83c26.62,0,48.28-21,48.28-44.69S414.57,231.46,388,231.46s-48.27,21-48.27,44.68,21.66,44.69,48.27,44.69m49.16,15.52V316.84A66.15,66.15,0,0,1,388,338.36c-35.84,0-65-27.88-65-62.22s29.18-62.22,65-62.22,65,27.88,65,62.22l-.11,60c0,3.2-15.75,3.41-15.75.22"/><path class="cls-3" d="M541.05,320.83c26.62,0,48.28-21,48.28-44.69s-21.66-44.68-48.28-44.68-48.27,21-48.27,44.68,21.66,44.69,48.27,44.69m49.16,38.06V316.84a66.15,66.15,0,0,1-49.16,21.52c-35.84,0-65-27.88-65-62.22s29.18-62.22,65-62.22,65,27.88,65,62.22L606,358.67c0,3.2-15.75,3.41-15.75.22"/><path class="cls-3" d="M753.37,276.14c0,34.34-27.72,62.22-61.77,62.22s-61.77-27.88-61.77-62.22.16-57.41.16-57.41c0-3.19,3.43-6,7.88-6s7.87,2.77,7.87,6v57.41c0,23.72,20.58,44.68,45.86,44.68s45.86-21,45.86-44.68V218.73c0-3.19,3.43-6,7.88-6s7.88,2.77,7.88,6c0,0,.15,23.07.15,57.41"/><path class="cls-3" d="M842.15,320.83c26.61,0,48.28-21,48.28-44.69s-21.67-44.68-48.28-44.68-48.28,21-48.28,44.68,21.67,44.69,48.28,44.69m49.15,15.52V316.84a66.13,66.13,0,0,1-49.15,21.52c-35.84,0-65-27.88-65-62.22s29.18-62.22,65-62.22,65,27.88,65,62.22l-.11,60c0,3.2-15.76,3.41-15.76.22"/><path class="cls-3" d="M945.85,276.59c0,25.29,21,45.87,44.68,45.87H1048c3.18,0,6,3.43,6,7.88s-2.77,7.88-6,7.88c0,0-23.08.15-57.42.15s-60-27.79-62.22-61.77l1.86-55.77c0-3.19,3.44-6,7.88-6s7.87,2.77,7.88,6c0,0-.08,30.49-.08,55.77"/><path class="cls-3" d="M1092.34,332.41c0,3.19-3.43,5.95-7.88,5.95s-7.87-2.81-7.87-5.95c0,0,0-113.52,0-113.56,0-3.18,3.43-5.95,7.87-5.95s7.79,2.77,7.88,5.95Z"/><path class="cls-3" d="M1164.6,212.89a9.94,9.94,0,0,1,2.89-.42,9.82,9.82,0,0,1,2.88.42h45c3.19,0,6,3.43,6,7.88s-2.81,7.88-6,7.88h-40V332.41c0,3.19-3.44,5.95-7.88,5.95s-7.88-2.81-7.88-5.95c0,0,0-74.81,0-103.75-21,0-39.93,0-39.95,0-3.19,0-6-3.44-6-7.88s2.76-7.79,6-7.88Z"/><path class="cls-3" d="M1342.26,294.77a5,5,0,0,1,.08-.69c0-11-.06-.56-.08.69m15.81-76s.16.1.16,34.45c0,1.66-.07,3.32-.2,4.95,0,34.81,0,40.74,0,40.77,1.81,38-26,53.35-60.36,53.35s-26.15-.15-26.15-.15c-3.19,0-6-3.43-6-7.88s2.77-7.88,6-7.88h26.15c23.72,0,44.68-8.25,44.68-33.53v-3.18a6.2,6.2,0,0,1-.08-.74v-4c-11.31,12.59-23.83,20.5-42,20.5-34.06,0-58.79-27.87-58.79-62.21s.15-34.45.15-34.45c0-3.19,3.43-6,7.88-6s7.87,2.77,7.87,6v34.45c0,23.71,17.6,44.68,42.89,44.68,24.5,0,40.76-19.7,42-42.51V218.73c0-3.19,3.44-6,7.88-6h0c4.45,0,7.88,2.77,7.88,6"/><path class="cls-4" d="M147.47,422.58c-34.94,0-69.42-12.72-94.6-34.91C24.45,362.62,9.28,328,9,287.58v-.4l0-.4V286c0-20.91,16.42-31.85,32.63-31.85S74.31,265.08,74.31,286v.72l0,.35c0,.3,0,.6,0,.9s0,.53,0,.8V289c0,.22,0,.44.07.65l.11,1c.1.81.24,1.67.44,2.61l0,.14c0,.21.09.43.14.64l0,.21c0,.23.11.46.17.69l0,.11c.15.6.31,1.17.5,1.74l0,.14c.06.19.12.37.19.55l0,.14q.2.6.42,1.17l.12.29c.06.17.13.34.2.51l0,.1c.1.25.2.48.31.72l0,.11c.09.22.19.43.29.64l.09.2c.09.2.19.4.29.61l.07.12c.23.46.46.92.73,1.37l.07.13c.27.51.57,1,.87,1.48l.5.81A37.08,37.08,0,0,0,85.36,312l.62.59a36.44,36.44,0,0,0,11.77,7.35l.16.06.39.16.23.07c.52.2,1,.37,1.59.54s1,.3,1.51.43l1,.25,1.59.32.2,0,.27.05.42.07.16,0,.88.13c.48.06,1,.11,1.61.16.92.07,1.89.11,2.86.11s1.95,0,2.91-.11c.7-.06,1.39-.13,2.22-.25.68-.1,1.38-.22,2-.36s1.11-.24,1.61-.36c.29-.08.59-.15.88-.24l.12,0c.49-.14,1-.29,1.45-.45l.11,0c.32-.1.63-.21.94-.33.52-.19,1.06-.4,1.59-.62l.14-.06c.23-.09.45-.19.66-.29.58-.26,1.1-.51,1.61-.76s1-.54,1.54-.84,1-.56,1.44-.86l.11-.07c.46-.29.91-.59,1.36-.9l.75-.54c.68-.51,1.36-1.05,2-1.6.45-.39.9-.78,1.34-1.19.78-.73,1.58-1.56,2.37-2.45l.11-.12.41-.48c.67-.79,1.24-1.52,1.76-2.25.33-.45.61-.85.88-1.26.37-.56.68-1.08,1-1.6.14-.23.27-.46.4-.7s.24-.41.35-.64l.45-.85c.14-.28.24-.49.34-.71s.28-.6.4-.86.23-.54.33-.8c.25-.57.45-1.11.64-1.65l.31-.9c.08-.23.16-.5.25-.79.17-.54.32-1.1.46-1.66l0-.17c.05-.22.11-.44.16-.67.13-.6.25-1.21.35-1.81l.14-.89c.14-1,.23-1.84.29-2.65l0-.33c0-.16,0-.33,0-.49v-.18c0-.3,0-.6,0-.91.72-20.85,17.46-31.74,33.62-31.74,15.74,0,31.67,10.69,31.67,31.12v.67c0,.32,0,.58,0,.84s0,.4,0,.57v.27c0,.12,0,.24,0,.35l0,.15V289c0,.19,0,.38.05.56l.08.76c0,.26.06.5.1.74s.1.68.16,1l0,.14c0,.14.05.28.07.43s.13.64.13.64c0,.15.07.31.11.46l.06.28c0,.21.09.41.15.62l.13.53c.05.2.11.39.16.59a35.25,35.25,0,0,0,1.13,3.35l.07.17a5.89,5.89,0,0,0,.24.58l.06.16c.1.24.21.48.31.71l.3.64.1.22c.32.66.7,1.39,1.16,2.21l.48.8c.14.25.27.46.41.67l.14.23.26.39.14.21c.27.41.6.88.93,1.33l.36.47.22.29c.64.83,1.4,1.71,2.2,2.57.32.34.65.69,1,1l.18.18.64.61c.43.39.85.77,1.29,1.13.25.22.44.38.65.54a36.17,36.17,0,0,0,9.83,5.68l.15.06.46.18.17.06c.52.19,1.05.36,1.58.53s1,.3,1.52.43l1,.25,1.58.32.19,0,.25.05a3.69,3.69,0,0,0,.46.08l.16,0,.87.13c.49.06,1.05.11,1.62.16.89.07,1.85.12,2.78.12.43,0,.85,0,1.27,0h.12c.39,0,.77,0,1.15-.06s.66,0,1-.08h.15c.31,0,.61-.06.9-.11l.22,0,.55-.07,1.7-.3.47-.09.7-.15.15,0,.59-.14.22-.06a35,35,0,0,0,3.7-1.17l.92-.36.68-.3.56-.25.13-.06c.94-.43,1.87-.9,2.83-1.44l13.64-7.69L275.91,325c-8.77,31.16-26.3,56.67-50.69,73.79-22.18,15.58-49.06,23.81-77.73,23.81Z"/><path class="cls-3" d="M41.67,247.67a40.33,40.33,0,0,0-26.43,9.49C7.07,264.2,2.57,274.44,2.57,286v.39l0,.44v.8c.15,21.69,4.47,42,12.84,60.25a133,133,0,0,0,33.22,44.65A144.09,144.09,0,0,0,94.91,419.8a153.35,153.35,0,0,0,52.58,9.25c30,0,48.1-3.86,81.45-25S279,338,282.13,326.73s5-33.89,5-33.89L263.33,312c-.79.44-1.55.83-2.33,1.18l-.13.07-.13.06-.13.06-.08,0-.07,0-.43.18-.27.12-.68.27c-1,.37-2,.69-3,.94l-.22.06-.15,0-.27.06-.16,0-.13,0a2.3,2.3,0,0,1-.28.06l-.09,0-.1,0-.32.06-.09,0c-.52.1-1,.18-1.38.24l-.28,0-.21,0-.21,0-.59.07h-.15l-.14,0-.64,0h-.08c-.32,0-.57,0-.79,0h-.24l-1,0c-.75,0-1.51,0-2.26-.09l-1.4-.15c-.21,0-.41-.05-.61-.09l-.16,0-.16,0-.09,0-.51-.09-.15,0-1.17-.25-.85-.2-1.21-.35c-.36-.11-.83-.26-1.2-.4l-.17-.06-.17-.06-.12,0-.16-.07-.12-.05a29.85,29.85,0,0,1-8-4.64l-.05,0,0,0-.4-.33-.05,0,0,0c-.34-.28-.68-.58-1.05-.92l-.53-.51-.23-.22-.73-.76c-.66-.7-1.28-1.43-1.84-2.15l-.18-.24a2.27,2.27,0,0,1-.18-.25l-.06-.07,0-.06c-.25-.34-.5-.7-.76-1.08l-.11-.18-.14-.21-.14-.23-.13-.19-.2-.32,0-.05,0,0-.15-.25-.28-.47c-.36-.64-.66-1.23-.91-1.76l-.11-.22-.18-.38,0-.07,0-.06-.22-.51-.06-.15-.06-.14a2.44,2.44,0,0,1-.1-.24l-.06-.16-.07-.16a26.71,26.71,0,0,1-.88-2.62l0-.09,0-.08c0-.12-.07-.24-.1-.36l-.09-.36,0-.09V293a2.46,2.46,0,0,1-.07-.29l-.06-.27-.05-.23a1.74,1.74,0,0,1,0-.22l0-.11v-.1c0-.14,0-.28-.08-.41l0-.15,0-.14,0-.12c0-.27-.09-.54-.12-.81v-.06c0-.18,0-.37-.08-.56l-.07-.66v-.08a1.15,1.15,0,0,1,0-.19l0-.29,0-.26v-.23l0-.27v-.42c0-.17,0-.33,0-.5V286c0-24.68-19.19-37.59-38.14-37.59A41.38,41.38,0,0,0,154,257.82a38.28,38.28,0,0,0-13.49,28.51v.11c0,.25,0,.5,0,.75v.33c0,.09,0,.19,0,.28l0,.31c0,.63-.12,1.32-.22,2.1l-.13.82c-.08.45-.18.93-.3,1.47,0,.18-.08.35-.12.51l0,.19c-.11.41-.23.86-.36,1.29-.07.22-.13.43-.21.65l-.15.47-.13.36c-.15.41-.3.81-.46,1.19l0,0v0c-.1.23-.18.44-.27.65l-.31.66,0,.08,0,.07-.17.34,0,.08,0,.07c-.08.14-.15.28-.22.42L137,300c-.08.16-.16.3-.24.44l-.32.56c-.33.54-.57.94-.8,1.28l0,0,0,.05c-.23.35-.44.65-.64.91l0,.06,0,.06c-.42.59-.89,1.19-1.4,1.78l0,.07-.06.07c-.05.06-.1.13-.16.19l-.11.11-.1.12c-.65.73-1.3,1.41-1.94,2-.37.34-.75.68-1.13,1s-1.08.89-1.65,1.32l-.28.19-.39.28c-.38.27-.7.48-1,.66l-.11.07-.1.06c-.35.23-.71.45-1.07.65-.51.29-.94.52-1.33.72s-.87.43-1.27.6l0,0,0,0-.4.17-.14.06-.13.05-1.3.52-.67.23-.09,0-.08,0q-.52.18-1.17.36l-.12,0-.12,0-.6.16c-.44.11-.83.2-1.17.26l-.1,0-.1,0c-.54.12-1.08.21-1.63.29s-1.22.16-1.72.19H113c-.79.06-1.6.1-2.39.1s-1.57,0-2.34-.1l-1.38-.14-.62-.09-.16,0-.15,0-.55-.11-.21,0-1.17-.25-.84-.2c-.35-.09-.77-.21-1.22-.35s-.83-.26-1.19-.4l-.24-.09-.19-.06-.14-.06-.18-.07a29.76,29.76,0,0,1-9.66-6l-.55-.52a30.41,30.41,0,0,1-4.14-5c-.12-.19-.24-.37-.35-.56l-.06-.09-.06-.09c-.23-.36-.45-.73-.65-1.11l-.07-.13-.07-.12c-.17-.3-.35-.63-.56-1.05l-.06-.13-.07-.12-.1-.22-.09-.19-.09-.19c-.07-.14-.12-.28-.19-.42l0-.11-.06-.11c0-.13-.11-.25-.16-.39l-.05-.12,0-.12c0-.1-.09-.21-.13-.32l-.08-.22,0-.09,0-.08c-.09-.24-.18-.49-.26-.74l0-.12,0-.12a2.79,2.79,0,0,1-.12-.34l0-.13,0-.13c-.14-.42-.26-.86-.39-1.33l0-.11,0-.1-.09-.37,0-.2,0-.2c0-.1,0-.19-.07-.29l0-.13,0-.13c-.16-.76-.27-1.43-.35-2.07l0-.4-.06-.53v-.09a1,1,0,0,0,0-.17v-.22l0-.22,0-.62c0-.22,0-.46,0-.7V286c0-11.55-4.5-21.79-12.66-28.83a40.36,40.36,0,0,0-26.44-9.49m0,12.94c13.09,0,26.17,8.46,26.17,25.38v.22c0,.17,0,.33,0,.5v0c0,.16,0,.32,0,.48,0,.36,0,.72,0,1.07s0,.66.07,1a10.54,10.54,0,0,0,.1,1.13c0,.32.07.64.11,1,.13,1.08.31,2.14.53,3.2.07.34.14.68.23,1s.15.67.25,1c.18.73.38,1.45.62,2.16.08.28.17.54.26.81.18.55.37,1.08.59,1.61.11.29.22.58.34.87s.29.69.44,1,.26.59.4.87.31.67.48,1c.29.57.58,1.14.91,1.7s.71,1.26,1.1,1.87c.17.29.35.56.53.84a42.94,42.94,0,0,0,6,7.24c.24.24.49.48.73.7A43.12,43.12,0,0,0,95.44,326l.81.31c.64.24,1.3.45,2,.65s1.21.36,1.82.52l1.19.29c.66.15,1.33.29,2,.41l.24,0c.27.06.56.1.84.14l1,.15c.63.07,1.26.14,1.89.19,1.14.1,2.29.14,3.43.14s2.29,0,3.43-.14c.88-.06,1.74-.16,2.6-.28s1.67-.27,2.5-.45c.61-.12,1.21-.26,1.81-.4l1.2-.33c.59-.16,1.18-.34,1.76-.53.41-.13.8-.27,1.21-.42.65-.24,1.29-.49,1.91-.76.33-.13.64-.27,1-.41.6-.26,1.19-.55,1.77-.84s1.27-.66,1.89-1,1.17-.69,1.75-1.06,1.14-.74,1.7-1.13l.83-.6c.81-.6,1.62-1.24,2.38-1.89.52-.45,1-.9,1.53-1.36,1-.93,1.93-1.91,2.83-2.92.23-.25.45-.51.67-.77.7-.83,1.38-1.69,2-2.58.36-.49.71-1,1-1.5s.79-1.23,1.16-1.86l.44-.77c.17-.29.33-.59.49-.89L149,305c.16-.3.31-.61.44-.91s.3-.63.44-.95.27-.63.4-.94c.26-.64.51-1.28.74-1.93.12-.32.23-.66.34-1s.21-.66.31-1c.2-.67.39-1.34.56-2l.24-1c.14-.69.28-1.38.4-2.08.06-.34.11-.69.17-1,.15-1.06.27-2.11.34-3.18,0-.36,0-.73.06-1.09s0-.72,0-1.08c.59-16.85,14-25.43,27.16-25.43,12.76,0,25.2,8.12,25.2,24.65v.22c0,.18,0,.37,0,.55v.06c0,.34,0,.68,0,1l0,.71c0,.27,0,.53.06.8s.05.64.08.95l.09.74c0,.32.07.63.12.95s.12.77.18,1.15.08.5.13.75.08.44.13.65.1.47.16.7.14.67.23,1,.09.37.14.56.14.54.23.82a38.84,38.84,0,0,0,1.32,3.9c.12.33.25.64.39,1s.27.62.41.93.28.62.43.93c.45.94.93,1.84,1.43,2.73l.5.85c.19.31.38.63.59.93s.33.52.51.79c.37.56.75,1.11,1.16,1.66l.61.8c.83,1.07,1.7,2.09,2.63,3.08.41.44.82.87,1.26,1.3l.15.14c.24.24.49.48.73.7.5.46,1,.9,1.52,1.34l.78.65A42.91,42.91,0,0,0,233.41,326c.26.11.54.21.81.31.64.24,1.3.45,1.95.65s1.21.36,1.82.52l1.19.29c.66.15,1.33.29,2,.41l.24,0c.29.06.57.1.84.14l1.05.15c.63.07,1.26.14,1.89.19,1.11.1,2.23.14,3.36.14l1.5,0c.51,0,1,0,1.51-.07l1.22-.1c.41,0,.81-.08,1.21-.14l.79-.1c.69-.1,1.37-.22,2-.35l.52-.11c.34-.07.66-.13,1-.22s.65-.15,1-.24a42.1,42.1,0,0,0,4.34-1.37c.39-.14.76-.29,1.14-.45l.78-.33c.27-.11.53-.23.8-.36,1.14-.52,2.24-1.09,3.32-1.7-17.88,63.51-69.86,92.9-122.19,92.9C82,416.12,16,370.17,15.46,287.53c0-.16,0-.31,0-.48a7.66,7.66,0,0,0,0-.83V286c0-16.92,13.08-25.38,26.16-25.38"/><path class="cls-5" d="M249.21,318.58c-16.73,0-32.79-15.43-33.21-31.82,0-.2,0-.37,0-.52V286c0-24.08-18.84-35.05-36.35-35.05s-36.34,11-36.34,35.05v.6l0,.11c-.42,20.44-16.71,31.13-32.62,31.13h0c-15.79,0-31.95-10.53-32.61-30.68l0-.1V286c0-18-18.62-36.35-36.9-36.35h-.57l-1.26.06c-.31,0-.52,0-.73.06l-.18,0h-.19l-.14,0c-.78.07-1.36.15-1.88.24l-.14,0-.34,0-1.2.21-.35.08c-.75.16-1.52.35-2.33.58l-.87.25-.77.25c-.59.2-1.07.38-1.56.57l-.14.06c-.23.08-.47.17-.69.27l-.18.08c-.78.32-1.56.68-2.32,1.08l-.83.43-.41.23-13.86,7.92,4.43-15.33a140.44,140.44,0,0,1,13.07-30.88l.14-.25A140.37,140.37,0,0,1,37.56,201l.06-.08,0-.07c9.19-14.75,14.29-33.26,19.23-51.17C66.41,115.14,76.25,79.46,115,64.24l8.83-3.46V87.14a19.74,19.74,0,0,0,19.72,19.71h3.15a19.73,19.73,0,0,0,19.72-19.71V60.81l8.85,3.49c37.74,14.89,47.95,50.84,57.83,85.61,5.32,18.73,10.35,36.41,19.38,50.91l.1.15a141.26,141.26,0,0,1,9.78,14.76l.12.2a142.24,142.24,0,0,1,18.63,67.2c0,1.12.05,2.27.05,3.42v1.75l0,.3c0,.26-.05.5-.07.75l-.06.56c0,.25-.06.48-.1.72s-.11.71-.17,1.07c-.1.58-.23,1.18-.4,1.89-.09.39-.18.74-.28,1.1-.15.55-.3,1-.46,1.52s-.33,1-.52,1.45-.35.88-.54,1.31l-.05.12c-.2.46-.4.89-.62,1.32s-.49,1-.75,1.44l-.68,1.16c-.27.43-.54.86-.84,1.28s-.59.85-.9,1.26-.56.74-.88,1.12-.68.8-1,1.15-.6.65-.92,1l-.12.13-.73.72c-.86.81-1.72,1.54-2.6,2.22a33.54,33.54,0,0,1-3.73,2.48c-.35.2-.75.41-1.15.62l-.13.07c-.92.47-1.85.9-2.78,1.27-.42.17-.92.35-1.43.52s-.86.3-1.34.44l-.11,0c-1,.28-1.87.51-2.77.69-.51.1-1.1.21-1.71.29a10.14,10.14,0,0,1-1.14.14,26.74,26.74,0,0,1-3,.17"/><path class="cls-3" d="M130.33,51.29l-17.66,6.93c-41.8,16.4-52.54,55.35-62,89.71-5,18.18-9.75,35.36-18.38,49.29a148,148,0,0,0-10,15.11h0l-.07.13c-.05.08-.09.17-.13.23v0c-5.81,10.12-10,16.72-13.67,32.29C4,263.56,2.52,284.94,2.52,284.94l24.71-25.1.17-.1,0,0,0,0,.75-.4c.61-.31,1.21-.59,1.83-.84l.18-.08.18-.08.26-.1.14-.05.13,0c.5-.19.86-.33,1.18-.43l.07,0,.07,0,.17-.06.4-.13.43-.12.26-.08c.69-.2,1.31-.35,1.9-.47l.14,0,.14,0h0l.34-.06.35-.06.29-.06.26,0,.3-.05c.35-.06.78-.12,1.31-.17h.33l.35,0,.29,0h.18l1-.05h.36c6.89,0,14.66,3.59,20.76,9.61s9.67,13.55,9.67,20.27v1.84l.06.23A37.15,37.15,0,0,0,84.44,315a41.53,41.53,0,0,0,52.43,0c8-6.8,12.55-16.66,12.87-27.82l0-.18v-1c0-22.56,18.79-28.58,29.88-28.58s29.88,6,29.88,28.58v.25c0,.26,0,.51,0,.76.27,9.49,4.81,19.12,12.52,26.49s17.58,11.56,27.15,11.56a33.72,33.72,0,0,0,3.64-.2c.5-.05,1-.11,1.46-.18.66-.1,1.33-.22,2-.36,1.07-.22,2.16-.49,3.26-.8l.11,0,.1,0c.45-.14,1-.3,1.6-.52s1.18-.42,1.73-.65c1.09-.43,2.18-.93,3.25-1.48l.06,0,.06,0c.49-.26,1-.51,1.46-.79a38.7,38.7,0,0,0,4.45-3c1.05-.81,2.07-1.68,3-2.59l0,0,0,0,.85-.83.07-.08.08-.07c.38-.39.75-.78,1.11-1.18s.71-.81,1.06-1.22l.07-.09.08-.09c.4-.49.75-.93,1.06-1.35s.72-1,1-1.48.73-1.08,1-1.58.49-.82.73-1.24l0,0,0-.06c.35-.63.65-1.19.91-1.74s.54-1.13.72-1.53l.06-.12,0-.12c.21-.49.41-1,.61-1.49s.45-1.23.62-1.76.35-1.09.53-1.71l0-.08,0-.07c.12-.42.22-.83.33-1.26.2-.85.35-1.58.47-2.3q.12-.63.21-1.26c0-.23.08-.55.12-.92,0-.17.05-.4.07-.67s.06-.55.08-.84l0-.53v-2.06c0-1.1,0-2.28-.05-3.6a148.66,148.66,0,0,0-19.49-70.23l-.22-.37v0a149.22,149.22,0,0,0-10-15.11c-8.48-13.7-13.36-30.89-18.53-49.08-9.83-34.59-21-73.79-61.68-89.85l-17.69-7V87.14a13.26,13.26,0,0,1-13.25,13.24h-3.15a13.26,13.26,0,0,1-13.25-13.24V51.29Zm-12.94,19V87.14a26.21,26.21,0,0,0,26.19,26.18h3.15a26.21,26.21,0,0,0,26.19-26.18V70.32c53.94,21.28,47.32,91,74.1,133.93a7.5,7.5,0,0,0,.43.62A132.51,132.51,0,0,1,256.79,219l.1.17a135.49,135.49,0,0,1,17.78,64.13c0,1.08.05,2.17.05,3.27v1.52l-.06.65c0,.15,0,.3,0,.45s-.05.36-.07.54-.09.57-.14.86c-.09.5-.2,1-.32,1.51-.07.31-.14.6-.23.91s-.23.78-.36,1.17-.26.77-.41,1.15-.3.76-.46,1.13-.33.74-.52,1.1-.38.76-.6,1.14-.37.65-.56,1-.43.68-.66,1-.45.66-.69,1-.49.64-.74.95-.52.61-.79.9-.54.59-.82.87-.42.43-.64.63a26.28,26.28,0,0,1-2,1.75,24.26,24.26,0,0,1-3,2q-.53.3-1.05.57a22.85,22.85,0,0,1-2.2,1c-.38.16-.76.3-1.14.43s-.78.26-1.16.38q-1.11.32-2.22.54c-.45.09-.9.18-1.36.24-.3.05-.61.08-.91.11a19.58,19.58,0,0,1-2.3.13c-13.12,0-26.54-12.7-26.74-25.7a1,1,0,0,1,0-.17V286c0-27.68-21.41-41.52-42.82-41.52S136.83,258.31,136.83,286v.19a1.85,1.85,0,0,0,0,.23c-.27,16.63-13.22,24.95-26.16,24.95s-25.9-8.31-26.17-24.95a1,1,0,0,0,0-.17V286c0-21.55-21.63-42.81-43.37-42.82H40.4c-.53,0-1,0-1.57.08-.34,0-.67,0-1,.08l-.5,0c-.76.07-1.52.16-2.26.29l-.88.14-.09,0-.92.17-.36.08c-.94.19-1.87.42-2.78.68l-.89.26-.38.12-.73.24c-.61.21-1.2.43-1.8.66-.38.14-.76.29-1.12.45-1,.4-1.9.83-2.82,1.31l-.89.47-.6.32a134,134,0,0,1,12.47-29.45,1.51,1.51,0,0,0,.1-.17,134,134,0,0,1,9.33-14.11,4.61,4.61,0,0,0,.44-.62c27.19-43.67,18.69-112.19,74.24-134"/><path class="cls-4" d="M145.23,103.33a14.06,14.06,0,0,1-3.08-.35c-5.48-1.25-12.69-5.13-15.92-16.54-6.67-23.59,8.09-66.59,16-74.32l1.88-1.85h2.64c3.36,0,8.17,1.42,12.06,8.15,9.6,16.63,9.52,59.21-.15,75.94-4.28,7.42-9.65,9-13.4,9Z"/><path class="cls-3" d="M146.73,3.8h-5.28l-3.77,3.7c-8.05,7.88-14.09,30.08-15.22,34.46C119.07,55,115.9,73.68,120,88.2c3.19,11.29,10.54,18.78,20.7,21.09a20.5,20.5,0,0,0,4.53.51c6.1,0,17.23-2.83,23.07-21.81,2.61-8.48,4-19.71,4-31.62,0-11.51-1.33-22.46-3.74-30.85-5.44-18.89-16-21.72-21.88-21.72m0,12.94c16.67,0,17.66,80.12-1.49,80.12a7.42,7.42,0,0,1-1.66-.19c-25.87-5.89-5.1-71.84,3.15-79.93"/></g></svg>