<svg id="Ebene_1" data-name="Ebene 1" xmlns="http://www.w3.org/2000/svg" viewBox="0 0 141.73 141.73"><defs><style>.cls-1,.cls-8{fill:#bfbdbe;}.cls-1,.cls-14,.cls-15,.cls-2,.cls-3,.cls-5,.cls-6,.cls-8{stroke:#fff;}.cls-1,.cls-12,.cls-13,.cls-14,.cls-15,.cls-3,.cls-5,.cls-6,.cls-8,.cls-9{stroke-linecap:round;}.cls-1,.cls-12,.cls-13,.cls-14,.cls-15,.cls-2,.cls-3,.cls-5,.cls-6,.cls-8,.cls-9{stroke-miterlimit:10;}.cls-1{stroke-width:0.75px;}.cls-2{fill:#e3d599;}.cls-2,.cls-3{stroke-width:2px;}.cls-3{fill:#646463;}.cls-4{fill:#96c347;}.cls-5{fill:#d1b95a;}.cls-12,.cls-13,.cls-14,.cls-15,.cls-5,.cls-6,.cls-8{stroke-width:0.25px;}.cls-7{fill:#ededed;}.cls-13,.cls-15,.cls-9{fill:none;}.cls-9{stroke:#bfbdbe;}.cls-10,.cls-11{fill:#fff;}.cls-11{font-size:12px;font-family:MyriadPro-Regular, Myriad Pro;}.cls-12,.cls-13{stroke:#1d1d1b;}.cls-14{fill:#42bac1;}</style></defs><title>Zeichenfläche 1 Kopie 8</title><ellipse class="cls-1" cx="35.28" cy="21.76" rx="3.22" ry="1.57"/><polygon class="cls-2" points="126.63 86.37 17.9 86.37 2.95 119.97 139.62 120.42 126.63 86.37"/><rect class="cls-3" x="35.54" y="52.85" width="69.84" height="40.92"/><polygon class="cls-3" points="44.38 93.92 26.92 93.92 30.28 23.34 39.82 23.34 44.38 93.92"/><path class="cls-4" d="M82.35,107.29c2.78-.05,5.53,0,8.3.19v-3.75l-13.24.09v3.75a88.27,88.27,0,0,1,12,.34v-3.75l-12.27.66c-2.39.13-2.43,3.72,0,3.75q6.27.08,12.52.53v-3.75L76.48,106a1.88,1.88,0,0,0,0,3.75l13.16.35v-3.75l-5.74.34a1.88,1.88,0,0,0,0,3.75l7.74.37-.5-3.68c-1.94.27-3.86.43-5.82.56a1.88,1.88,0,0,0,0,3.75l8.46.27V108c-3.56.27-7.08.65-10.61,1.14-2.15.3-1.54,3.64.5,3.69l8.08.19v-3.75l-9.19.49a1.88,1.88,0,0,0,0,3.75l9.59.22v-3.75l-10.74.61a1.88,1.88,0,0,0,0,3.75l8.54.21v-3.75c-2.15.23-4.29.36-6.45.44a1.88,1.88,0,0,0,0,3.75l8.9.37v-3.75a70.25,70.25,0,0,1-7.67.41v3.75l14.43-.13c2.42,0,2.4-3.62,0-3.75l-25.58-1.31v3.75l22-.36c2.46,0,2.36-3.5,0-3.75q-8.72-.92-17.46-1.52v3.75l15.64-.66c2.4-.1,2.43-3.73,0-3.75-5.45-.06-10.87-.33-16.29-.89v3.75c4.55-.15,9.11-.27,13.67-.43,1.59-.06,4.39.33,5.17-1.48a1.91,1.91,0,0,0-1.12-2.76A50.3,50.3,0,0,0,87.72,105c-1.12-.15-2.24-.28-3.36-.45-1.58-.24-2.6-1-2.35.23l-1.31,2.3a21.54,21.54,0,0,1,6.41-.39c2.42,0,2.42-3.7,0-3.75a24.48,24.48,0,0,0-7.4.53,1.9,1.9,0,0,0-1.31,2.3c.38,1.92,2.63,2,4.23,2.28,3.8.62,7.85.68,11.55,1.78L93.06,107c-.09.21-14,0-15.61.06-2.46.08-2.37,3.5,0,3.75,5.42.56,10.84.83,16.29.89V108l-15.64.66a1.88,1.88,0,0,0,0,3.75q8.75.61,17.46,1.52v-3.75l-22,.36a1.88,1.88,0,0,0,0,3.75l25.58,1.31v-3.75L84.73,112c-2.41,0-2.41,3.76,0,3.75a70.25,70.25,0,0,0,7.67-.41c2.34-.27,2.46-3.65,0-3.75l-8.9-.37v3.75c2.16-.08,4.3-.21,6.45-.44,2.36-.24,2.47-3.69,0-3.75l-8.54-.21v3.75l10.74-.61a1.88,1.88,0,0,0,0-3.75l-9.59-.22v3.75l9.19-.49a1.88,1.88,0,0,0,0-3.75L83.67,109l.5,3.68c3.19-.45,6.39-.76,9.61-1a1.88,1.88,0,0,0,0-3.75l-8.46-.27v3.75c2.29-.15,4.55-.37,6.82-.69s1.5-3.59-.5-3.69l-7.74-.37v3.75l5.74-.34a1.88,1.88,0,0,0,0-3.75L76.48,106v3.75l13.13-.64a1.88,1.88,0,0,0,0-3.75q-6.26-.46-12.52-.53v3.75l12.27-.66a1.88,1.88,0,0,0,0-3.75,88.27,88.27,0,0,0-12-.34c-2.4.08-2.42,3.76,0,3.75l13.24-.09c2.43,0,2.39-3.6,0-3.75-2.77-.18-5.53-.24-8.3-.19-2.41,0-2.42,3.8,0,3.75Z"/><rect class="cls-5" x="97.15" y="72.47" width="3.18" height="19.93" rx="0.33" ry="0.33" transform="translate(111.85 -45.53) rotate(55.99)"/><path class="cls-6" d="M99.48,73.15h2a.61.61,0,0,1,.61.61V89.39a0,0,0,0,1,0,0H98.87a0,0,0,0,1,0,0V73.75a.61.61,0,0,1,.61-.61Z" transform="translate(111.64 -47.47) rotate(55.99)"/><rect class="cls-6" x="105.72" y="92.31" width="2.85" height="19.59" rx="0.33" ry="0.33"/><rect class="cls-6" x="110.36" y="92.31" width="2.85" height="19.59" rx="0.33" ry="0.33"/><path class="cls-6" d="M106,75.26h7a.77.77,0,0,1,.77.77V95a1.63,1.63,0,0,1-1.63,1.63h-5.32A1.63,1.63,0,0,1,105.18,95V76.05a.79.79,0,0,1,.79-.79Z"/><rect class="cls-5" x="113.38" y="77.04" width="2.85" height="19.59" rx="0.33" ry="0.33"/><path class="cls-6" d="M106.06,109.3h2a.61.61,0,0,1,.61.61V113a0,0,0,0,1,0,0h-3.19a0,0,0,0,1,0,0v-3.09A.61.61,0,0,1,106.06,109.3Z"/><path class="cls-6" d="M110.8,109.3h2a.61.61,0,0,1,.61.61V113a0,0,0,0,1,0,0h-3.19a0,0,0,0,1,0,0v-3.09A.61.61,0,0,1,110.8,109.3Z"/><path class="cls-6" d="M113.82,76.54h2a.61.61,0,0,1,.61.61V92.78a0,0,0,0,1,0,0h-3.19a0,0,0,0,1,0,0V77.14a.61.61,0,0,1,.61-.61Z"/><polygon class="cls-7" points="109.55 83.13 107.77 75.67 111.33 75.67 109.55 83.13"/><ellipse class="cls-5" cx="109.55" cy="72.37" rx="2.68" ry="4.17"/><path class="cls-4" d="M109.55,78.15h0c-.28,0-.49-.08-.49-.41l-.1-.86c0-.32.31-.1.59-.1h0c.29,0,.66-.24.66.09l-.14,1C110.07,78.21,109.84,78.15,109.55,78.15Z"/><path class="cls-4" d="M109.65,83.39h-.13c-.14,0-.22,0-.39-.26l.13-4.76a.3.3,0,0,1,.26-.32h.13a.3.3,0,0,1,.26.32l.15,4.76C109.87,83.49,109.79,83.39,109.65,83.39Z"/><rect class="cls-8" x="89.46" y="88.04" width="1.29" height="1.29" rx="0.56" ry="0.56" transform="translate(121.86 -33.69) rotate(60)"/><rect class="cls-8" x="90.54" y="89.08" width="0.45" height="0.93" rx="0.15" ry="0.15"/><rect class="cls-8" x="83.11" y="100.48" width="22.29" height="1.33" rx="0.67" ry="0.67" transform="translate(195.4 6.9) rotate(90)"/><rect class="cls-8" x="85.09" y="90" width="9.83" height="1.33" rx="0.67" ry="0.67"/><line class="cls-9" x1="94.21" y1="90.91" x2="94.21" y2="91.77"/><line class="cls-9" x1="94.31" y1="90.71" x2="94.31" y2="91.57"/><ellipse class="cls-1" cx="47.33" cy="14.61" rx="8.83" ry="3.92"/><ellipse class="cls-1" cx="40.61" cy="17.04" rx="4.96" ry="2.43"/><ellipse class="cls-1" cx="34.81" cy="19.74" rx="1.61" ry="0.79"/><ellipse class="cls-1" cx="37.95" cy="18.95" rx="1.61" ry="0.79"/><path class="cls-10" d="M39.9,91a14.61,14.61,0,0,0-3-4.9l-.6,1a5,5,0,0,1,2,1.36.63.63,0,0,0,1.07-.44,21.58,21.58,0,0,0-.11-4.82l-1.15.48A38.52,38.52,0,0,1,40.25,90a.63.63,0,0,0,1.14.15l1-2.27-1.16-.31a18.51,18.51,0,0,1,0,3.57l.8-.61c-.55-.08-2.54-.27-1.93-1.48H39A4.47,4.47,0,0,0,41,91a.63.63,0,0,0,.86-.86L40,87.2a.63.63,0,0,0-1.17.32A7.6,7.6,0,0,1,38,91l1.16.31a7,7,0,0,0-.75-3.13c-.35-.72-1.43-.09-1.08.63a5.56,5.56,0,0,1,.58,2.5.63.63,0,0,0,1.17.32,9.31,9.31,0,0,0,1-4.07L39,87.83l1.77,3,.86-.85a3.35,3.35,0,0,1-1.48-1.5.63.63,0,0,0-1.08,0c-1,2,1,3.07,2.67,3.32a.64.64,0,0,0,.79-.6,18.51,18.51,0,0,0,0-3.57c-.06-.54-.89-1-1.17-.32l-1,2.26,1.14.15a39.63,39.63,0,0,0-2.23-6.59c-.31-.71-1.22-.15-1.14.48a19.83,19.83,0,0,1,.07,4.49l1.07-.44a6.34,6.34,0,0,0-2.61-1.69A.63.63,0,0,0,36,87a12.86,12.86,0,0,1,2.69,4.34c.28.75,1.49.42,1.21-.33Z"/><path class="cls-5" d="M48.84,105.26c0,6.09-3.68,6.5-8.23,6.5s-8.22-.41-8.22-6.5S36.07,91,40.61,91,48.84,99.17,48.84,105.26Z"/><text class="cls-11" transform="translate(37.2 105.82)">€</text><path class="cls-8" d="M85.61,89.83h.58a.67.67,0,0,1,.67.67v2a0,0,0,0,1,0,0H84.94a0,0,0,0,1,0,0v-2A.67.67,0,0,1,85.61,89.83Z"/><path class="cls-12" d="M115.34,97.21a.8.8,0,1,1-.08-1.6c.45,0,.53.33.55.77S115.79,97.19,115.34,97.21Z"/><line class="cls-13" x1="115.16" y1="94.77" x2="115.78" y2="99.6"/><path class="cls-12" d="M115.65,99.44a.79.79,0,0,1-.84-.76.8.8,0,0,1,.76-.84c.45,0,.53.34.55.78S116.1,99.42,115.65,99.44Z"/><path class="cls-14" d="M86.75,93.76c.31.65-.38,1.13-.86,1.13s-1.21-.51-.85-1.13.38-1.3.85-1.3S86.35,92.9,86.75,93.76Z"/><path class="cls-14" d="M86.61,98.71c.25.55-.31,1-.7,1s-1-.44-.71-1,.32-1.09.71-1.09S86.28,98,86.61,98.71Z"/><path class="cls-14" d="M86.41,104.16c.18.38-.22.67-.51.67s-.72-.31-.5-.67.22-.76.5-.76S86.18,103.65,86.41,104.16Z"/><path class="cls-14" d="M86.24,109.56c.12.26-.15.45-.34.45s-.47-.2-.33-.45.15-.52.33-.52S86.08,109.22,86.24,109.56Z"/><circle class="cls-15" cx="85.9" cy="113.44" r="0.28"/></svg>