<svg id="Ebene_1" data-name="Ebene 1" xmlns="http://www.w3.org/2000/svg" viewBox="0 0 141.73 141.73"><defs><style>.cls-1,.cls-15{fill:#e3d599;}.cls-1,.cls-11,.cls-12,.cls-14,.cls-15,.cls-16,.cls-17,.cls-18,.cls-19,.cls-20,.cls-22,.cls-23,.cls-24,.cls-3,.cls-4,.cls-5,.cls-6{stroke:#fff;stroke-miterlimit:10;}.cls-1,.cls-11,.cls-3,.cls-4,.cls-5,.cls-6{stroke-width:2px;}.cls-12,.cls-17,.cls-2{fill:#96c347;}.cls-3,.cls-8{fill:#bfbebe;}.cls-11,.cls-12,.cls-15,.cls-16,.cls-17,.cls-18,.cls-19,.cls-20,.cls-22,.cls-23,.cls-24,.cls-3,.cls-4,.cls-5,.cls-6{stroke-linecap:round;}.cls-21,.cls-4{fill:#646463;}.cls-5{fill:#017871;}.cls-6{fill:#666047;}.cls-23,.cls-7{fill:#fff;}.cls-9{fill:#e84241;}.cls-10,.cls-14{fill:#942b2b;}.cls-11{fill:none;}.cls-13{fill:#505b37;}.cls-14,.cls-15,.cls-16,.cls-17,.cls-18,.cls-19,.cls-20,.cls-22,.cls-23,.cls-24{stroke-width:0.25px;}.cls-16{fill:#42bac1;}.cls-18{fill:#d1b95a;}.cls-20{fill:#f8aa16;}.cls-22{fill:#e84143;}.cls-24{fill:#e84343;}</style></defs><title>Zeichenfläche 1</title><polygon class="cls-1" points="126.5 80.91 17.77 80.91 2.82 114.51 139.48 114.97 126.5 80.91"/><path class="cls-2" d="M57.2,89a191.22,191.22,0,0,1,20.87.49V85.69L44.79,86v3.75a183.93,183.93,0,0,1,30.05.91V86.88L44,88.76c-2.39.15-2.43,3.73,0,3.75,10.5.1,21,.56,31.45,1.44V90.2L42.46,92a1.88,1.88,0,0,0,0,3.75l33.06.92V92.93l-14.42,1a1.88,1.88,0,0,0,0,3.75l19.45,1L80.05,95c-5.1.84-10.22,1.34-15.38,1.67a1.88,1.88,0,0,0,0,3.75l21.24.74V97.39c-8.67.72-17.31,1.7-25.9,3.08-2.15.35-1.54,3.63.5,3.68l20.32.5V100.9l-23.12,1.39a1.88,1.88,0,0,0,0,3.75l24.12.6v-3.75l-27,1.72a1.88,1.88,0,0,0,0,3.75l21.47.56v-3.75c-5.39.67-10.8,1-16.23,1.24a1.88,1.88,0,0,0,0,3.75l22.37,1-.5-3.69a133.79,133.79,0,0,1-18.77,1.12v3.75l36.26-.41c2.43,0,2.4-3.62,0-3.75L35.14,104.6v3.75l55.26-1.06c2.47,0,2.34-3.48,0-3.75Q68.5,101,46.51,99.37v3.75l39.32-1.88c2.4-.11,2.43-3.73,0-3.75a368.85,368.85,0,0,1-41-2.42v3.75l26.05-.93c4-.15,8.06-.22,12.08-.44,2.1-.12,4.53-.08,6.38-1.19a1.91,1.91,0,0,0,.86-2.12c-.64-2.38-4-2.61-6-3-5.61-1-11.31-1.69-16.95-2.53-2.47-.37-5-.7-7.41-1.11-1.32-.22-2.65-.44-4-.74s-1.45-.73-2,.26c-.78,1.35,2.83.3,3.5.24,1.09-.1,2.18-.14,3.27-.17,2.85-.08,5.7,0,8.54.07,2.41.06,2.41-3.69,0-3.75a89.36,89.36,0,0,0-13.59.29C53.66,84,51,84.13,50,86a1.92,1.92,0,0,0,0,1.9c2.4,3.73,10.54,3.45,14.37,4l11.5,1.71c1,.14,10.72,1.25,10.78,1.47L87.49,93c-2.44,1.47-7,.77-9.82.87l-10.61.39-22.19.79c-2.47.09-2.35,3.48,0,3.75a368.85,368.85,0,0,0,41,2.42V97.49L46.51,99.37a1.88,1.88,0,0,0,0,3.75q22,1.66,43.89,4.17v-3.75L35.14,104.6a1.88,1.88,0,0,0,0,3.75l64.29,3.57v-3.75l-36.26.41a1.88,1.88,0,0,0,0,3.75,141.81,141.81,0,0,0,19.76-1.25c2.18-.3,1.52-3.59-.49-3.68l-22.37-1v3.75c5.43-.19,10.84-.57,16.23-1.24,2.33-.29,2.49-3.68,0-3.75l-21.47-.56v3.75l27-1.72a1.88,1.88,0,0,0,0-3.75l-24.12-.6V106l23.12-1.39a1.88,1.88,0,0,0,0-3.75l-20.32-.5.5,3.69c8.26-1.33,16.57-2.26,24.9-3a1.88,1.88,0,0,0,0-3.75l-21.24-.74v3.75a163.73,163.73,0,0,0,16.38-1.81c2.17-.36,1.5-3.58-.5-3.68l-19.45-1v3.75l14.42-1a1.88,1.88,0,0,0,0-3.75L42.46,92v3.75l33-1.81a1.88,1.88,0,0,0,0-3.75C65,89.32,54.49,88.86,44,88.76v3.75l30.85-1.88a1.88,1.88,0,0,0,0-3.75A183.93,183.93,0,0,0,44.79,86c-2.39.12-2.43,3.77,0,3.75l33.28-.28c2.44,0,2.38-3.57,0-3.75A191.22,191.22,0,0,0,57.2,85.2c-2.4.08-2.41,3.83,0,3.75Z"/><path class="cls-2" d="M25.58,89.17a90.57,90.57,0,0,1,14.07.41V85.83l-22.44.42V90A83.67,83.67,0,0,1,37,90.73l.5-3.68-20.8,2c-2.36.23-2.46,3.72,0,3.75a200.4,200.4,0,0,1,21.2,1.33V90.4l-22.25,2a1.88,1.88,0,0,0,0,3.75l22.29.81V93.17l-9.73,1a1.88,1.88,0,0,0,0,3.75l13.11,1-.5-3.69A71.92,71.92,0,0,1,30.57,97a1.88,1.88,0,0,0,0,3.75l14.32.66V97.63a167.25,167.25,0,0,0-17.64,3.22c-2.1.51-1.58,3.62.5,3.68l13.69.43v-3.75L25.86,102.7c-2.37.23-2.46,3.68,0,3.75l16.25.51v-3.75l-18.2,1.85a1.88,1.88,0,0,0,0,3.75l14.47.49-.5-3.69a83.46,83.46,0,0,1-10.45,1.25,1.88,1.88,0,0,0,0,3.75l15.07.91-.5-3.68A62.28,62.28,0,0,1,29.51,109v3.75L54,112.24a1.88,1.88,0,0,0,0-3.75l-43.33-3.36v3.75l37.26-1.29c2-.07,2.67-3.31.5-3.68q-15-2.5-30.07-4.12v3.75l26.51-2.05c2.38-.18,2.45-3.73,0-3.75a168.51,168.51,0,0,1-27.1-2.22l-.5,3.68,19-1.13c3.09-.19,9.45.64,11.71-2.06a1.93,1.93,0,0,0,0-2.65c-2.66-3.27-10.17-3.37-14-4.2-2.78-.6-5.8-1.7-8.62-2-1.52.67-1.47.8.17.39a14.08,14.08,0,0,1,3-.29c1.73-.09,3.47,0,5.19.06,2.41.07,2.41-3.68,0-3.75-1.93-.06-16.61-.9-13.28,5,1.47,2.58,6.59,2.91,9,3.45l7.1,1.54c2,.44,7.39.75,8.78,2.46V93.36c-1,1.22-5.58.75-7.16.84l-6.65.4-14.26.85c-2,.12-2.7,3.31-.5,3.69a175.16,175.16,0,0,0,28.1,2.35V97.74L18.32,99.79a1.88,1.88,0,0,0,0,3.75q14.6,1.58,29.07,4l.5-3.69-37.26,1.29a1.88,1.88,0,0,0,0,3.75L54,112.24v-3.75L29.51,109c-2.4.06-2.42,3.77,0,3.75A67.81,67.81,0,0,0,43,111.46c2.16-.46,1.52-3.57-.5-3.69l-15.07-.91v3.75a93.66,93.66,0,0,0,11.45-1.38c2.14-.4,1.53-3.62-.5-3.68l-14.47-.49v3.75L42.11,107c2.36-.24,2.46-3.67,0-3.75l-16.25-.51v3.75L41.44,105a1.88,1.88,0,0,0,0-3.75l-13.69-.43.5,3.69a158.72,158.72,0,0,1,16.64-3.09c2.33-.3,2.48-3.63,0-3.75L30.57,97v3.75a79,79,0,0,0,11.21-1.89c2.14-.54,1.53-3.53-.5-3.68l-13.11-1v3.75l9.73-1c2.35-.25,2.46-3.66,0-3.75l-22.29-.81v3.75l22.25-2a1.88,1.88,0,0,0,0-3.75,200.4,200.4,0,0,0-21.2-1.33v3.75l20.8-2c1.92-.19,2.76-3.31.5-3.68a86.84,86.84,0,0,0-20.75-.87c-2.37.18-2.44,3.79,0,3.75l22.44-.42c2.46,0,2.35-3.5,0-3.75a90.57,90.57,0,0,0-14.07-.41c-2.4.12-2.41,3.87,0,3.75Z"/><rect class="cls-3" x="15.78" y="59.35" width="25.5" height="36.37"/><path class="cls-4" d="M52.18,97.06h14.6a1.69,1.69,0,0,1,1.69,1.69v4.15a7,7,0,0,1-7,7H56.81a7,7,0,0,1-7-7V99.44a2.38,2.38,0,0,1,2.38-2.38Z"/><ellipse class="cls-5" cx="59.14" cy="96.81" rx="8.5" ry="3.58"/><path class="cls-6" d="M78.81,59.06h0a2.25,2.25,0,0,1,2.25,2.25V90.9a.17.17,0,0,1-.17.17H77.18a.63.63,0,0,1-.63-.63V61.31a2.25,2.25,0,0,1,2.25-2.25Z"/><path class="cls-7" d="M77.3,59.55c-5.69-.07-4.91-12.88-4.79-16.47,0-.8-1.22-.8-1.25,0-.15,4.34-.87,17.64,6,17.72a.63.63,0,0,0,0-1.25Z"/><path class="cls-7" d="M81.61,60.43c6.66-.81,8.52-7.57,9.49-13.21.13-.78-1.07-1.12-1.21-.33-.84,4.94-2.26,11.56-8.28,12.29-.79.09-.8,1.34,0,1.25Z"/><path class="cls-7" d="M73,56.85a6.65,6.65,0,0,1-6.07-5.45c-.14-.79-1.35-.46-1.2.33A7.89,7.89,0,0,0,73,58.1c.8,0,.8-1.2,0-1.25Z"/><path class="cls-7" d="M84.25,59.38A3.71,3.71,0,0,0,89,61.9c.75-.27.43-1.48-.33-1.2a2.45,2.45,0,0,1-3.21-1.65.63.63,0,0,0-1.21.33Z"/><rect class="cls-8" x="42.31" y="61.31" width="19.36" height="24.56"/><path class="cls-9" d="M28.8,40.59,43.89,58.1l-.93,1H13.2a.53.53,0,0,1-.4-.88L28,40.59A.52.52,0,0,1,28.8,40.59Z"/><path class="cls-10" d="M44,58.24a.53.53,0,0,1-.4.88H43l.93-1Z"/><path class="cls-10" d="M42,60.17l1-1.05h.65a.53.53,0,0,0,.4-.88l-.12-.14,8-8.83a.53.53,0,0,1,.78,0l9.9,10.9a.53.53,0,0,1-.39.89H42.4A.53.53,0,0,1,42,60.17Z"/><path class="cls-11" d="M43,59.12l-1,1.05a.53.53,0,0,0,.39.89H62.2a.53.53,0,0,0,.39-.89l-9.9-10.9a.53.53,0,0,0-.78,0l-8,8.83"/><rect class="cls-11" x="42.31" y="61.31" width="19.36" height="24.56"/><path class="cls-11" d="M43.89,58.1,28.8,40.59a.52.52,0,0,0-.8,0L12.8,58.24a.53.53,0,0,0,.4.88H43.61a.53.53,0,0,0,.4-.88Z"/><ellipse class="cls-12" cx="85.98" cy="47.31" rx="15.83" ry="11.75"/><ellipse class="cls-12" cx="72.74" cy="45.02" rx="10.23" ry="6.62"/><path class="cls-13" d="M100.44,86.91a14.14,14.14,0,0,1,2,3.42.62.62,0,0,0,1.22-.16,15.79,15.79,0,0,1,1.28-5.45c.31-.73-.76-1.37-1.08-.63a17.46,17.46,0,0,0-1.45,6.08l1.23-.17a15.06,15.06,0,0,0-2.07-3.72c-.48-.64-1.57,0-1.08.63Z"/><path class="cls-13" d="M101.42,93.33c.52-1,1.48.64,1.7,1.07a.64.64,0,0,0,1.08,0,.57.57,0,0,1,.62-.38.62.62,0,0,0,1.2.34,1.3,1.3,0,0,0-.9-1.63c-.85-.25-1.54.4-2,1h1.08a3.16,3.16,0,0,0-1.93-1.93,1.71,1.71,0,0,0-1.93.86c-.35.72.72,1.35,1.08.63Z"/><path class="cls-13" d="M104.05,99.74c.3-.68.8-.37,1.29-.28a1.36,1.36,0,0,0,1-.23,25,25,0,0,0,2.47-2c.62-.52-.26-1.4-.88-.89l-1.39,1.15a2.09,2.09,0,0,1-1.23.69c-.17,0-.39-.14-.57-.16A1.81,1.81,0,0,0,103,99.11c-.31.73.76,1.36,1.08.63Z"/><path class="cls-13" d="M104.93,103.41a4.58,4.58,0,0,1,1.81,2.22.63.63,0,0,0,1.21-.33,1.66,1.66,0,0,1,1.31-1.92c.79-.17.45-1.37-.33-1.2a2.91,2.91,0,0,0-2.19,3.45l1.21-.33a6,6,0,0,0-2.39-3c-.67-.44-1.3.64-.63,1.07Z"/><path class="cls-13" d="M107.49,110.31c.14-.46.74,0,.86.17a3.27,3.27,0,0,1,.43,1.19c.17.73,1.17.5,1.23-.16,0-.21.26-1.76.79-1.16s1.41-.28.88-.88a1.49,1.49,0,0,0-1.92-.24,2.71,2.71,0,0,0-1,2.28l1.22-.17c-.23-1-.62-2.13-1.72-2.4a1.59,1.59,0,0,0-2,1c-.24.77,1,1.1,1.21.34Z"/><path class="cls-13" d="M114.91,86.5l1.84,2.12a.63.63,0,0,0,1.07-.45,2.11,2.11,0,0,1,.83-1.8c.64-.47,0-1.56-.63-1.08a3.44,3.44,0,0,0-1.45,2.88l1.07-.44-1.85-2.12c-.52-.6-1.41.28-.88.89Z"/><path class="cls-13" d="M116.11,91.67l-1.37.86a.63.63,0,0,0,.63,1.08c.63-.29,1.26-.56,1.86-.09.3.25.38.53.78.66a1.19,1.19,0,0,0,.79,0c.15-.06.82-.61.87-.58.72.36,1.36-.72.64-1.08a1.31,1.31,0,0,0-1.31,0c-.08,0-.56.46-.61.46s-.36-.42-.46-.5c-1-.82-2.17-.41-3.19.06l.63,1.08,1.37-.86c.68-.43.05-1.51-.63-1.08Z"/><path class="cls-13" d="M116.91,97.69a4.39,4.39,0,0,1,1.87,1.54.63.63,0,0,0,1.14-.15,1.85,1.85,0,0,1,.52-1c.41-.32,1.18-.32,1.16.38s1.22.81,1.25,0A1.85,1.85,0,0,0,121,96.63a2.6,2.6,0,0,0-2.27,2.12l1.15-.15a5.6,5.6,0,0,0-2.32-2c-.72-.33-1.36.75-.63,1.08Z"/><path class="cls-13" d="M120.45,102.62a1.55,1.55,0,1,0-2.68,1.56c.36.72,1.44.09,1.08-.63a.3.3,0,0,1,.52-.3c.45.66,1.53,0,1.08-.63Z"/><path class="cls-13" d="M119.46,103.5a1.25,1.25,0,0,0,1.6.56,2,2,0,0,0,.76-.54c.11-.13.21-.27.33-.4s.27-.18.28-.3c-.07.8,1.18.8,1.25,0a1.2,1.2,0,0,0-1.49-1.15,1.78,1.78,0,0,0-.92.57c-.1.1-.65.81-.73.63-.33-.73-1.41-.1-1.08.63Z"/><path class="cls-13" d="M122.73,109.87a1.36,1.36,0,0,0-1.62-.9c-.88.18-1.25,1-1.5,1.81s.76,1,1.14.48,1.4-.29,1.94-.35a2.91,2.91,0,0,0,.72-.17,1.7,1.7,0,0,0,.44-.24c.2,0,.23-.14.09-.26l.06-.48-.07.13c-.39.7.69,1.33,1.08.63a.94.94,0,0,0-.22-1.22c-.49-.41-1-.21-1.48.06-1.22.66-2.71,0-3.64,1.27l1.15.48s.59-1.22.7-.9c.27.75,1.48.42,1.21-.34Z"/><ellipse class="cls-14" cx="84.85" cy="93.72" rx="1.6" ry="0.8"/><ellipse class="cls-14" cx="74.95" cy="94.52" rx="1.6" ry="0.9"/><ellipse class="cls-14" cx="72.44" cy="90.67" rx="1.6" ry="0.92"/><ellipse class="cls-15" cx="88.16" cy="63.05" rx="1.24" ry="0.66" transform="translate(-8.12 112.84) rotate(-62.92)"/><ellipse class="cls-15" cx="94.57" cy="44.22" rx="1.24" ry="0.66" transform="translate(12.15 108.29) rotate(-62.92)"/><ellipse class="cls-15" cx="75.32" cy="43.08" rx="1.24" ry="0.66" transform="translate(27.89 115.75) rotate(-86.64)"/><ellipse class="cls-15" cx="65.27" cy="53.43" rx="1.24" ry="0.66" transform="translate(-13.64 83.24) rotate(-60)"/><ellipse class="cls-15" cx="64.69" cy="51.95" rx="1.24" ry="0.66" transform="translate(-9.33 14.48) rotate(-11.92)"/><ellipse class="cls-15" cx="84.12" cy="53.72" rx="1.24" ry="0.66" transform="translate(-2 104.16) rotate(-62.92)"/><ellipse class="cls-15" cx="94.57" cy="51.77" rx="0.66" ry="1.24" transform="translate(-5.28 11.1) rotate(-6.54)"/><rect class="cls-16" x="24.29" y="94.41" width="1.72" height="10.25" rx="0.33" ry="0.33"/><rect class="cls-16" x="27.09" y="94.41" width="1.72" height="10.25" rx="0.33" ry="0.33"/><path class="cls-17" d="M24.76,85.49h3.62a.77.77,0,0,1,.77.77V95a1.63,1.63,0,0,1-1.63,1.63H25.59A1.63,1.63,0,0,1,24,95V86.28a.79.79,0,0,1,.79-.79Z"/><path class="cls-16" d="M24.81,89.35h3.62a.77.77,0,0,1,.77.77V95a1.63,1.63,0,0,1-1.63,1.63H25.65A1.63,1.63,0,0,1,24,95V90.14a.79.79,0,0,1,.79-.79Z"/><rect class="cls-18" x="22.64" y="86.42" width="1.72" height="10.25" rx="0.33" ry="0.33"/><rect class="cls-18" x="28.92" y="86.42" width="1.72" height="10.25" rx="0.33" ry="0.33"/><ellipse class="cls-18" cx="26.6" cy="83.57" rx="1.61" ry="2.58"/><path class="cls-17" d="M29.42,86.15h.71a.61.61,0,0,1,.61.61v2.11a0,0,0,0,1,0,0H28.81a0,0,0,0,1,0,0V86.76A.61.61,0,0,1,29.42,86.15Z"/><path class="cls-19" d="M24.74,103.3h.71a.61.61,0,0,1,.61.61v1.33a0,0,0,0,1,0,0H24.13a0,0,0,0,1,0,0v-1.33a.61.61,0,0,1,.61-.61Z"/><path class="cls-19" d="M27.6,103.3h.71a.61.61,0,0,1,.61.61v1.33a0,0,0,0,1,0,0H27a0,0,0,0,1,0,0v-1.33a.61.61,0,0,1,.61-.61Z"/><path class="cls-17" d="M23.15,86.15h.71a.61.61,0,0,1,.61.61v2.11a0,0,0,0,1,0,0H22.54a0,0,0,0,1,0,0V86.76A.61.61,0,0,1,23.15,86.15Z"/><rect class="cls-16" x="24.7" y="85.68" width="0.59" height="3.68" rx="0.2" ry="0.2"/><rect class="cls-16" x="27.95" y="85.49" width="0.59" height="3.68" rx="0.2" ry="0.2"/><rect class="cls-18" x="33.75" y="95.84" width="1.52" height="9.15" rx="0.33" ry="0.33"/><rect class="cls-18" x="36.22" y="95.84" width="1.52" height="9.15" rx="0.33" ry="0.33"/><path class="cls-20" d="M34.26,87.88h3a.77.77,0,0,1,.77.77v12.59a0,0,0,0,1,0,0H33.47a0,0,0,0,1,0,0V88.67A.79.79,0,0,1,34.26,87.88Z"/><rect class="cls-18" x="32.3" y="88.72" width="1.52" height="9.15" rx="0.33" ry="0.33"/><rect class="cls-18" x="37.83" y="88.72" width="1.52" height="9.15" rx="0.33" ry="0.33"/><ellipse class="cls-18" cx="35.75" cy="85.23" rx="2" ry="3.24"/><path class="cls-19" d="M34.22,103.78h.49a.61.61,0,0,1,.61.61v1.12a0,0,0,0,1,0,0h-1.7a0,0,0,0,1,0,0v-1.12A.61.61,0,0,1,34.22,103.78Z"/><path class="cls-19" d="M36.74,103.78h.49a.61.61,0,0,1,.61.61v1.12a0,0,0,0,1,0,0h-1.7a0,0,0,0,1,0,0v-1.12A.61.61,0,0,1,36.74,103.78Z"/><path class="cls-21" d="M34.79,81.34a3,3,0,0,0-1.58,1.83A3.88,3.88,0,0,0,33,84.53c0,.15,0,.3,0,.45l.14-.18c-.22,0-.43,0-.67,0l.71.92a2.13,2.13,0,0,0,.44-1.58c-.08-.79-1.29-.82-1.25,0,0,1.09-.87,2.58.59,3.1.42.15.74-.24.79-.61l.06-.53c.1-.8-1.15-.79-1.25,0l-.06.53.79-.6c.25.09.33-1.77.33-1.89H32.45a1.26,1.26,0,0,1-.27.95c-.35.47.23,1,.71.92.65-.14,1.39,0,1.46-.91.08-1.13-.18-2.12,1.07-2.72.72-.35.09-1.43-.63-1.08Z"/><path class="cls-21" d="M35.27,82.34a3.9,3.9,0,0,0,.9.42,1.63,1.63,0,0,1,.93,1.11c.11.29.74,2,1,1.94l.77.44V86c.11-.79-1.09-1.13-1.2-.33a3.09,3.09,0,0,0,0,1,.63.63,0,0,0,.77.44A1,1,0,0,0,39.23,86a4.41,4.41,0,0,0-.59-1.88,11.14,11.14,0,0,0-1-1.76c-.52-.57-1.21-.62-1.78-1s-1.26.59-.63,1.08Z"/><path class="cls-21" d="M37,84.1c.28.13.13.14.08.41a1.1,1.1,0,0,0,.11.71c.08.18.34.4.35.6s-.3.41-.52.51a.62.62,0,0,0,0,1.08,1.81,1.81,0,0,0,1.05.21l-.17-1.22a1.47,1.47,0,0,1-.66,0c-.79-.15-1.12,1.06-.33,1.21a3.09,3.09,0,0,0,1.32,0c.68-.15.55-1.3-.16-1.23a.55.55,0,0,1-.42,0v1.08a1.66,1.66,0,0,0,1-2.29c-.08-.14-.27-.41-.27-.42,0-.2.15-.38.14-.59A1.34,1.34,0,0,0,37.65,83c-.73-.34-1.36.74-.63,1.08Z"/><path class="cls-21" d="M33.29,86.86l.09.1-.06-.48,0,.12.28-.37c.1-.07-.21,0-.26,0s-.34-.06-.5-.09l.27,1c-.18,0-.2.08,0,.14l.2.13.48.31c.68.43,1.31-.65.63-1.08s-1.46-1.09-2.16-.38a.62.62,0,0,0,.27,1,2.49,2.49,0,0,0,1.7,0,.82.82,0,0,0,0-1.35c-.6-.55-1.48.33-.89.88Z"/><rect class="cls-18" x="29.2" y="100.33" width="1.13" height="6.48" rx="0.33" ry="0.33"/><rect class="cls-18" x="31.04" y="100.33" width="1.13" height="6.48" rx="0.33" ry="0.33"/><path class="cls-22" d="M29.78,94.7h1.83a.77.77,0,0,1,.77.77v8.69a0,0,0,0,1,0,0H29a0,0,0,0,1,0,0V95.49A.79.79,0,0,1,29.78,94.7Z"/><rect class="cls-18" x="28.12" y="95.29" width="1.13" height="6.48" rx="0.33" ry="0.33"/><rect class="cls-18" x="32.23" y="95.29" width="1.13" height="6.48" rx="0.33" ry="0.33"/><ellipse class="cls-18" cx="30.68" cy="92.82" rx="1.48" ry="2.3"/><path class="cls-20" d="M29.7,106h0a.61.61,0,0,1,.61.61v.62a0,0,0,0,1,0,0H29.09a0,0,0,0,1,0,0v-.62A.61.61,0,0,1,29.7,106Z"/><path class="cls-20" d="M31.57,106h0a.61.61,0,0,1,.61.61v.62a0,0,0,0,1,0,0H31a0,0,0,0,1,0,0v-.62A.61.61,0,0,1,31.57,106Z"/><path class="cls-21" d="M29.11,90.13a3.56,3.56,0,0,0-.87,3,.62.62,0,0,0,1.2-.34,2.56,2.56,0,0,1,.75-2.07c.47-.66-.61-1.28-1.08-.63Z"/><path class="cls-21" d="M30.12,91c.38.08.9.15,1.12.5a4.9,4.9,0,0,1,.36,1.62c.14.8,1.35.46,1.2-.33a4.51,4.51,0,0,0-.65-2.16,2.83,2.83,0,0,0-1.69-.83c-.79-.17-1.12,1-.34,1.2Z"/><rect class="cls-16" x="19.31" y="99.48" width="1.08" height="6.42" rx="0.33" ry="0.33"/><rect class="cls-16" x="21.07" y="99.48" width="1.08" height="6.42" rx="0.33" ry="0.33"/><path class="cls-23" d="M19.9,93.9h1.7a.77.77,0,0,1,.77.77v4.61a1.63,1.63,0,0,1-1.63,1.63h0a1.63,1.63,0,0,1-1.63-1.63V94.69a.79.79,0,0,1,.79-.79Z"/><rect class="cls-18" x="18.27" y="94.48" width="1.08" height="6.42" rx="0.33" ry="0.33"/><rect class="cls-18" x="22.22" y="94.48" width="1.08" height="6.42" rx="0.33" ry="0.33"/><ellipse class="cls-18" cx="20.73" cy="92.04" rx="1.42" ry="2.28"/><path class="cls-24" d="M18.81,94.31h0a.61.61,0,0,1,.61.61V96a0,0,0,0,1,0,0H18.21a0,0,0,0,1,0,0V94.92a.61.61,0,0,1,.61-.61Z"/><path class="cls-24" d="M22.76,94.31h0a.61.61,0,0,1,.61.61V96a0,0,0,0,1,0,0H22.16a0,0,0,0,1,0,0V94.92A.61.61,0,0,1,22.76,94.31Z"/><path class="cls-24" d="M19.81,105h0a.61.61,0,0,1,.61.61v.61a0,0,0,0,1,0,0H19.21a0,0,0,0,1,0,0v-.61A.61.61,0,0,1,19.81,105Z"/><path class="cls-24" d="M21.61,105h0a.61.61,0,0,1,.61.61v.61a0,0,0,0,1,0,0H21a0,0,0,0,1,0,0v-.61A.61.61,0,0,1,21.61,105Z"/></svg>